<?xml version="1.0" standalone="no"?>
<!DOCTYPE svg PUBLIC "-//W3C//DTD SVG 20010904//EN"
 "http://www.w3.org/TR/2001/REC-SVG-20010904/DTD/svg10.dtd">
<svg version="1.0" xmlns="http://www.w3.org/2000/svg"
 width="1173.000000pt" height="614.000000pt" viewBox="0 0 1173.000000 614.000000"
 preserveAspectRatio="xMidYMid meet">

<g transform="translate(0.000000,614.000000) scale(0.100000,-0.100000)"
fill="#000000" stroke="none">
<path d="M5 3070 c0 -1691 1 -2473 2 -1737 3 1225 4 1337 19 1337 14 0 15 6 9
33 -5 17 -9 48 -9 69 -1 20 -4 40 -8 44 -5 4 -8 58 -8 121 0 125 12 145 43 75
19 -44 22 -78 7 -87 -6 -3 -10 -16 -10 -29 0 -12 -5 -27 -12 -34 -9 -9 -9 -12
0 -12 7 0 16 10 21 23 5 12 23 35 40 51 17 17 31 38 31 48 0 19 -57 77 -76 78
-6 0 -18 8 -26 18 -13 14 -15 52 -14 222 l1 205 55 3 c67 4 76 12 51 41 -20
23 -20 61 0 125 11 37 -1 52 -29 37 -16 -8 -27 -7 -51 7 l-31 17 0 143 c0 134
1 142 19 142 11 0 23 5 26 10 4 6 -5 10 -19 10 l-26 0 0 123 0 123 31 11 31
12 -21 30 c-12 16 -21 38 -21 49 0 12 -4 24 -10 27 -6 4 -10 103 -10 266 l0
259 43 1 c69 3 75 4 83 11 4 4 -4 18 -18 31 -14 13 -27 29 -30 37 -3 10 -9 10
-25 1 -56 -29 -53 -60 -56 562 -1 314 -2 -812 -2 -2503z m45 576 c0 -48 -17
-106 -31 -106 -5 0 -9 34 -9 75 0 68 2 75 20 75 17 0 20 -7 20 -44z"/>
<path d="M3265 6131 c-7 -12 -102 -56 -170 -81 -27 -9 -81 -33 -120 -52 -38
-20 -141 -68 -227 -109 -175 -82 -170 -77 -211 -214 -22 -73 -53 -141 -82
-179 -14 -18 -25 -39 -25 -47 0 -8 -7 -24 -15 -36 -12 -17 -21 -20 -42 -14
-15 4 -30 16 -33 27 -3 12 -22 35 -42 53 -32 27 -39 30 -44 17 -3 -9 -12 -16
-20 -16 -8 0 -14 -9 -14 -19 0 -27 -15 -34 -31 -15 -10 12 -10 22 -2 45 l11
29 -51 1 c-81 2 -120 -2 -141 -13 -18 -10 -18 -11 5 -24 26 -14 28 -12 -51
-33 -86 -23 -90 -24 -90 -12 0 6 7 14 15 16 53 17 52 15 33 26 -13 7 -25 4
-47 -12 -23 -17 -32 -19 -50 -10 -11 7 -21 16 -21 21 0 14 -34 12 -48 -2 -9
-9 -18 -9 -37 0 -14 7 -49 12 -77 12 -42 0 -61 -6 -99 -32 -26 -18 -53 -43
-60 -55 -6 -12 -22 -24 -35 -27 -25 -7 -31 -20 -14 -31 6 -4 18 2 28 14 9 11
45 27 82 36 61 15 66 15 89 -3 13 -10 29 -27 35 -38 6 -10 17 -23 24 -27 19
-12 14 -34 -8 -40 -14 -3 -20 -14 -20 -31 0 -54 -80 -60 -88 -6 -3 18 -9 21
-29 17 -17 -3 -32 2 -45 15 -11 11 -26 17 -35 14 -8 -3 -28 -6 -43 -6 -22 0
-32 -7 -42 -27 -7 -16 -31 -37 -53 -49 -24 -12 -41 -29 -43 -41 -2 -12 -10
-27 -18 -33 -8 -7 -14 -17 -14 -23 0 -6 -10 -21 -22 -34 l-21 -23 36 -15 c20
-8 52 -15 71 -15 21 0 36 -6 40 -15 3 -8 10 -15 16 -15 18 0 11 22 -15 42 -13
10 -30 37 -36 58 -11 36 -10 43 15 80 26 39 28 40 84 40 37 0 70 -7 92 -19 37
-20 39 -29 29 -130 -4 -38 -10 -35 128 -71 44 -11 64 -40 44 -64 -6 -8 -9 -20
-6 -27 7 -19 -5 -33 -39 -44 -16 -6 -31 -16 -34 -24 -4 -11 4 -13 36 -8 29 3
45 1 53 -9 6 -8 18 -14 25 -14 8 0 14 -4 14 -9 0 -5 -8 -8 -17 -7 -13 1 -18
-7 -19 -25 0 -26 -35 -69 -56 -69 -7 0 -29 -14 -48 -30 l-35 -29 23 -16 c26
-19 21 -35 -13 -35 -13 0 -25 -6 -28 -12 -5 -16 38 -104 66 -136 20 -22 20
-22 1 -37 -10 -8 -26 -15 -33 -15 -12 0 -12 -3 -3 -12 7 -7 12 -21 12 -33 0
-12 5 -26 11 -32 7 -7 9 -28 5 -55 -5 -34 -13 -47 -36 -60 -17 -9 -35 -29 -40
-43 -13 -33 -26 -32 -45 6 -9 16 -19 29 -23 27 -4 -2 -19 -10 -34 -17 -33 -17
-35 -27 -9 -36 11 -3 29 -20 40 -38 17 -27 18 -34 6 -47 -7 -8 -15 -33 -17
-55 -3 -37 -5 -40 -32 -38 -17 1 -34 9 -38 18 -10 16 -38 21 -38 6 0 -5 7 -11
15 -15 20 -7 19 -32 -1 -40 -9 -3 -29 -6 -44 -6 -25 0 -30 5 -35 33 -3 17 -4
39 -2 47 1 8 -2 17 -8 20 -5 3 -11 -10 -13 -27 -4 -37 -15 -40 -67 -19 -36 15
-52 48 -41 83 6 20 73 63 97 63 8 1 24 9 37 20 20 16 21 22 10 40 -7 11 -21
23 -30 26 -21 6 -33 44 -24 78 3 13 35 47 72 76 53 41 70 50 92 46 33 -7 83
26 66 44 -16 16 -84 25 -84 11 0 -20 -28 -11 -34 12 -12 45 -5 69 32 108 31
34 46 42 85 46 57 7 69 24 65 91 -3 40 -6 47 -25 50 -12 2 -25 12 -28 22 -3
10 -21 28 -40 41 -43 29 -50 49 -34 96 10 32 9 38 -6 49 -16 12 -20 9 -36 -27
-10 -22 -18 -50 -16 -62 2 -20 -2 -22 -46 -19 -33 3 -61 -3 -92 -17 -53 -25
-74 -26 -101 -6 -29 22 -53 19 -47 -5 3 -11 -2 -31 -10 -44 -9 -13 -26 -54
-37 -90 -23 -69 -40 -86 -85 -86 -15 0 -36 -11 -49 -25 -15 -16 -34 -25 -53
-25 -29 0 -31 -2 -37 -52 -11 -94 -29 -139 -58 -154 -19 -10 -28 -22 -28 -40
0 -14 -12 -37 -29 -53 -24 -23 -27 -30 -15 -35 8 -3 14 -11 13 -18 -1 -7 1
-26 6 -41 5 -20 3 -33 -9 -46 -9 -10 -16 -27 -16 -38 0 -32 -10 -53 -26 -53
-8 0 -14 5 -14 10 0 6 -4 10 -10 10 -5 0 -10 -8 -10 -18 0 -11 -9 -27 -20 -37
-28 -26 -26 -47 4 -39 14 3 37 -1 56 -11 32 -16 79 -62 80 -77 0 -15 -32 -8
-57 12 -14 11 -32 20 -39 20 -25 0 -15 -31 16 -48 33 -19 34 -38 1 -35 -15 2
-21 -3 -21 -16 0 -10 -8 -27 -18 -39 -9 -11 -22 -28 -27 -38 -16 -25 -69 -6
-73 27 -7 44 -55 63 -129 52 -46 -7 -41 -27 10 -42 23 -7 62 -23 87 -36 43
-23 45 -26 53 -80 9 -66 4 -87 -20 -84 -33 3 -43 -1 -43 -17 0 -12 5 -14 18
-8 9 4 26 7 37 6 52 -3 132 -19 153 -31 13 -7 30 -11 38 -9 12 2 11 10 -7 43
-12 22 -28 52 -36 68 -15 29 -32 34 -50 16 -15 -15 -33 -3 -33 21 0 33 20 64
60 92 33 23 49 27 117 28 143 4 176 -8 209 -73 13 -24 13 -28 -1 -33 -8 -4
-27 -4 -41 -1 -31 6 -40 -12 -24 -44 10 -18 10 -24 -2 -33 -15 -11 -31 -70
-22 -79 3 -3 21 -1 40 5 25 6 49 5 87 -5 94 -27 182 -61 194 -77 23 -30 25 0
4 51 -11 28 -21 64 -21 80 0 32 39 83 81 104 32 17 183 21 222 6 14 -6 27 -7
30 -4 9 8 -4 33 -18 33 -19 0 -38 27 -25 35 18 11 12 55 -8 55 -24 0 -42 19
-42 46 0 17 14 27 75 53 79 33 139 39 168 17 21 -16 22 -45 2 -52 -25 -10 -19
-77 9 -103 15 -15 22 -29 18 -43 -5 -19 -2 -18 46 6 28 14 57 26 65 26 7 0 22
6 32 14 19 14 19 15 1 35 -11 12 -25 21 -33 21 -22 0 -13 46 18 84 5 6 20 25
33 42 42 52 194 92 247 64 13 -7 19 -21 19 -45 0 -18 5 -37 10 -40 6 -3 10
-26 10 -51 0 -24 5 -44 10 -44 6 0 33 11 61 25 44 23 58 25 112 19 81 -9 142
-52 132 -93 -23 -94 -22 -124 5 -176 43 -82 46 -195 5 -195 -8 0 -22 -13 -32
-30 -9 -16 -23 -30 -30 -30 -18 0 -16 -15 3 -31 9 -7 36 -47 60 -88 45 -78 46
-101 2 -101 -10 0 -17 -4 -14 -9 7 -11 116 -45 123 -37 3 3 -8 20 -26 38 -17
17 -31 35 -31 40 0 4 20 30 45 58 66 74 70 84 43 120 -12 16 -25 30 -30 30
-10 0 -48 79 -48 102 0 51 68 141 123 161 118 45 163 39 208 -25 13 -18 29
-38 37 -43 11 -9 11 -18 -1 -53 -12 -34 -12 -45 -3 -55 10 -8 10 -20 3 -44 -6
-18 -14 -33 -19 -33 -15 0 -8 -37 10 -53 27 -25 52 -22 52 7 0 33 24 88 57
126 32 38 33 97 3 140 -10 14 -22 39 -26 54 l-7 28 34 -18 c19 -9 40 -25 47
-35 7 -11 23 -19 35 -19 12 0 37 -17 58 -40 56 -61 124 -53 80 9 -12 16 -21
33 -21 37 0 4 -7 15 -15 24 -19 21 -12 43 19 60 17 8 25 24 29 52 7 53 21 67
45 45 18 -17 30 -13 71 20 3 2 -6 14 -19 28 l-23 24 27 11 c15 5 31 10 36 10
4 0 13 13 18 29 8 22 7 32 -5 44 -14 13 -12 16 10 28 14 8 44 29 66 47 23 19
41 29 41 22 0 -6 5 -8 10 -5 6 4 8 11 5 16 -9 13 9 11 23 -3 20 -20 28 3 24
64 l-4 57 -26 -16 c-15 -9 -36 -25 -47 -34 -110 -98 -104 -96 -138 -46 -12 18
-13 17 -31 -2 -16 -18 -17 -21 -4 -21 23 0 31 -29 13 -46 -8 -9 -15 -22 -15
-29 0 -17 -61 -65 -83 -65 -31 0 -27 20 12 62 38 39 52 68 34 68 -5 0 -20 -14
-34 -31 l-26 -32 -34 17 c-19 10 -45 22 -58 27 -21 9 -23 7 -19 -16 4 -16 1
-24 -6 -22 -11 4 -12 28 -2 62 7 21 -30 66 -92 112 -29 22 -32 22 -67 7 -47
-19 -60 -8 -39 35 12 24 13 36 5 44 -8 8 -11 7 -11 -5 0 -22 -57 -45 -73 -29
-9 10 -8 15 5 25 22 17 11 29 -13 15 -15 -8 -21 -6 -26 8 -8 22 -82 93 -97 93
-23 1 29 30 54 30 22 0 76 28 60 30 -3 1 -39 3 -80 6 -41 3 -80 10 -87 16 -7
6 -20 8 -29 4 -19 -7 -54 10 -54 28 0 7 -13 16 -30 20 -30 6 -38 24 -24 60 10
25 29 19 41 -14 9 -24 17 -30 42 -30 22 0 34 -7 44 -26 12 -23 15 -24 27 -10
11 14 10 20 -5 36 -17 19 -18 22 -2 37 19 19 36 9 41 -23 5 -30 23 -27 30 7 6
30 7 31 48 24 24 -3 77 -6 120 -5 44 1 79 -3 83 -9 3 -6 15 -11 25 -11 12 0
22 -12 30 -35 6 -19 17 -35 24 -35 22 0 26 13 10 31 -14 16 -14 19 10 34 32
21 61 16 60 -12 0 -18 7 -21 64 -26 77 -6 95 -19 53 -37 -36 -14 -37 -17 -14
-42 13 -14 14 -21 5 -30 -7 -7 -12 -18 -12 -26 0 -15 6 -15 106 9 47 12 53 11
97 -15 42 -25 46 -30 40 -57 -5 -26 -3 -29 19 -29 32 0 69 -27 62 -45 -4 -8
-1 -15 5 -15 6 0 11 6 11 14 0 8 27 35 60 60 50 39 63 44 84 36 19 -7 28 -4
47 16 32 34 15 47 -36 29 -22 -8 -53 -14 -68 -15 -17 0 -38 -10 -53 -27 l-25
-27 -33 18 c-39 21 -48 50 -39 125 3 28 3 51 -1 51 -4 0 -20 -9 -35 -21 -35
-25 -125 -33 -143 -12 -6 8 -12 42 -12 76 l-1 62 -36 3 c-30 3 -37 -1 -47 -23
l-12 -26 -22 21 c-19 18 -20 22 -8 30 8 5 22 10 32 10 22 0 13 31 -19 66 -28
30 -25 72 8 105 16 16 17 23 7 44 -8 19 -8 28 2 40 17 20 29 19 57 -7 16 -15
26 -19 34 -11 7 7 3 16 -15 31 -30 23 -36 76 -10 90 12 7 4 12 -33 21 -92 23
-98 26 -101 49 -2 12 1 37 7 55 11 31 23 39 111 75 l25 10 -25 10 c-14 5 -46
11 -70 13 -42 4 -44 3 -50 -26 -4 -17 -19 -43 -34 -59 l-27 -29 -132 1 c-72 0
-154 6 -182 12 -27 6 -62 11 -77 11 -41 0 -52 20 -34 63 12 28 21 36 40 36 15
0 26 5 26 10 0 6 6 10 13 10 7 0 22 7 33 15 16 12 17 16 5 24 -8 5 -20 7 -28
4 -7 -3 -20 1 -29 8 -9 7 -34 15 -57 18 -60 8 -58 36 3 37 25 1 76 6 113 13
38 6 73 8 79 5 6 -4 29 -7 52 -8 22 -1 41 -5 41 -11 1 -24 16 -36 31 -24 32
27 -5 66 -52 55 -14 -4 -35 1 -56 14 -18 11 -41 20 -51 20 -10 0 -32 7 -49 16
-25 13 -36 14 -50 5 -25 -15 -48 -14 -48 3 0 17 16 29 44 32 42 5 82 17 122
35 46 22 76 24 103 7 20 -12 61 -3 45 11 -5 4 -37 16 -72 26 -70 20 -90 42
-71 76 8 15 17 19 32 15 12 -4 42 -9 67 -13 25 -3 68 -19 95 -35 28 -16 61
-34 73 -40 19 -10 23 -17 18 -41 -8 -38 7 -55 53 -63 47 -9 61 -21 61 -54 0
-26 -3 -28 -52 -34 -29 -4 -74 -6 -100 -6 -27 0 -48 -4 -48 -9 0 -16 42 -34
85 -37 22 -1 53 -5 68 -9 19 -5 47 -1 81 10 l53 18 54 -25 c30 -14 74 -28 99
-32 24 -4 50 -12 58 -19 18 -14 48 -32 90 -51 39 -18 41 -32 7 -40 -14 -4 -23
-11 -20 -16 9 -14 51 -12 63 3 13 15 72 21 72 7 0 -5 -5 -10 -11 -10 -6 0 -1
-16 11 -36 16 -25 21 -44 16 -66 -6 -29 6 -58 24 -58 4 0 10 25 12 55 6 67 14
78 53 66 17 -4 53 -5 80 -1 l50 6 -36 8 c-20 4 -60 21 -88 37 l-52 30 6 42 c6
41 5 43 -31 60 -36 18 -37 18 -60 -4 -21 -20 -28 -21 -59 -12 -19 6 -43 9 -53
6 -11 -2 -48 9 -83 26 -35 16 -77 33 -94 37 -16 4 -41 15 -54 26 -13 10 -32
18 -41 18 -10 0 -23 7 -31 16 -11 13 -10 19 1 37 7 12 16 35 20 52 5 28 8 29
50 27 39 -3 46 0 55 20 8 19 16 22 45 20 19 -2 50 -10 68 -18 21 -10 38 -12
48 -6 13 7 8 12 -25 25 -22 9 -47 14 -56 11 -8 -3 -15 -2 -15 4 0 23 -75 55
-125 53 -42 -2 -59 4 -95 28 -25 17 -50 31 -56 31 -6 0 -25 14 -42 30 -18 17
-37 30 -43 30 -15 0 -73 49 -80 69 -9 24 9 68 37 86 22 14 27 14 46 0 13 -8
30 -15 40 -15 9 0 21 -6 25 -14 4 -8 46 -44 93 -80 110 -86 130 -105 130 -122
0 -10 12 -14 40 -14 22 0 40 5 40 10 0 6 11 10 25 10 14 0 32 9 41 19 16 18
18 18 63 -3 50 -23 201 -141 201 -157 0 -5 14 -9 30 -9 19 0 30 5 30 14 0 27
-12 46 -29 46 -9 0 -33 16 -53 34 -20 19 -51 42 -68 51 -35 18 -50 50 -49 103
0 38 17 92 18 61 1 -20 33 -49 54 -49 9 0 32 9 51 21 l35 21 44 -37 c27 -22
54 -58 68 -89 13 -28 29 -55 36 -59 18 -11 16 -34 -2 -41 -19 -7 -20 -36 -2
-36 8 0 17 3 21 7 3 4 21 7 39 7 44 1 48 33 9 78 -44 50 -73 114 -79 174 -5
44 -9 53 -27 56 -17 2 -22 12 -28 58 -3 30 -5 57 -3 59 2 2 16 -6 31 -18 15
-11 38 -21 51 -21 38 0 113 -48 113 -73 0 -11 6 -28 14 -36 30 -35 50 -151 26
-151 -5 0 -10 -5 -10 -10 0 -11 49 -3 64 11 5 4 3 41 -4 86 -7 43 -15 102 -18
131 -4 49 -2 52 19 52 12 0 33 -9 45 -21 12 -11 37 -28 55 -37 25 -13 35 -26
41 -52 9 -43 1 -97 -19 -128 -19 -31 -11 -37 28 -23 18 6 37 11 44 11 13 0 65
-75 65 -95 0 -7 7 -15 14 -18 19 -8 49 -64 37 -71 -5 -4 -7 -15 -4 -25 6 -23
-33 -39 -50 -22 -6 6 -18 11 -27 11 -8 1 -26 24 -40 53 -14 29 -31 57 -37 62
-7 6 -14 20 -16 33 -5 32 -18 41 -44 31 -42 -16 -30 -56 47 -155 26 -33 51
-70 54 -82 4 -12 21 -35 38 -52 25 -26 28 -33 17 -46 -16 -20 -65 -12 -130 21
l-47 23 -11 -24 c-6 -13 -16 -24 -23 -25 -37 -3 -84 4 -102 16 -12 7 -32 16
-46 20 -14 5 -30 15 -37 24 -6 9 -15 13 -19 8 -11 -11 34 -54 64 -62 15 -4 34
-12 42 -19 8 -8 26 -16 40 -19 14 -4 40 -16 58 -27 26 -16 32 -26 32 -56 0
-27 7 -41 25 -56 23 -18 25 -25 19 -67 -9 -61 -11 -63 -43 -46 -32 16 -41 12
-41 -20 0 -38 -29 -52 -123 -59 -97 -7 -129 -18 -121 -41 4 -10 0 -15 -15 -15
-12 0 -21 -6 -21 -14 0 -10 10 -13 38 -10 148 14 153 14 150 -8 -5 -33 -32
-45 -63 -28 -30 16 -37 9 -63 -59 -14 -40 -4 -53 38 -49 18 2 26 10 28 27 3
21 7 23 44 17 35 -6 44 -3 75 25 30 26 41 30 69 24 21 -3 34 -2 34 5 0 5 -4
10 -10 10 -5 0 -10 4 -10 8 0 5 20 9 43 9 25 0 54 7 68 16 29 21 82 22 99 2
14 -17 5 -51 -15 -59 -14 -5 -22 -36 -10 -36 13 0 63 30 76 46 19 23 74 45 93
38 9 -3 16 -15 16 -25 0 -26 10 -24 48 11 18 17 41 30 49 30 21 0 134 39 150
52 7 6 29 16 50 22 69 23 142 59 148 74 11 29 -7 31 -41 4 -19 -15 -46 -28
-61 -28 -16 -1 -48 -7 -73 -14 -25 -6 -57 -9 -72 -6 -16 3 -31 0 -38 -9 -15
-18 -53 -19 -78 -4 -14 9 -26 8 -50 -5 -18 -9 -32 -21 -32 -26 0 -24 -53 -8
-86 26 -39 38 -39 64 -2 64 13 0 34 3 47 7 20 5 23 3 18 -10 -4 -10 -2 -17 4
-17 6 0 9 9 6 19 -6 26 10 31 91 31 75 0 98 10 88 35 -5 15 -14 17 -59 10 -28
-4 -97 -6 -152 -5 -109 2 -132 12 -135 60 -4 47 -1 50 44 50 25 0 48 6 55 14
11 14 73 26 136 27 17 1 50 7 74 15 24 8 52 12 63 8 10 -3 24 -1 31 4 33 26
137 16 137 -13 0 -7 7 -18 15 -25 18 -15 20 -91 3 -108 -19 -19 0 -27 34 -14
25 9 34 9 40 -1 5 -8 10 -9 16 -2 8 12 73 33 112 37 18 2 26 10 28 27 3 18 0
22 -12 18 -9 -4 -35 1 -58 9 -24 9 -52 17 -63 17 -16 2 -19 8 -17 34 3 31 3
32 -45 35 -57 4 -66 22 -34 67 40 56 21 56 -42 0 -34 -29 -52 -39 -67 -34 -11
4 -29 0 -42 -9 -33 -23 -46 -20 -53 14 l-7 30 -41 -21 c-23 -12 -49 -28 -58
-35 -14 -13 -18 -12 -28 0 -7 8 -10 24 -6 35 3 10 2 22 -3 25 -10 6 4 60 38
151 10 28 21 66 24 86 4 23 20 49 43 73 41 40 62 46 70 16 3 -11 9 -20 14 -20
12 0 22 25 48 115 31 105 40 115 113 115 63 0 87 14 88 51 0 9 9 24 21 35 25
23 49 67 49 90 0 10 7 26 17 36 15 17 14 18 -46 18 -57 0 -62 -2 -56 -19 4
-14 0 -20 -18 -25 -13 -3 -32 -22 -43 -43 -18 -32 -25 -38 -52 -37 -28 2 -30
0 -22 -16 6 -12 6 -21 1 -25 -13 -7 -21 8 -20 36 0 13 -2 33 -6 45 -5 17 -1
23 23 33 17 7 32 21 35 32 5 18 -3 19 -210 19 -209 0 -216 -1 -200 -18 22 -24
21 -29 -4 -43 -17 -9 -23 -7 -36 10 -8 12 -21 21 -29 21 -8 0 -14 6 -14 14 0
12 -29 15 -159 15 l-159 2 2 -54 c1 -39 -4 -58 -16 -71 -17 -16 -22 -30 -19
-48 0 -5 -5 -8 -13 -8 -8 0 -21 -3 -29 -6 -20 -7 -32 29 -28 89 2 29 -1 47 -8
47 -6 0 -11 11 -11 25 0 24 -3 25 -61 25 -56 0 -61 -2 -56 -20 3 -11 1 -23 -4
-26 -16 -9 -10 -31 15 -55 28 -27 25 -39 -7 -39 -36 0 -91 33 -147 88 l-53 52
-258 0 c-149 0 -260 -4 -264 -9z m503 -32 c24 -17 45 -42 49 -57 7 -32 44 -92
67 -111 18 -15 21 -63 5 -92 -8 -16 -16 -19 -47 -13 -47 8 -72 21 -72 37 0 7
-28 41 -63 77 -66 68 -100 120 -89 136 16 22 66 54 86 54 12 0 41 -14 64 -31z
m622 -19 c-35 -22 -65 5 -39 36 11 13 15 13 33 -6 18 -18 19 -22 6 -30z m455
20 c0 -14 3 -29 6 -35 13 -20 14 -70 1 -67 -6 1 -12 -5 -12 -13 0 -8 6 -15 13
-15 7 0 6 -4 -4 -10 -9 -5 -32 -7 -52 -3 -32 5 -38 11 -48 42 -9 30 -8 44 5
74 23 57 91 76 91 27z m-458 -62 c4 -7 13 -28 19 -46 11 -30 10 -34 -9 -41
-12 -4 -29 -6 -39 -3 -19 5 -43 65 -34 87 7 18 52 20 63 3z m-908 -27 c8 -13
18 -17 37 -13 19 3 30 0 36 -12 7 -13 17 -16 34 -12 21 6 27 1 47 -46 13 -29
31 -59 40 -67 26 -21 21 -34 -10 -26 -81 19 -173 87 -173 127 0 16 -5 19 -29
13 -34 -7 -46 6 -31 35 13 25 36 26 49 1z m1149 -8 c-2 -10 -10 -18 -18 -18
-8 0 -16 8 -18 18 -2 12 3 17 18 17 15 0 20 -5 18 -17z m-1308 -88 c10 -13 11
-18 1 -28 -10 -9 -15 -8 -26 7 -23 31 1 50 25 21z m1513 -17 c24 -18 36 -118
14 -118 -8 0 -17 -7 -21 -15 -3 -8 -16 -15 -29 -15 -19 0 -27 -9 -40 -41 -15
-37 -19 -40 -49 -37 -27 2 -34 8 -36 29 -3 25 27 60 59 71 7 2 6 13 -2 30 -11
25 -9 30 27 67 43 44 52 47 77 29z m-1272 -99 c23 -23 18 -39 -6 -19 -21 18
-29 6 -14 -19 22 -34 0 -37 -33 -4 -19 20 -29 37 -25 47 9 23 53 20 78 -5z
m-459 -120 c8 -22 15 -28 27 -23 48 21 66 16 89 -25 12 -23 27 -41 32 -41 6 0
10 -6 10 -14 0 -24 -61 -14 -100 16 -19 15 -56 32 -82 38 -49 13 -70 36 -40
47 9 4 21 12 25 20 13 21 27 15 39 -18z m1488 -244 c10 -12 10 -19 2 -27 -13
-13 -42 6 -42 28 0 19 24 18 40 -1z m-2279 -132 c54 -19 62 -35 47 -91 -13
-46 -54 -118 -72 -125 -8 -3 -17 -43 -25 -107 -16 -128 -22 -145 -61 -158 -28
-10 -31 -9 -26 6 18 62 18 69 -10 91 -32 25 -62 27 -90 3 -30 -24 -37 -63 -18
-91 15 -21 15 -24 -7 -47 -26 -28 -25 -30 33 -52 24 -9 57 -27 72 -39 24 -19
28 -28 24 -60 -3 -21 -1 -48 3 -61 5 -14 4 -41 -3 -68 -12 -43 -11 -46 10 -63
23 -17 26 -30 31 -173 1 -19 9 -31 29 -40 43 -21 35 -42 -18 -46 -66 -5 -77
-19 -44 -54 15 -15 33 -28 40 -28 17 0 27 -17 18 -32 -16 -25 -15 -78 1 -84
17 -7 18 -13 5 -34 -7 -11 -22 0 -70 53 -34 37 -68 67 -76 67 -8 0 -14 5 -14
11 0 6 -6 9 -13 6 -8 -3 -20 -1 -28 4 -12 7 -9 19 17 66 25 47 36 58 65 65 60
15 63 17 49 32 -6 8 -25 18 -42 21 -16 4 -39 16 -49 26 -18 18 -18 20 -1 56 9
21 23 43 31 49 8 6 11 16 6 23 -5 9 -10 10 -18 2 -17 -17 -43 -13 -83 14 -20
14 -47 25 -59 25 -41 0 -92 28 -99 54 -10 41 9 111 49 170 20 31 34 60 31 64
-4 3 -23 5 -42 3 -27 -2 -34 1 -34 16 0 10 -13 30 -30 45 -23 20 -30 35 -30
61 0 63 109 134 147 96 8 -8 19 -6 42 5 26 14 31 22 31 52 0 42 35 81 80 90
40 9 47 19 52 86 6 75 24 96 92 107 4 0 30 -7 57 -16z m-416 -100 c19 -9 35
-21 35 -25 0 -5 -16 -18 -35 -29 -40 -24 -41 -26 -19 -50 9 -10 17 -36 18 -56
l1 -38 -39 3 c-21 2 -49 -1 -61 -8 -18 -10 -28 -8 -61 15 -21 15 -38 33 -36
41 2 8 -5 14 -18 14 -26 0 -26 27 1 90 20 46 24 49 63 53 90 8 117 6 151 -10z
m765 -124 c0 -5 -4 -9 -10 -9 -5 0 -10 7 -10 16 0 8 5 12 10 9 6 -3 10 -10 10
-16z m156 -50 c3 -6 18 -9 33 -6 15 3 34 -1 45 -9 11 -8 40 -14 64 -14 29 0
53 -7 69 -20 14 -11 34 -20 43 -20 25 0 42 -25 38 -57 l-3 -28 -80 2 c-140 2
-248 14 -272 30 -12 8 -31 12 -40 9 -17 -7 -143 23 -143 34 0 12 81 50 107 50
16 0 37 6 48 14 35 24 80 31 91 15z m1611 -64 c3 -9 3 -18 1 -21 -9 -9 -38 8
-38 22 0 19 29 18 37 -1z m-77 -18 c0 -23 -17 -47 -32 -47 -4 0 -8 7 -8 15 0
22 -17 18 -30 -5 -7 -14 -17 -19 -29 -15 -10 3 -24 -1 -31 -10 -16 -19 -30
-19 -30 0 0 7 -7 18 -15 22 -9 5 -11 13 -5 22 6 10 25 14 63 13 40 -1 57 3 61
13 3 8 17 15 31 15 19 0 25 -5 25 -23z m-1120 -22 c15 -19 5 -35 -24 -35 -27
0 -46 18 -39 36 7 18 47 18 63 -1z m-745 -46 c0 -7 -8 -15 -17 -17 -18 -3 -25
18 -11 32 10 10 28 1 28 -15z m289 -14 c28 6 37 4 42 -9 3 -9 14 -16 23 -16
10 0 26 -6 36 -14 16 -12 22 -12 41 0 33 22 123 -1 136 -35 13 -35 -14 -55
-61 -46 -89 17 -241 14 -241 -4 0 -16 85 -31 120 -21 56 16 97 12 119 -12 16
-17 23 -19 35 -9 18 15 56 -5 56 -29 -1 -51 -66 -73 -175 -60 -44 5 -93 9
-110 9 -123 -1 -194 2 -221 10 -25 7 -38 5 -63 -12 -18 -11 -37 -31 -42 -43
-13 -35 -33 -29 -54 14 -10 20 -22 45 -26 54 -14 27 -11 95 4 95 6 0 37 3 69
7 36 5 58 3 63 -3 7 -12 55 -15 55 -4 0 3 -7 14 -16 24 -24 27 -10 77 24 85
15 3 50 11 77 18 31 8 54 10 62 4 6 -5 28 -6 47 -3z m354 -32 c-2 -10 -10 -18
-18 -18 -8 0 -16 8 -18 18 -2 12 3 17 18 17 15 0 20 -5 18 -17z m-1752 -15
c39 -31 64 -56 64 -66 0 -12 -72 -34 -107 -34 -21 0 -33 -4 -33 -13 0 -35
-143 -66 -172 -37 -30 30 60 152 113 152 15 0 31 5 34 10 11 18 71 11 101 -12z
m1744 -38 c0 -5 -11 -10 -25 -10 -14 0 -25 5 -25 10 0 6 11 10 25 10 14 0 25
-4 25 -10z m-1410 -98 c0 -10 -6 -27 -14 -38 -13 -17 -15 -17 -21 -2 -7 18 10
58 25 58 6 0 10 -8 10 -18z m-503 -93 c50 -31 41 -54 -22 -54 -62 0 -109 -19
-123 -50 -7 -15 -19 -23 -34 -22 -13 0 -31 -3 -40 -7 -26 -12 -23 39 5 88 36
65 145 87 214 45z m768 -194 c20 -39 25 -63 21 -82 -4 -16 -10 -44 -14 -63 -5
-26 -13 -36 -30 -38 -23 -4 -29 -16 -12 -27 14 -9 12 -52 -2 -58 -10 -3 -10
-9 1 -28 9 -16 10 -24 3 -27 -6 -2 -23 -13 -37 -24 -20 -15 -43 -21 -86 -23
-32 0 -64 -6 -71 -13 -16 -16 -43 -15 -60 1 -7 8 -20 16 -27 18 -15 5 -16 11
-27 85 -5 35 -2 43 18 57 12 8 36 27 52 41 27 24 28 27 14 43 -22 24 -48 90
-48 119 0 18 6 24 20 24 12 0 35 7 51 16 37 19 98 31 161 33 l47 1 26 -55z
m1335 34 c0 -5 -7 -9 -15 -9 -8 0 -15 7 -15 15 0 9 6 12 15 9 8 -4 15 -10 15
-15z m-2130 -47 c0 -4 -12 -15 -25 -25 -22 -15 -25 -16 -25 -2 0 8 -4 15 -10
15 -5 0 -10 4 -10 8 0 4 16 8 35 9 19 1 35 -2 35 -5z m-79 -23 c22 -11 52 -77
45 -96 -3 -7 -12 -10 -21 -7 -11 5 -14 2 -9 -10 5 -13 -1 -16 -26 -16 -17 0
-40 5 -51 11 -37 19 -80 14 -100 -12 -10 -13 -21 -20 -25 -16 -4 4 1 16 11 27
25 27 9 45 -28 31 -34 -13 -45 3 -20 31 22 25 81 64 109 71 25 7 91 -1 115
-14z m39 -153 c0 -3 -4 -8 -10 -11 -5 -3 -10 -1 -10 4 0 6 5 11 10 11 6 0 10
-2 10 -4z m-132 -95 c64 -22 75 -31 70 -62 -2 -16 -11 -25 -25 -27 -15 -2 -25
-13 -29 -28 -7 -28 -30 -32 -37 -5 -4 15 -55 36 -65 26 -9 -8 20 -44 40 -51
12 -3 29 -15 38 -26 13 -16 21 -18 55 -10 76 17 206 -10 248 -52 18 -17 19
-23 7 -75 -17 -79 -21 -85 -79 -97 l-51 -12 -42 40 c-33 31 -46 38 -66 33 -17
-4 -30 0 -44 14 -21 23 -49 27 -79 11 -25 -14 -36 11 -21 45 13 28 -3 51 -44
61 -23 6 -30 20 -36 74 -2 19 -10 26 -30 28 -52 6 -25 56 55 102 61 35 65 35
135 11z m1536 -51 c27 -10 66 -75 66 -112 0 -56 10 -68 55 -68 78 0 105 -10
136 -53 20 -27 27 -47 23 -62 -3 -13 -1 -26 5 -29 16 -10 13 -26 -4 -26 -8 0
-15 9 -15 20 0 27 -49 27 -80 0 -18 -16 -36 -20 -75 -19 -27 1 -58 -2 -67 -6
-14 -5 -18 -2 -18 13 0 12 -4 24 -10 27 -5 3 -10 14 -10 24 0 10 -7 24 -15 31
-8 7 -15 20 -15 29 0 9 -10 21 -22 26 -13 6 -32 25 -43 42 -16 26 -26 32 -50
30 -26 -2 -30 2 -33 26 -4 32 31 90 63 106 26 13 77 13 109 1z m786 -144 c0
-17 -19 -24 -45 -17 -35 10 -28 31 10 31 23 0 35 -5 35 -14z m-1902 -13 c-4
-21 -36 -29 -51 -14 -9 9 -8 14 3 21 25 16 52 12 48 -7z"/>
<path d="M1973 4605 c-3 -9 -3 -19 1 -22 8 -9 56 14 56 27 0 16 -50 12 -57 -5z"/>
<path d="M1835 4114 c39 -30 52 -34 71 -19 17 13 17 16 4 25 -8 5 -33 10 -55
10 -38 -1 -39 -1 -20 -16z"/>
<path d="M1084 3841 c-13 -13 -2 -33 16 -28 11 3 23 -1 28 -9 6 -11 16 -11 57
5 27 10 51 23 52 28 3 8 -144 12 -153 4z"/>
<path d="M1212 3768 c-17 -17 5 -43 24 -27 8 6 14 18 14 25 0 17 -22 18 -38 2z"/>
<path d="M5417 6133 c-4 -3 -7 -16 -7 -28 0 -35 -95 -154 -144 -181 -11 -6
-22 -16 -24 -22 -5 -17 24 -15 51 3 29 19 62 10 83 -23 16 -24 16 -26 -3 -41
-27 -22 -57 -70 -49 -78 12 -12 101 23 100 39 -2 21 40 32 66 18 23 -12 72 6
68 26 -2 6 18 32 45 57 26 25 47 52 47 61 0 21 31 36 79 36 47 0 55 -9 41 -45
-9 -24 -14 -26 -52 -23 -40 3 -43 1 -48 -27 -5 -25 -10 -30 -35 -30 -25 0 -32
-5 -41 -35 -10 -30 -9 -39 8 -62 20 -28 17 -48 -6 -48 -8 0 -20 -7 -27 -16
-12 -15 -9 -16 29 -10 24 3 48 8 53 12 17 10 76 -16 113 -51 43 -40 44 -45 12
-45 -17 0 -29 -9 -38 -26 -17 -34 -95 -64 -166 -64 -38 0 -54 -4 -59 -15 -3
-9 -28 -27 -55 -41 -64 -33 -52 -50 20 -29 46 14 55 14 88 0 43 -18 70 -12 79
15 8 24 87 69 145 81 117 26 141 27 161 5 11 -11 19 -29 19 -40 1 -13 16 -32
40 -48 22 -15 40 -35 40 -43 0 -23 37 -18 54 7 14 20 14 23 -14 40 -35 21 -38
43 -8 67 12 10 18 23 14 29 -9 15 -46 16 -46 1 0 -18 -45 -5 -48 15 -3 15 0
18 18 13 18 -5 21 -2 17 14 -7 27 59 96 99 104 16 3 48 11 71 19 34 11 46 11
60 1 15 -11 14 -16 -13 -53 -16 -23 -34 -42 -40 -42 -6 0 -19 -9 -29 -20 -18
-19 -17 -20 2 -20 11 0 26 7 33 15 7 8 21 15 32 15 11 0 48 16 82 35 63 35 96
44 96 25 0 -5 16 -27 35 -49 33 -36 44 -69 28 -84 -3 -4 -14 0 -23 8 -15 13
-25 14 -64 4 -25 -6 -49 -15 -52 -20 -3 -5 -15 -9 -28 -9 -12 0 -26 -4 -31 -9
-6 -5 -38 -19 -73 -31 -66 -24 -76 -43 -25 -48 23 -2 35 3 47 20 14 19 19 21
35 11 15 -10 26 -8 57 8 43 22 85 25 81 7 -1 -10 32 -13 140 -13 78 0 145 3
148 7 8 8 -70 224 -113 316 -16 34 -34 57 -49 63 -33 12 -35 12 -21 -11 9 -14
9 -23 2 -30 -15 -15 -35 -4 -69 39 -21 26 -36 36 -49 33 -10 -3 -21 1 -26 7
-4 7 -26 15 -49 18 -22 3 -41 10 -41 14 0 5 -7 9 -16 9 -11 0 -15 6 -11 20 4
15 0 20 -14 20 -10 0 -19 4 -19 8 0 9 -84 52 -101 52 -6 0 -23 8 -37 19 -15
10 -43 24 -63 30 -20 6 -45 21 -54 31 -17 19 -33 20 -285 20 -147 0 -270 -3
-273 -7z m150 -41 c14 -9 7 -78 -8 -88 -5 -3 -9 -16 -9 -28 0 -47 -46 -57
-122 -27 l-26 10 18 36 c37 73 69 105 103 105 18 0 37 -4 44 -8z m613 -92 c0
-5 -7 -10 -15 -10 -8 0 -15 5 -15 10 0 6 7 10 15 10 8 0 15 -4 15 -10z m75
-100 c3 -5 -1 -10 -10 -10 -9 0 -13 5 -10 10 3 6 8 10 10 10 2 0 7 -4 10 -10z
m-115 -23 c14 -7 26 -22 28 -33 4 -28 -111 -146 -168 -171 -25 -12 -54 -27
-64 -36 -18 -13 -25 -13 -63 1 -24 9 -43 20 -43 24 0 17 40 68 114 146 76 80
80 82 125 82 25 0 57 -6 71 -13z m-290 -16 c16 -31 12 -39 -25 -51 -19 -6 -35
-16 -35 -21 0 -5 -15 -8 -32 -8 -18 1 -43 -2 -56 -6 l-22 -7 17 31 c11 19 37
41 68 56 61 30 71 30 85 6z m575 -31 c3 -5 -1 -10 -9 -10 -8 0 -18 5 -21 10
-3 6 1 10 9 10 8 0 18 -4 21 -10z"/>
<path d="M7898 6129 c-6 -17 -89 -22 -144 -9 -51 12 -104 8 -104 -8 0 -5 28
-19 63 -33 46 -18 63 -29 65 -45 3 -18 -3 -23 -35 -28 -53 -8 -53 -8 -95 -1
l-36 7 1 -48 2 -49 -50 0 -50 0 3 -37 c2 -31 -1 -38 -15 -38 -10 0 -25 -4 -32
-9 -13 -8 -12 -15 4 -46 l20 -35 -30 -25 c-23 -19 -38 -24 -62 -21 -37 5 -39
0 -18 -50 11 -27 11 -36 2 -39 -34 -10 -122 -27 -143 -27 -13 0 -30 -8 -39
-18 -15 -16 -12 -18 45 -22 73 -5 108 -30 76 -53 -28 -21 -11 -36 26 -23 25 9
32 8 40 -6 5 -9 18 -16 29 -16 11 0 30 -6 42 -14 35 -22 80 -28 100 -14 10 7
24 31 32 53 12 36 12 41 -5 55 -9 8 -23 26 -30 39 -11 21 -10 26 6 38 10 7 12
13 6 13 -17 0 -15 27 6 57 11 17 17 48 18 86 2 73 19 93 93 107 62 12 77 21
85 55 4 16 16 27 34 31 41 10 117 51 168 89 25 19 56 35 68 35 27 0 46 18 46
42 0 16 -10 18 -94 18 -58 0 -96 -4 -98 -11z"/>
<path d="M8304 6108 c1 -27 -3 -32 -31 -40 -19 -5 -33 -15 -33 -24 0 -8 -13
-23 -29 -32 -30 -17 -47 -50 -33 -64 4 -4 32 -1 62 7 30 8 68 15 84 15 25 0
27 3 22 24 -4 17 2 34 24 61 48 60 36 84 -41 85 -24 0 -27 -4 -25 -32z"/>
<path d="M8490 6135 c0 -3 20 -18 45 -34 24 -15 42 -31 39 -34 -6 -5 60 -77
70 -77 3 0 17 -12 31 -26 34 -34 30 -72 -10 -94 -29 -16 -30 -19 -27 -72 3
-50 1 -57 -24 -77 -34 -27 -110 -61 -136 -61 -11 0 -28 5 -39 11 -16 8 -25 7
-38 -5 -29 -26 -38 -19 -38 30 0 44 2 47 53 79 55 35 72 65 59 104 -5 17 -15
21 -46 21 -47 0 -74 -13 -110 -51 -14 -15 -38 -31 -52 -35 -29 -7 -35 -21 -14
-30 8 -3 23 -18 35 -33 18 -25 19 -32 8 -65 -17 -48 -22 -52 -84 -65 -92 -19
-120 -15 -159 24 -27 27 -34 41 -29 58 3 12 6 30 6 40 0 9 6 17 14 17 8 0 23
11 33 24 11 13 28 25 39 28 15 3 18 10 16 38 -2 20 1 48 7 63 10 26 9 27 -19
27 -24 0 -35 -8 -56 -41 -24 -38 -28 -41 -60 -36 -27 5 -40 1 -59 -17 -28 -26
-33 -64 -10 -72 22 -9 18 -23 -9 -35 -22 -11 -32 -33 -39 -93 -2 -18 10 -29
47 -41 18 -5 18 -6 -3 -28 -26 -29 -27 -37 0 -37 29 0 59 -18 59 -35 0 -21
-39 -58 -54 -52 -31 12 -183 -21 -248 -53 -70 -35 -81 -47 -50 -56 9 -3 29
-12 43 -20 40 -21 158 -46 182 -38 12 3 54 22 93 40 86 41 124 45 117 12 -2
-13 -14 -42 -25 -65 -20 -42 -21 -44 -3 -63 20 -22 50 -25 90 -10 22 8 25 7
23 -7 -4 -20 65 -63 100 -63 13 0 36 8 50 18 40 28 89 42 148 42 67 0 81 -6
99 -41 19 -36 12 -52 -30 -72 -21 -10 -33 -22 -30 -30 5 -12 131 -67 154 -67
5 0 51 -20 102 -45 92 -45 159 -58 159 -32 0 7 6 21 13 31 11 15 17 17 35 7
12 -6 22 -21 22 -31 0 -11 5 -20 10 -20 6 0 10 -7 10 -15 0 -12 9 -15 38 -13
32 3 37 0 34 -18 -3 -24 15 -42 84 -79 l52 -27 53 35 c30 19 63 44 74 56 23
27 120 81 188 106 27 10 56 29 64 42 14 21 14 25 -1 42 -19 21 -22 55 -3 48 6
-2 11 -12 9 -22 -2 -12 0 -15 10 -9 7 5 43 9 79 9 48 0 72 5 85 17 11 9 35 18
54 20 27 2 36 8 38 24 4 25 40 34 135 34 40 0 71 7 100 22 23 12 71 27 107 34
36 6 103 19 150 27 60 11 102 26 142 50 32 19 79 40 105 47 73 19 75 19 71 32
-2 6 -17 16 -34 21 -41 14 -54 26 -54 52 0 13 -6 25 -12 28 -7 2 -1 8 15 12
18 5 39 2 62 -10 38 -18 76 -17 82 2 2 6 -12 17 -32 23 -31 10 -36 15 -30 34
16 48 17 77 4 93 -17 20 -19 83 -3 83 6 0 17 7 24 15 17 21 -15 33 -42 16 -11
-7 -17 -8 -14 -2 4 6 4 33 0 60 -6 46 -10 51 -39 61 -41 14 -67 42 -59 64 10
26 -15 46 -57 46 -28 0 -47 8 -71 29 -30 27 -32 30 -21 65 14 46 1 55 -39 26
-51 -38 -95 -37 -156 4 -43 29 -57 34 -77 26 -20 -7 -30 -4 -54 15 l-29 25
-323 0 -324 0 28 -25 c15 -14 27 -34 27 -43 0 -26 34 -71 68 -92 48 -30 66
-63 55 -107 -14 -61 -72 -67 -135 -14 -10 8 -18 22 -18 32 0 10 -8 20 -18 23
-10 3 -22 20 -27 38 -7 20 -21 37 -42 47 -17 9 -34 25 -37 36 -3 10 -8 17 -11
14 -3 -3 2 -28 10 -55 8 -27 15 -60 15 -74 0 -14 13 -53 29 -87 16 -34 31 -72
33 -85 2 -13 11 -29 21 -36 9 -7 17 -22 17 -33 0 -26 24 -20 28 7 9 49 114
119 195 130 41 6 42 5 70 -41 27 -46 28 -65 3 -65 -8 0 -20 -7 -27 -16 -8 -9
-31 -28 -52 -41 -36 -22 -38 -27 -32 -56 3 -18 7 -48 8 -67 2 -33 0 -35 -32
-36 -25 0 -39 -7 -50 -25 -22 -34 -42 -48 -68 -49 -20 0 -23 -5 -23 -42 1 -28
9 -57 25 -83 52 -85 21 -138 -97 -164 -25 -6 -68 -8 -96 -4 -46 5 -58 12 -117
69 -37 35 -72 64 -78 64 -8 0 -8 3 1 12 8 8 18 9 35 1 18 -8 27 -7 43 6 30 24
44 54 33 72 -5 7 -9 24 -9 37 0 12 -7 25 -15 28 -8 4 -15 12 -15 20 0 23 -16
16 -44 -20 -15 -20 -42 -40 -63 -47 -21 -6 -47 -18 -58 -25 -11 -8 -45 -14
-78 -14 -60 0 -61 0 -120 70 -8 10 -23 22 -32 28 -32 17 -11 42 36 42 33 0 40
3 35 15 -4 10 3 20 19 27 14 6 25 15 25 21 0 5 21 6 50 2 42 -6 51 -4 57 10 4
11 0 21 -10 26 -14 8 -13 12 6 33 12 14 32 38 45 55 13 18 40 35 62 42 38 11
50 29 50 72 0 10 11 28 23 40 13 12 32 34 42 50 17 27 17 27 -6 27 -27 0 -79
49 -79 75 0 9 7 30 16 46 17 34 13 43 -19 46 -12 2 -41 6 -64 9 -49 7 -52 1
-27 -52 18 -38 15 -46 -19 -51 -25 -4 -47 -29 -47 -55 0 -10 17 -27 39 -40 39
-22 56 -55 41 -78 -4 -7 -36 -26 -71 -44 -50 -24 -65 -37 -67 -56 -2 -14 -9
-31 -14 -37 -7 -9 -7 -17 0 -26 8 -10 6 -21 -8 -44 -17 -29 -23 -31 -102 -39
-96 -8 -145 -6 -172 8 -15 8 -23 6 -37 -13 -14 -19 -21 -21 -41 -13 -30 13
-61 6 -54 -12 4 -9 -7 -19 -32 -30 -72 -31 -147 -54 -179 -54 -17 0 -43 -4
-57 -10 -22 -8 -31 -5 -58 19 -31 28 -32 29 -20 70 7 22 20 45 30 49 33 17
159 35 193 28 58 -13 149 -18 185 -11 28 5 36 12 41 35 9 48 36 63 149 82 58
9 113 14 122 11 9 -3 -2 12 -26 34 -48 46 -48 58 5 111 37 36 41 50 17 59 -8
3 -20 17 -25 30 -8 21 -13 24 -41 18 -32 -7 -32 -7 -17 16 9 13 24 28 35 33
10 5 29 22 42 37 l23 28 -30 16 c-40 20 -54 19 -76 -5 -22 -24 -35 -26 -35 -5
0 8 3 15 8 15 4 0 21 11 37 25 l30 24 -137 1 c-76 0 -138 -2 -138 -5z m1176
-40 c9 -14 32 -32 49 -40 44 -18 52 -46 22 -79 -22 -24 -26 -25 -87 -16 -79
11 -100 28 -76 61 9 13 16 32 16 42 0 56 48 75 76 32z m321 -68 c-30 -24 -29
-35 8 -121 13 -32 14 -44 5 -62 -11 -19 -9 -27 14 -57 15 -19 33 -38 41 -40 7
-3 16 -20 20 -38 8 -37 -11 -59 -52 -59 -29 0 -29 -18 -3 -71 21 -40 20 -59
-4 -59 -9 0 -12 -9 -9 -24 7 -32 -9 -39 -58 -26 -35 10 -44 9 -61 -7 -18 -16
-20 -16 -29 -1 -5 8 -21 19 -36 23 -87 21 -95 64 -23 127 l51 43 -17 33 c-16
32 -15 34 11 72 23 33 25 42 15 55 -7 8 -22 15 -34 15 -19 0 -61 19 -43 20 4
0 3 8 -2 18 -13 25 52 83 178 159 47 28 63 29 28 0z m-254 -144 c10 -10 -13
-33 -34 -33 -21 0 -33 15 -24 30 7 11 48 14 58 3z m841 -109 c4 -10 1 -14 -6
-12 -15 5 -23 28 -10 28 5 0 13 -7 16 -16z m-884 -274 c0 -5 -7 -10 -15 -10
-8 0 -15 5 -15 10 0 6 7 10 15 10 8 0 15 -4 15 -10z m-1198 -21 c2 -6 28 -12
58 -14 69 -5 105 -20 119 -51 15 -34 14 -44 -5 -44 -8 0 -32 -18 -52 -41 -38
-42 -79 -69 -107 -69 -26 0 -145 60 -152 75 -11 31 8 61 57 90 27 17 52 38 56
48 6 19 20 23 26 6z m1221 -19 c14 -11 28 -20 31 -20 17 0 104 -73 114 -95 17
-38 15 -54 -13 -91 -33 -43 -107 -68 -186 -62 -50 4 -62 8 -81 33 -29 36 -68
104 -68 117 0 24 43 66 94 91 30 15 58 32 61 37 9 15 19 12 48 -10z m-1798
-60 c0 -9 -16 -17 -45 -22 -68 -12 -80 -5 -35 20 44 24 80 25 80 2z m1063
-116 c46 -15 54 -22 76 -69 15 -29 26 -56 26 -62 0 -28 -93 -85 -160 -98 -81
-15 -220 49 -220 101 0 42 37 104 63 104 12 0 32 6 43 14 18 13 42 18 105 24
9 1 39 -5 67 -14z m599 -160 c6 -19 -47 -74 -72 -74 -30 0 -55 10 -55 21 0 14
92 70 109 67 8 -2 16 -8 18 -14z"/>
<path d="M8853 6120 c18 -15 34 -19 52 -14 15 4 31 1 40 -6 18 -15 20 -13 29
18 7 21 6 22 -70 22 l-77 0 26 -20z"/>
<path d="M9196 6124 c-12 -31 -6 -63 13 -74 30 -15 51 -12 51 8 0 10 7 27 15
38 25 33 18 44 -29 44 -31 0 -46 -5 -50 -16z"/>
<path d="M7523 6054 c-23 -10 -14 -21 28 -34 35 -12 42 -12 49 1 5 7 6 17 2
21 -10 10 -64 18 -79 12z"/>
<path d="M8441 5976 c-10 -12 -8 -17 10 -26 22 -13 38 -1 39 28 0 17 -35 15
-49 -2z"/>
<path d="M5153 5836 c5 -35 3 -47 -13 -61 -28 -25 -70 -104 -60 -110 5 -3 17
4 27 15 10 11 28 31 41 44 12 13 22 33 22 45 0 11 3 21 8 21 4 0 15 15 25 32
18 31 18 33 1 45 -10 7 -27 13 -37 13 -17 0 -19 -5 -14 -44z"/>
<path d="M5450 5790 c0 -13 5 -20 13 -17 6 2 12 10 12 17 0 7 -6 15 -12 18 -8
2 -13 -5 -13 -18z"/>
<path d="M10950 5770 c0 -5 9 -10 21 -10 11 0 17 5 14 10 -3 6 -13 10 -21 10
-8 0 -14 -4 -14 -10z"/>
<path d="M5296 5751 c-4 -7 -5 -15 -2 -18 9 -9 19 4 14 18 -4 11 -6 11 -12 0z"/>
<path d="M5270 5711 c0 -6 -13 -18 -30 -28 -33 -19 -39 -43 -15 -63 11 -9 14
-22 9 -46 -7 -36 -3 -40 25 -24 10 5 33 12 52 15 18 3 39 14 46 25 10 14 21
17 47 13 31 -5 39 -1 80 43 29 30 42 51 35 55 -6 4 -20 -2 -30 -12 -11 -11
-30 -19 -43 -19 -14 0 -28 -4 -31 -10 -3 -5 -14 -10 -24 -10 -10 0 -32 -7 -47
-15 -16 -8 -39 -15 -51 -15 -19 0 -23 6 -23 31 0 17 5 39 10 50 7 13 7 19 0
19 -5 0 -10 -4 -10 -9z"/>
<path d="M9287 5684 c-8 -8 3 -34 14 -34 11 0 12 27 0 34 -4 3 -11 3 -14 0z"/>
<path d="M9217 5633 c-4 -3 -7 -23 -7 -44 0 -21 -4 -41 -10 -44 -5 -3 -10 0
-10 7 -1 7 -11 1 -23 -13 -18 -22 -31 -27 -67 -27 -25 0 -51 5 -58 11 -9 7
-16 7 -24 -1 -8 -8 -3 -13 18 -17 50 -11 82 -26 88 -41 3 -8 12 -14 20 -14 7
0 16 -6 19 -13 7 -20 120 -41 146 -28 l21 11 -22 44 c-26 53 -19 87 24 126 17
15 27 33 24 39 -10 16 -43 13 -50 -4 -3 -8 -12 -15 -19 -15 -8 0 -20 7 -27 15
-13 16 -32 19 -43 8z"/>
<path d="M4950 5564 c-18 -48 -13 -60 15 -34 28 26 33 60 10 60 -9 0 -20 -12
-25 -26z"/>
<path d="M6130 5580 c-8 -5 -11 -12 -8 -16 10 -9 38 3 38 16 0 12 -10 13 -30
0z"/>
<path d="M1913 5533 c9 -2 23 -2 30 0 6 3 -1 5 -18 5 -16 0 -22 -2 -12 -5z"/>
<path d="M7097 5533 c-14 -13 -6 -23 18 -23 16 0 25 6 25 15 0 15 -31 21 -43
8z"/>
<path d="M3893 5493 c-7 -2 -13 -15 -13 -28 0 -22 17 -35 46 -35 20 0 18 56
-2 64 -9 3 -16 6 -17 5 -1 0 -8 -3 -14 -6z"/>
<path d="M3065 5479 c-9 -14 -2 -20 14 -10 8 6 9 11 3 15 -6 3 -14 1 -17 -5z"/>
<path d="M4170 5471 c0 -11 -3 -27 -7 -37 -5 -15 -2 -16 23 -10 37 10 37 9 23
40 -14 30 -39 35 -39 7z"/>
<path d="M5837 5463 c-12 -11 -8 -23 8 -23 8 0 15 7 15 15 0 16 -12 20 -23 8z"/>
<path d="M3750 5433 c-11 -8 -20 -20 -20 -28 0 -19 39 -45 66 -45 22 0 84 44
84 59 0 4 -25 12 -55 18 -44 8 -60 7 -75 -4z"/>
<path d="M9362 5438 c3 -7 13 -15 24 -17 16 -3 17 -1 5 13 -16 19 -34 21 -29
4z"/>
<path d="M4230 5430 c0 -5 5 -10 11 -10 5 0 7 5 4 10 -3 6 -8 10 -11 10 -2 0
-4 -4 -4 -10z"/>
<path d="M5335 5400 c-8 -13 5 -13 25 0 13 8 13 10 -2 10 -9 0 -20 -4 -23 -10z"/>
<path d="M763 5375 c-33 -23 -56 -113 -43 -171 13 -56 2 -76 -30 -56 -30 18
-37 15 -42 -18 -7 -44 5 -56 33 -36 17 11 45 16 99 16 69 0 79 -3 110 -29 31
-25 33 -31 23 -53 -15 -33 -5 -76 21 -90 11 -6 30 -18 41 -28 39 -33 54 -32
70 7 20 47 19 63 -3 63 -11 0 -25 14 -35 35 -9 19 -21 35 -26 35 -4 0 -14 20
-21 45 -10 36 -19 49 -44 59 -17 7 -45 25 -62 39 -18 15 -37 27 -42 27 -17 0
-52 51 -52 74 0 12 14 35 30 51 17 16 30 32 30 37 0 13 -34 9 -57 -7z"/>
<path d="M5626 5344 c-4 -11 -13 -14 -30 -10 -25 6 -90 -16 -101 -34 -3 -5
-15 -10 -26 -10 -10 0 -50 -14 -87 -31 -66 -29 -68 -31 -68 -65 1 -31 3 -34
32 -34 17 0 37 7 44 15 7 8 25 15 41 15 16 0 38 9 49 20 11 11 30 20 43 20 13
0 43 6 68 14 24 8 56 17 72 20 32 8 34 19 7 46 -11 11 -20 27 -20 35 0 20 -16
19 -24 -1z"/>
<path d="M485 5321 c-16 -10 -38 -27 -47 -37 -39 -45 -62 -144 -37 -159 6 -4
8 -22 4 -45 -4 -23 -2 -41 4 -45 6 -3 11 -14 11 -25 0 -23 19 -30 83 -30 30 0
60 -7 71 -15 37 -28 48 -19 41 28 -9 53 -11 54 -35 32 -18 -17 -20 -17 -52 2
-35 20 -66 88 -67 148 -1 43 70 112 118 117 43 4 50 21 16 36 -37 17 -76 15
-110 -7z"/>
<path d="M3871 5327 c-30 -15 -50 -60 -25 -55 18 3 61 54 53 62 -3 3 -15 0
-28 -7z"/>
<path d="M1098 5311 c-28 -16 -64 -68 -54 -78 7 -7 150 -20 164 -15 12 4 2 65
-12 74 -6 4 -21 8 -33 8 -12 0 -26 6 -30 13 -7 11 -13 11 -35 -2z"/>
<path d="M7405 5281 c-3 -6 5 -19 17 -30 29 -28 50 -10 23 19 -20 22 -31 25
-40 11z"/>
<path d="M2841 5258 c-26 -9 -27 -28 -3 -29 37 -2 88 3 102 11 10 5 24 1 39
-11 18 -15 27 -17 35 -8 30 30 -110 61 -173 37z"/>
<path d="M3340 5182 c0 -14 11 -21 26 -15 21 8 17 23 -6 23 -11 0 -20 -4 -20
-8z"/>
<path d="M5626 5177 c-27 -20 -15 -50 28 -70 63 -30 82 6 33 61 -24 25 -36 27
-61 9z"/>
<path d="M7580 5163 c0 -11 5 -24 11 -30 18 -18 -1 -59 -49 -107 -28 -28 -55
-46 -69 -46 -26 0 -30 -12 -8 -30 10 -8 31 -11 60 -7 27 4 45 3 45 -3 0 -14
27 -13 36 2 4 6 0 16 -9 23 -23 17 -22 24 19 75 35 44 35 45 16 61 -11 9 -22
29 -24 44 -3 32 -28 47 -28 18z"/>
<path d="M6240 5135 c-13 -35 -13 -39 8 -58 35 -32 50 -22 48 31 -2 40 -6 47
-24 50 -16 3 -25 -4 -32 -23z"/>
<path d="M3588 5143 c7 -3 16 -2 19 1 4 3 -2 6 -13 5 -11 0 -14 -3 -6 -6z"/>
<path d="M4115 5090 c3 -5 10 -10 16 -10 5 0 9 5 9 10 0 6 -7 10 -16 10 -8 0
-12 -4 -9 -10z"/>
<path d="M4206 5091 c17 -4 36 -11 42 -15 7 -4 12 -1 12 8 0 12 -10 16 -42 15
-41 -1 -41 -1 -12 -8z"/>
<path d="M1483 5043 c-23 -9 -15 -35 10 -31 12 2 22 9 22 17 0 16 -14 22 -32
14z"/>
<path d="M1125 5030 c-3 -5 1 -10 9 -10 9 0 16 5 16 10 0 6 -4 10 -9 10 -6 0
-13 -4 -16 -10z"/>
<path d="M1065 5000 c-8 -13 15 -13 35 0 12 8 11 10 -7 10 -12 0 -25 -4 -28
-10z"/>
<path d="M7190 4980 c0 -5 7 -10 15 -10 8 0 15 5 15 10 0 6 -7 10 -15 10 -8 0
-15 -4 -15 -10z"/>
<path d="M5390 4956 c0 -8 18 -23 40 -34 22 -11 40 -18 40 -15 0 2 -10 17 -22
33 -23 31 -58 41 -58 16z"/>
<path d="M1295 4949 c-8 -12 11 -29 33 -29 19 0 10 34 -10 38 -9 2 -19 -2 -23
-9z"/>
<path d="M7076 4914 c-38 -28 -55 -35 -77 -30 -23 4 -35 -1 -59 -24 -17 -17
-39 -30 -50 -30 -28 0 -34 -17 -10 -30 11 -6 20 -21 20 -34 0 -15 18 -43 45
-72 32 -33 45 -56 45 -76 0 -32 19 -44 47 -30 24 12 43 5 43 -18 0 -29 -25
-41 -80 -39 -36 2 -55 -2 -67 -14 -23 -23 -5 -41 28 -29 13 5 39 7 58 4 25 -3
38 0 47 13 8 10 30 21 50 24 48 8 67 36 39 57 -11 8 -19 24 -17 35 2 10 -4 26
-12 35 -9 8 -16 22 -16 29 0 8 -16 21 -35 30 -19 10 -37 25 -40 36 -7 22 24
98 48 118 10 7 17 19 17 27 0 7 9 18 20 24 19 10 28 30 13 30 -5 0 -30 -17
-57 -36z"/>
<path d="M6545 4930 c-10 -17 12 -37 25 -24 8 8 6 15 -4 23 -10 9 -16 9 -21 1z"/>
<path d="M640 4927 c0 -2 7 -18 16 -36 12 -24 13 -36 5 -44 -6 -6 -11 -21 -11
-32 0 -25 -29 -55 -53 -55 -9 0 -17 -6 -17 -14 0 -23 -19 -29 -36 -11 -12 12
-19 13 -30 4 -18 -15 -18 -38 1 -45 8 -3 19 -21 25 -41 10 -29 9 -37 -5 -53
-9 -10 -14 -23 -11 -28 3 -4 -2 -21 -10 -36 -7 -16 -14 -37 -14 -47 0 -22 -18
-34 -46 -31 -18 3 -22 -4 -28 -44 -3 -26 -6 -60 -6 -76 0 -16 -10 -47 -22 -68
-22 -38 -26 -40 -71 -40 -27 0 -58 7 -72 16 -14 9 -32 13 -41 10 -16 -6 -16
-8 0 -24 21 -24 21 -104 -1 -153 -15 -34 -20 -38 -72 -47 -54 -9 -55 -9 -24
-17 43 -10 135 -100 131 -128 -2 -11 -16 -28 -33 -37 -24 -13 -30 -23 -32 -57
l-2 -40 57 11 57 12 0 40 c0 43 18 74 42 74 19 0 123 90 123 106 0 7 -15 24
-32 39 -18 14 -41 33 -50 41 -30 24 -22 63 20 104 43 40 137 90 171 90 12 0
20 4 17 9 -3 5 -22 9 -41 8 -50 -1 -83 32 -70 70 14 39 122 92 188 92 51 1 55
5 31 32 -11 13 -25 16 -50 12 -30 -5 -34 -3 -34 15 0 11 -4 24 -10 27 -40 25
33 107 116 131 53 15 55 17 41 37 -8 12 -18 22 -23 22 -29 1 -36 19 -31 81 4
50 2 64 -9 64 -7 0 -20 14 -29 30 -13 26 -25 38 -25 27z"/>
<path d="M3771 4910 c-13 -11 -32 -20 -42 -20 -27 0 -24 -15 6 -28 36 -17 43
-57 15 -88 -13 -13 -21 -26 -18 -29 2 -3 32 -2 66 1 62 7 74 17 50 43 -10 11
-10 14 0 18 16 6 15 48 -2 62 -8 7 -17 23 -20 36 -8 30 -23 31 -55 5z"/>
<path d="M3870 4901 c-14 -28 -13 -31 13 -31 16 0 28 9 35 25 11 23 10 25 -13
25 -14 0 -29 -8 -35 -19z"/>
<path d="M240 4901 c0 -5 7 -22 15 -37 8 -16 15 -48 15 -71 0 -33 -4 -43 -21
-48 -21 -7 -47 -50 -36 -61 3 -4 18 3 32 14 33 26 121 45 186 40 27 -1 49 -2
49 -1 0 1 -19 20 -42 42 -28 26 -56 42 -81 46 -29 5 -41 13 -48 32 -6 16 -6
30 0 37 6 8 -2 12 -30 13 -21 2 -39 -1 -39 -6z"/>
<path d="M7198 4899 c-24 -13 -23 -29 1 -29 21 0 45 23 34 33 -8 9 -15 8 -35
-4z"/>
<path d="M7375 4900 c-11 -5 -35 -9 -53 -9 -26 -1 -33 -5 -30 -18 7 -38 168
-16 168 23 0 16 -52 18 -85 4z"/>
<path d="M5323 4883 c-19 -7 -16 -72 2 -79 25 -10 46 16 43 50 -3 30 -19 40
-45 29z"/>
<path d="M6631 4871 c-12 -8 -12 -14 -1 -40 10 -24 19 -31 41 -31 36 0 44 14
29 51 -13 30 -40 38 -69 20z"/>
<path d="M8150 4856 c-18 -23 -8 -61 17 -64 27 -4 44 25 32 56 -10 25 -31 29
-49 8z"/>
<path d="M5570 4811 c0 -16 43 -91 53 -91 13 0 47 40 47 55 0 9 -9 15 -25 15
-14 0 -37 7 -50 16 -17 11 -25 12 -25 5z"/>
<path d="M5967 4813 c-4 -3 -7 -16 -7 -27 0 -12 -14 -34 -30 -50 -27 -26 -28
-30 -15 -50 8 -11 15 -30 15 -42 0 -26 22 -46 43 -38 17 6 34 44 39 84 3 22 8
25 48 26 25 1 49 -4 55 -10 6 -7 24 -19 40 -27 19 -9 38 -31 53 -61 26 -55 58
-67 47 -19 -8 36 11 75 54 114 54 47 38 63 -46 46 -77 -16 -143 -12 -158 8 -7
10 -19 14 -29 10 -11 -5 -16 -1 -16 13 0 23 -20 26 -39 8 -10 -11 -15 -10 -25
5 -14 19 -19 20 -29 10z"/>
<path d="M7710 4805 c0 -8 -9 -23 -20 -32 -22 -19 -26 -39 -9 -45 9 -3 9 -9 0
-25 -6 -12 -11 -29 -11 -37 0 -20 34 -21 50 -1 10 13 10 19 -5 35 -16 18 -17
21 -1 44 18 28 21 62 6 71 -5 3 -10 -1 -10 -10z"/>
<path d="M4413 4787 c-4 -7 -16 -16 -25 -20 -12 -4 -18 -17 -18 -38 0 -29 -2
-31 -29 -26 -34 7 -71 -16 -71 -44 0 -21 -33 -59 -51 -59 -7 0 -9 11 -6 30 5
20 1 34 -10 46 -16 16 -18 15 -25 -12 -4 -16 -15 -35 -25 -41 -9 -7 -11 -13
-5 -13 16 0 15 -33 0 -49 -11 -10 -8 -16 11 -32 47 -38 101 -15 101 44 0 24 8
39 34 60 19 15 42 27 51 27 26 0 55 19 89 58 37 42 38 50 9 69 -18 12 -23 12
-30 0z"/>
<path d="M11270 4778 c0 -19 2 -20 10 -8 13 19 13 30 0 30 -5 0 -10 -10 -10
-22z"/>
<path d="M4895 4746 c-46 -20 -59 -41 -49 -77 5 -18 18 -38 29 -45 18 -12 25
-10 58 13 33 23 38 31 35 61 -4 47 -32 65 -73 48z"/>
<path d="M8055 4720 c-3 -5 -16 -10 -29 -10 -12 0 -26 -3 -30 -7 -16 -16 -101
-31 -119 -21 -10 5 -31 6 -48 3 -25 -6 -27 -9 -19 -25 6 -11 17 -17 24 -14 25
10 101 -22 104 -43 2 -11 21 -28 45 -40 108 -54 181 -135 175 -196 -3 -31 -2
-32 37 -30 106 6 131 13 142 44 14 35 33 38 33 5 0 -25 32 -56 57 -56 8 0 13
12 13 28 0 18 7 30 22 37 32 15 56 87 39 118 -12 22 -19 24 -89 24 -47 1 -78
5 -80 12 -5 15 -22 14 -41 -3 -9 -8 -30 -17 -47 -20 -41 -9 -75 23 -98 94 -28
87 -71 133 -91 100z m75 -170 c0 -5 -7 -10 -15 -10 -8 0 -15 5 -15 10 0 6 7
10 15 10 8 0 15 -4 15 -10z m58 -38 c-5 -27 -28 -26 -28 2 0 19 4 24 15 19 9
-3 15 -12 13 -21z"/>
<path d="M3937 4700 c-9 -11 -27 -20 -40 -20 -13 0 -44 -15 -68 -32 -39 -29
-41 -33 -22 -36 12 -2 36 4 55 14 18 9 50 17 72 18 45 1 68 25 50 53 -15 25
-27 26 -47 3z"/>
<path d="M5688 4709 c-20 -11 -25 -43 -6 -37 14 5 43 48 32 48 -5 0 -17 -5
-26 -11z"/>
<path d="M10226 4683 c4 -16 11 -36 15 -45 12 -23 11 -85 -1 -109 -20 -36 5
-19 55 37 28 31 67 68 89 81 21 14 34 28 30 33 -10 10 -123 30 -167 30 -25 0
-27 -3 -21 -27z"/>
<path d="M5590 4649 c0 -21 6 -28 26 -33 15 -4 29 -5 31 -2 10 9 -7 37 -18 31
-5 -4 -17 1 -24 11 -14 18 -14 17 -15 -7z"/>
<path d="M150 4631 c-16 -31 -13 -91 6 -98 38 -14 62 38 47 100 -6 23 -40 22
-53 -2z"/>
<path d="M3990 4610 c0 -5 5 -10 10 -10 6 0 10 5 10 10 0 6 -4 10 -10 10 -5 0
-10 -4 -10 -10z"/>
<path d="M7440 4595 c-56 -8 -104 -10 -139 -4 -61 9 -73 6 -42 -11 12 -6 21
-17 21 -24 0 -11 55 -100 77 -125 2 -3 17 11 33 30 16 19 30 32 31 29 0 -3 2
-36 3 -73 3 -68 15 -95 35 -83 6 4 11 17 11 29 0 12 7 43 14 69 8 25 12 56 9
67 -3 12 -1 21 5 21 11 0 62 68 62 82 0 10 -11 9 -120 -7z"/>
<path d="M7768 4605 c-8 -8 3 -98 12 -109 14 -15 27 27 22 72 -4 38 -18 53
-34 37z"/>
<path d="M5433 4564 c-12 -19 -14 -30 -6 -43 17 -27 57 -45 86 -37 23 5 27 12
27 44 0 47 -14 62 -57 62 -24 0 -37 -7 -50 -26z"/>
<path d="M8725 4560 c-15 -16 -15 -22 -5 -35 15 -18 35 -6 43 25 7 26 -18 33
-38 10z"/>
<path d="M4018 4548 c-2 -16 -16 -29 -45 -42 -23 -10 -45 -26 -48 -34 -3 -8
12 -35 36 -63 l41 -50 14 27 c8 14 14 43 14 64 0 24 7 43 20 55 26 24 22 59
-7 63 -16 2 -22 -3 -25 -20z"/>
<path d="M3566 4546 c-19 -9 -25 -16 -17 -21 18 -11 61 3 61 20 0 18 -5 18
-44 1z"/>
<path d="M5174 4518 c4 -22 9 -45 12 -50 9 -14 24 2 24 26 0 12 6 28 12 34 10
10 10 15 -2 22 -8 5 -23 10 -34 10 -16 0 -18 -5 -12 -42z"/>
<path d="M11668 4554 c-4 -3 8 -29 25 -57 l32 -51 3 38 c3 29 -2 41 -20 56
-25 21 -31 23 -40 14z"/>
<path d="M10820 4519 c0 -6 15 -29 34 -52 18 -23 41 -57 50 -74 9 -18 21 -33
25 -33 22 0 41 14 41 30 0 9 9 29 20 43 11 14 20 27 20 30 0 2 -16 17 -35 31
-28 22 -38 25 -55 16 -16 -9 -22 -8 -26 5 -8 19 -24 20 -24 0 0 -8 -5 -15 -10
-15 -6 0 -13 7 -16 15 -7 17 -24 20 -24 4z"/>
<path d="M6390 4483 c0 -10 21 -37 47 -61 51 -48 100 -126 107 -172 2 -8 14
-17 27 -18 13 -2 27 -10 31 -17 5 -7 17 -11 27 -8 25 6 73 -39 65 -61 -3 -9
-10 -16 -15 -16 -17 0 -9 -35 14 -63 28 -35 46 -29 70 24 16 33 17 42 6 55
-10 13 -10 17 2 25 18 11 26 11 34 -1 9 -15 32 -12 39 5 3 10 -1 18 -12 21 -9
3 -27 10 -38 16 -12 6 -30 7 -40 4 -17 -5 -19 0 -20 51 -1 46 -6 59 -25 74
-22 17 -23 18 -6 37 27 30 21 51 -19 68 -34 14 -38 14 -58 -5 -16 -15 -25 -17
-39 -9 -10 5 -33 7 -51 4 -25 -5 -37 -2 -51 14 -12 14 -25 18 -42 14 -19 -5
-25 -2 -30 15 -6 25 -23 28 -23 4z"/>
<path d="M6142 4458 c-16 -16 -15 -43 1 -56 17 -15 67 -1 81 22 21 33 -53 63
-82 34z"/>
<path d="M5790 4410 c0 -28 -4 -40 -14 -40 -20 0 -28 -15 -30 -57 -1 -28 5
-41 32 -64 20 -18 44 -29 62 -29 16 0 32 -4 35 -10 15 -25 25 -5 25 50 0 47 5
67 25 96 28 41 27 46 -10 50 -16 2 -30 -5 -39 -17 -12 -18 -14 -18 -20 -3 -4
10 1 25 10 35 10 11 15 19 13 20 -2 1 -23 3 -46 5 l-43 4 0 -40z"/>
<path d="M8063 4434 c-8 -22 9 -48 36 -52 25 -4 27 14 5 46 -18 26 -32 28 -41
6z"/>
<path d="M1540 4400 c20 -13 43 -13 35 0 -3 6 -16 10 -28 10 -18 0 -19 -2 -7
-10z"/>
<path d="M10056 4395 c-13 -10 -32 -12 -64 -8 l-45 6 24 -34 c13 -19 28 -36
32 -38 4 -1 20 -21 34 -44 24 -38 26 -40 39 -22 8 10 14 27 14 37 0 10 12 36
26 58 14 21 23 44 19 49 -9 16 -57 13 -79 -4z"/>
<path d="M5171 4345 c-24 -32 -49 -55 -60 -55 -10 0 -21 -8 -24 -19 -4 -16
-13 -18 -70 -15 -48 2 -69 -1 -77 -12 -7 -8 -18 -14 -25 -14 -36 0 -15 -103
22 -108 28 -4 87 52 80 77 -4 16 2 19 47 19 37 0 56 -5 69 -19 10 -10 22 -19
28 -19 5 0 32 -16 60 -35 28 -19 57 -35 64 -35 22 0 79 32 113 63 37 35 40 47
13 47 -10 0 -33 16 -51 36 -19 22 -42 37 -58 39 -48 5 -72 17 -72 36 0 10 4
21 10 24 10 6 -8 45 -21 45 -4 0 -25 -25 -48 -55z"/>
<path d="M4653 4361 c-12 -20 -7 -61 8 -61 9 0 10 5 13 53 2 32 -5 34 -21 8z"/>
<path d="M8017 4373 c-2 -5 -7 -20 -11 -34 -6 -29 -44 -43 -80 -29 -28 10 -46
2 -56 -24 -7 -21 -14 -22 -84 -20 -87 2 -113 -12 -72 -40 14 -9 31 -16 38 -16
7 0 37 -18 66 -40 29 -22 57 -40 62 -40 6 0 10 15 10 34 0 49 33 76 136 111
48 17 89 35 91 40 2 6 -12 16 -31 23 -19 7 -37 19 -40 27 -6 16 -22 20 -29 8z"/>
<path d="M4694 4324 c-10 -32 -39 -85 -48 -92 -6 -3 -12 0 -14 6 -2 7 -8 12
-13 12 -6 0 -5 -8 1 -20 14 -25 35 -25 104 1 35 13 74 19 109 18 60 -3 79 5
70 26 -3 9 -18 15 -38 15 -18 0 -35 5 -37 11 -2 6 -21 15 -43 19 -22 5 -50 12
-62 15 -17 6 -24 3 -29 -11z"/>
<path d="M7464 4299 c-3 -6 -17 -8 -31 -4 -33 8 -61 -2 -74 -27 -9 -16 -8 -23
2 -29 19 -12 69 -11 69 1 0 5 18 15 40 21 31 9 43 9 55 -1 24 -20 18 -27 -27
-34 -49 -8 -68 -21 -68 -48 0 -30 23 -31 99 -1 73 28 82 40 43 58 -12 5 -22
15 -22 21 0 16 -44 54 -63 54 -9 0 -19 -5 -23 -11z"/>
<path d="M8205 4300 c-8 -14 3 -30 21 -30 8 0 14 9 14 20 0 21 -24 28 -35 10z"/>
<path d="M3930 4278 c-12 -29 -30 -56 -52 -81 -17 -20 -18 -20 -38 4 -20 24
-20 24 -35 5 -20 -26 -19 -29 11 -66 20 -23 24 -34 15 -43 -18 -18 -13 -53 12
-70 22 -16 22 -16 -11 -16 -36 -1 -42 -26 -6 -26 10 -1 25 -4 32 -8 14 -10 16
-73 2 -82 -12 -7 -13 -45 -2 -45 17 0 42 37 42 61 0 34 14 51 33 43 12 -4 17
-1 17 10 0 9 -7 19 -15 22 -20 8 -19 20 6 45 15 15 19 27 14 42 -17 51 -17
110 0 147 9 21 15 46 13 55 -5 28 -27 29 -38 3z"/>
<path d="M5621 4281 c-30 -30 -27 -69 5 -83 36 -17 59 0 59 42 0 22 -7 37 -22
47 -19 13 -24 12 -42 -6z"/>
<path d="M3753 4245 c-8 -23 2 -28 27 -15 18 10 20 14 9 21 -20 13 -29 11 -36
-6z"/>
<path d="M8289 4247 c15 -19 41 -23 41 -7 0 6 -4 10 -9 10 -5 0 -18 3 -28 7
-16 6 -16 5 -4 -10z"/>
<path d="M10363 4233 c-35 -31 -62 -86 -53 -108 14 -34 11 -43 -21 -54 -24 -8
-37 -7 -59 4 -16 8 -32 15 -35 15 -11 0 8 -55 26 -76 11 -11 19 -23 19 -27 0
-13 -66 -23 -105 -16 -48 9 -81 -6 -147 -67 -43 -40 -58 -49 -80 -45 -4 0 -15
-13 -24 -31 -9 -17 -37 -52 -63 -78 -48 -49 -68 -94 -78 -183 -3 -27 -12 -51
-19 -54 -8 -3 -14 -18 -14 -33 0 -16 -4 -31 -9 -34 -13 -8 -33 20 -30 41 1 10
-1 40 -6 66 -6 39 -13 51 -34 60 -14 6 -41 24 -60 40 -20 17 -41 27 -52 24
-15 -4 -19 0 -19 19 0 13 -5 24 -10 24 -6 0 -28 11 -50 25 -22 14 -46 25 -53
25 -8 0 -22 9 -32 20 -22 24 -38 25 -55 5 -18 -21 -47 -19 -60 5 -8 15 -20 19
-50 18 -22 -1 -43 1 -46 5 -3 3 -30 -8 -60 -24 -30 -16 -59 -29 -64 -29 -5 0
-16 14 -25 30 -13 25 -22 30 -51 30 -44 0 -58 -27 -26 -48 12 -8 22 -20 22
-27 0 -18 -48 -55 -71 -55 -28 0 -120 -50 -126 -68 -2 -10 -18 -48 -33 -87
-33 -81 -46 -134 -55 -227 -6 -56 -11 -68 -28 -74 -12 -4 -23 -3 -24 2 -20 56
-138 150 -174 139 -10 -4 -19 -2 -19 4 0 18 -90 52 -110 41 -27 -14 -29 -14
-66 27 -33 36 -34 36 -74 23 -31 -10 -46 -11 -66 -2 -17 8 -31 9 -44 2 -30
-16 -50 -12 -50 10 0 32 -39 24 -77 -17 -29 -31 -34 -41 -29 -69 6 -27 2 -36
-22 -56 -16 -12 -37 -40 -47 -61 -10 -21 -28 -46 -40 -56 -13 -9 -25 -31 -27
-47 -2 -19 -9 -30 -23 -32 -32 -6 -45 -22 -45 -55 0 -19 -9 -38 -25 -53 -21
-19 -25 -32 -25 -77 0 -35 -5 -59 -14 -66 -8 -7 -56 -13 -108 -15 -101 -3
-193 -21 -219 -43 -8 -7 -28 -13 -43 -13 -15 0 -40 -7 -56 -15 -27 -14 -32
-14 -53 0 -22 14 -25 13 -44 -7 -11 -13 -37 -54 -58 -93 -21 -38 -56 -91 -77
-116 -21 -25 -38 -52 -38 -60 0 -8 -7 -25 -16 -38 -13 -17 -16 -43 -15 -97 1
-40 -3 -83 -9 -94 -8 -15 -8 -32 1 -63 16 -55 22 -61 69 -77 30 -10 40 -18 40
-35 0 -15 10 -25 38 -34 43 -16 72 -38 72 -58 0 -22 29 -27 49 -9 15 13 24 14
46 6 33 -13 82 -50 66 -50 -7 0 -9 -5 -5 -11 4 -7 21 -8 43 -5 53 9 64 10 82
2 9 -4 25 2 39 14 30 26 31 25 24 -8 -4 -19 1 -35 14 -52 17 -21 24 -23 48
-14 23 8 28 15 26 37 -2 20 4 30 28 42 16 8 30 11 30 6 0 -5 -7 -11 -15 -15
-22 -8 -18 -34 5 -41 11 -3 20 -13 20 -20 0 -8 10 -24 23 -37 17 -18 32 -22
60 -20 31 3 42 -2 58 -22 11 -14 25 -26 30 -26 17 0 9 30 -11 42 -11 7 -20 18
-20 25 0 18 52 16 76 -2 10 -8 27 -15 37 -15 10 0 41 -12 69 -26 40 -20 60
-25 89 -20 34 5 39 3 51 -21 14 -30 40 -33 117 -17 59 12 31 -17 -38 -40 -35
-12 -63 -25 -62 -31 1 -9 171 -16 197 -7 7 2 14 16 18 33 3 17 12 29 22 29 12
0 14 -7 9 -32 -13 -65 -16 -70 -38 -64 -11 3 -29 0 -39 -5 -19 -10 -19 -12 -2
-30 26 -28 66 -24 99 11 37 39 47 38 39 -5 -3 -19 -7 -42 -8 -51 -1 -20 77
-48 115 -40 18 3 35 -1 52 -14 33 -26 35 -26 43 16 4 19 12 38 20 41 7 2 17
18 23 35 11 32 28 33 45 4 9 -13 7 -19 -7 -27 -23 -13 -15 -25 34 -49 35 -19
39 -24 39 -60 0 -33 4 -42 28 -54 16 -8 40 -30 55 -49 16 -21 53 -47 96 -68
50 -24 71 -39 71 -53 0 -10 16 -35 36 -54 29 -28 40 -33 53 -25 19 12 41 6 41
-11 0 -7 14 -27 30 -44 17 -18 30 -36 30 -42 0 -5 11 -10 26 -10 19 0 28 -7
35 -29 10 -29 35 -40 102 -44 16 -1 27 -8 27 -16 0 -8 3 -11 7 -8 3 4 12 2 20
-4 9 -8 11 -24 6 -51 l-6 -41 34 5 c19 3 42 8 52 13 15 6 17 0 17 -56 l0 -64
61 -52 c33 -29 67 -53 75 -53 19 0 18 -20 -2 -48 -23 -33 -10 -69 32 -94 41
-24 68 -79 59 -124 -5 -28 -2 -33 25 -44 32 -13 40 -37 15 -46 -38 -15 -23
-74 19 -74 27 0 66 -27 66 -46 0 -19 -29 -18 -51 2 -30 27 -51 11 -47 -38 3
-38 6 -43 30 -46 18 -2 34 -14 47 -35 11 -18 33 -45 50 -61 27 -26 33 -28 58
-17 16 6 41 27 56 46 15 19 33 35 40 35 6 0 30 -20 53 -45 22 -25 47 -45 55
-45 29 0 79 41 94 76 14 34 17 36 33 22 30 -25 92 -58 111 -58 23 0 35 14 52
64 8 21 20 41 26 43 7 3 34 -7 59 -22 42 -25 48 -26 62 -11 9 9 25 35 37 58
20 43 24 44 75 33 22 -5 30 3 69 62 41 64 44 74 53 167 6 68 6 102 -1 109 -6
6 -11 28 -11 48 0 28 -9 48 -36 81 -20 23 -42 47 -50 51 -23 13 -16 36 12 43
16 4 39 1 59 -9 31 -15 33 -19 32 -64 -1 -59 7 -73 39 -73 24 0 25 -2 23 -64
-2 -72 1 -80 43 -106 17 -10 35 -29 42 -42 7 -13 22 -24 37 -26 26 -3 49 -35
49 -67 0 -19 36 -38 59 -30 21 6 57 -32 67 -72 7 -27 7 -27 68 -7 55 19 59 17
77 -54 14 -52 29 -53 75 -6 28 28 42 34 67 32 24 -2 32 -9 42 -36 21 -64 59
-63 109 2 35 47 60 60 86 46 20 -11 20 -8 20 713 0 534 -3 726 -12 735 -8 8
-8 15 0 25 8 10 12 296 12 1060 0 1087 1 1074 -38 1035 -13 -13 -42 6 -42 28
0 19 -46 18 -54 -1 -7 -19 -52 -20 -63 -1 -11 18 -69 30 -78 16 -5 -8 -14 -6
-32 6 -35 22 -78 33 -94 24 -7 -5 -21 -4 -31 1 -13 7 -20 6 -24 -5 -3 -7 -24
-17 -47 -20 -65 -10 -107 -39 -107 -76 0 -22 -5 -30 -18 -30 -24 0 -79 -58
-93 -98 -6 -19 -22 -37 -34 -42 -14 -5 -25 -20 -29 -42 -3 -18 -16 -40 -27
-48 -16 -13 -18 -21 -10 -41 17 -45 -41 -135 -64 -99 -3 6 -17 10 -30 10 -29
0 -34 14 -39 125 -2 44 -9 93 -15 108 -6 16 -11 39 -11 51 0 13 -7 29 -15 36
-8 7 -15 23 -15 35 0 12 -7 28 -15 35 -8 7 -15 26 -15 41 0 21 -7 32 -22 39
-13 6 -45 28 -73 50 -27 22 -58 40 -68 40 -10 0 -29 7 -42 16 -15 10 -34 14
-50 10 -35 -9 -53 26 -31 59 9 14 16 33 16 44 0 11 9 28 20 39 10 10 26 34 35
54 13 31 13 38 1 45 -8 4 -15 17 -17 28 -3 12 -14 21 -29 23 -14 2 -30 8 -36
13 -7 6 -19 3 -31 -8z m14 -149 c-3 -3 -12 -4 -19 -1 -8 3 -5 6 6 6 11 1 17
-2 13 -5z m-137 -198 c0 -3 -4 -8 -10 -11 -5 -3 -10 -1 -10 4 0 6 5 11 10 11
6 0 10 -2 10 -4z m-21 -157 c33 -12 45 -49 15 -49 -27 0 -54 20 -54 40 0 23
-2 23 39 9z m1261 -29 c9 -17 8 -20 -12 -20 -13 0 -30 5 -38 10 -13 9 -13 11
0 20 23 15 38 12 50 -10z m-2260 -240 c0 -5 -2 -10 -4 -10 -3 0 -8 5 -11 10
-3 6 -1 10 4 10 6 0 11 -4 11 -10z m2163 -7 c28 -15 29 -18 11 -21 -28 -4 -77
16 -69 28 9 14 21 13 58 -7z m-2103 -33 c0 -5 -9 -10 -21 -10 -11 0 -17 5 -14
10 3 6 13 10 21 10 8 0 14 -4 14 -10z m485 -74 c17 -26 12 -96 -7 -96 -6 0 -8
-13 -4 -31 6 -30 5 -30 -32 -27 l-37 3 4 70 c1 39 7 78 12 88 14 24 46 21 64
-7z m-1070 -206 c3 -5 1 -10 -4 -10 -6 0 -11 5 -11 10 0 6 2 10 4 10 3 0 8 -4
11 -10z m940 -30 c3 -5 2 -10 -4 -10 -5 0 -13 5 -16 10 -3 6 -2 10 4 10 5 0
13 -4 16 -10z m-1374 -33 c-13 -13 -26 -3 -16 12 3 6 11 8 17 5 6 -4 6 -10 -1
-17z m61 1 c-7 -7 -12 -8 -12 -2 0 14 12 26 19 19 2 -3 -1 -11 -7 -17z m489
-29 c6 -12 8 -34 5 -50 -4 -22 -1 -31 14 -39 24 -13 26 -38 5 -46 -19 -8 -19
-23 1 -45 14 -16 15 -27 5 -81 -13 -74 -30 -91 -81 -82 -45 8 -44 7 -27 41 21
41 42 212 28 226 -14 14 -14 38 -1 71 12 32 35 34 51 5z m-562 -21 c-1 -13 -5
-36 -8 -53 l-8 -30 -13 28 c-11 23 -11 31 0 52 17 31 30 32 29 3z m2952 -41
c18 -3 25 -11 27 -33 2 -15 12 -40 22 -54 13 -18 16 -31 9 -41 -5 -7 -9 -24
-9 -37 0 -29 -22 -37 -56 -20 -20 9 -27 21 -29 44 -1 18 -10 47 -19 65 -16 32
-22 90 -9 102 3 4 14 0 23 -8 9 -8 27 -16 41 -18z m-588 12 c36 -18 77 -61 77
-80 0 -22 -106 -57 -123 -40 -10 10 -18 109 -10 124 6 10 31 9 56 -4z m-565
-86 c1 -103 15 -164 41 -182 12 -7 21 -24 21 -36 0 -16 9 -27 30 -37 40 -17
38 -30 -3 -23 -26 5 -42 0 -75 -21 -25 -16 -41 -33 -38 -41 7 -17 -15 -17 -39
0 -21 16 -12 37 16 37 23 0 24 9 4 38 -11 15 -13 27 -6 39 6 12 4 49 -5 108
-18 121 -18 124 12 137 20 9 24 17 19 35 -4 16 -1 23 8 23 10 0 14 -19 15 -77z
m-528 26 c0 -5 -4 -9 -10 -9 -5 0 -10 7 -10 16 0 8 5 12 10 9 6 -3 10 -10 10
-16z m-90 -42 c0 -8 -11 -24 -25 -37 l-24 -23 9 34 c6 19 10 35 10 36 0 2 7 3
15 3 8 0 15 -6 15 -13z m2200 -36 c0 -5 -7 -14 -16 -22 -13 -10 -17 -10 -24 1
-5 8 -6 18 -4 22 7 11 44 10 44 -1z m-2102 -23 c-6 -18 -28 -21 -28 -4 0 9 7
16 16 16 9 0 14 -5 12 -12z m1969 -110 c13 -11 13 -13 -4 -19 -26 -11 -75 -10
-92 0 -13 8 -13 12 -1 26 16 19 71 15 97 -7z m-146 -191 c-13 -13 -26 -3 -16
12 3 6 11 8 17 5 6 -4 6 -10 -1 -17z m49 -104 c0 -23 -4 -43 -8 -43 -5 0 -25
16 -45 35 l-37 36 27 25 c25 23 27 23 45 8 12 -12 18 -31 18 -61z m-3242 -5
c3 -13 -3 -18 -22 -18 -20 0 -26 5 -26 21 0 15 5 20 22 17 13 -2 24 -11 26
-20z m507 -8 c3 -6 -1 -7 -9 -4 -18 7 -21 14 -7 14 6 0 13 -4 16 -10z m703
-52 c-4 -29 -38 -38 -38 -10 0 19 11 29 33 31 5 1 7 -9 5 -21z m-1209 3 c19
-12 6 -41 -19 -41 -13 0 -20 7 -20 18 0 31 14 39 39 23z m1481 -31 c0 -16 -26
-40 -44 -40 -8 0 -7 45 1 53 14 15 43 7 43 -13z m1030 2 c0 -13 -12 -22 -22
-16 -10 6 -1 24 13 24 5 0 9 -4 9 -8z m-1873 -28 c-3 -3 -12 -4 -19 -1 -8 3
-5 6 6 6 11 1 17 -2 13 -5z m780 -40 c8 -21 -7 -45 -35 -55 -18 -7 -23 -4 -28
18 -5 19 -2 30 11 40 25 18 44 17 52 -3z m-132 -44 c0 -36 9 -41 48 -25 14 6
17 1 17 -29 0 -20 4 -36 9 -36 15 0 34 -91 22 -103 -8 -8 -15 -7 -23 1 -17 17
-38 15 -97 -10 -30 -12 -55 -17 -60 -12 -11 12 5 176 21 220 10 29 17 34 38
32 21 -3 25 -8 25 -38z m677 28 c-9 -9 -15 -9 -24 0 -9 9 -7 12 12 12 19 0 21
-3 12 -12z m617 -20 c7 -18 25 -46 41 -63 25 -26 28 -35 21 -65 -5 -28 -12
-36 -34 -38 -32 -4 -47 25 -47 91 0 23 -7 50 -15 60 -7 11 -11 25 -8 33 9 24
31 15 42 -18z m-2624 -29 c9 -26 5 -29 -22 -18 -15 5 -21 14 -17 24 9 22 32
19 39 -6z m3577 -346 c19 -17 25 -53 8 -53 -8 0 -40 51 -40 65 0 10 13 5 32
-12z m-1244 -276 c-4 -57 -7 -63 -47 -98 -48 -43 -54 -81 -13 -87 21 -3 23 -8
20 -55 -3 -51 -4 -52 -36 -55 -37 -4 -53 19 -34 49 17 27 15 47 -8 59 -11 6
-20 19 -20 30 0 11 9 24 20 30 24 13 26 38 5 46 -27 11 -16 33 25 54 34 17 39
24 34 44 -4 18 0 28 17 39 33 24 42 11 37 -56z m698 62 c10 -17 -11 -25 -63
-22 -71 3 -72 4 -28 18 50 17 82 18 91 4z m-952 -15 c3 -8 1 -24 -4 -35 -14
-25 -7 -36 36 -54 38 -15 44 -38 17 -67 -15 -17 -15 -20 10 -46 l27 -28 -24
-33 c-21 -28 -23 -37 -13 -60 6 -14 15 -31 20 -38 9 -13 2 -33 -13 -33 -5 0
-7 6 -4 14 4 9 -10 16 -48 22 l-53 9 -8 100 c-5 55 -15 120 -23 145 -25 74
-27 89 -14 105 17 20 86 20 94 -1z m-1424 -32 c0 -14 -23 -32 -42 -32 -18 0
-25 20 -11 33 9 10 53 9 53 -1z m1690 -352 c17 -23 29 -30 56 -30 30 0 34 -3
34 -25 0 -28 -1 -28 -89 -12 -74 15 -92 32 -71 71 18 34 44 33 70 -4z m216
-163 c8 -31 9 -49 2 -53 -16 -10 -46 28 -48 61 -3 44 -2 47 17 43 11 -2 21
-20 29 -51z m-1101 -227 c-3 -5 -10 -10 -16 -10 -5 0 -9 5 -9 10 0 6 7 10 16
10 8 0 12 -4 9 -10z m237 -165 c0 -5 -5 -11 -11 -13 -6 -2 -11 4 -11 13 0 9 5
15 11 13 6 -2 11 -8 11 -13z"/>
<path d="M3350 4216 c0 -8 5 -18 10 -21 6 -3 10 3 10 14 0 12 -4 21 -10 21 -5
0 -10 -6 -10 -14z"/>
<path d="M3216 4195 c-20 -15 -20 -15 0 -30 31 -24 64 -17 76 16 3 9 1 16 -5
17 -7 0 -21 3 -32 6 -11 3 -29 -1 -39 -9z"/>
<path d="M11285 4203 c-11 -3 -32 -14 -47 -24 -14 -11 -31 -19 -37 -19 -14 0
-14 -87 0 -96 6 -3 19 -25 29 -48 39 -84 71 -99 95 -43 8 19 21 40 30 47 26
22 72 84 79 107 6 19 4 22 -10 16 -10 -3 -22 0 -28 8 -33 41 -74 60 -111 52z"/>
<path d="M8514 4189 c-3 -6 3 -24 15 -40 26 -35 26 -46 0 -54 -12 -4 -19 -14
-17 -23 2 -13 14 -17 48 -17 37 0 45 4 48 20 2 11 18 34 35 52 l30 32 -25 10
c-14 5 -35 7 -47 4 -11 -3 -32 2 -46 11 -29 19 -32 19 -41 5z"/>
<path d="M7190 4163 c-50 -17 -100 -25 -152 -25 -60 -1 -78 -5 -78 -15 0 -28
21 -53 45 -53 18 0 26 -7 31 -25 3 -14 11 -25 18 -25 6 0 21 -3 34 -6 15 -5
22 -2 22 8 0 8 9 23 20 33 11 10 20 24 20 31 0 18 40 44 66 44 18 0 63 46 52
54 -2 2 -37 -8 -78 -21z"/>
<path d="M8885 4180 c3 -5 8 -10 11 -10 2 0 4 5 4 10 0 6 -5 10 -11 10 -5 0
-7 -4 -4 -10z"/>
<path d="M6453 4153 c-24 -14 -43 -30 -43 -35 0 -6 -11 -7 -26 -4 -16 4 -35 1
-48 -7 -11 -8 -45 -17 -74 -21 -29 -4 -64 -12 -77 -18 -19 -8 -27 -7 -41 6
-15 15 -19 15 -39 2 -20 -13 -25 -13 -35 -1 -7 8 -26 15 -41 15 -22 0 -32 6
-39 24 -19 50 -27 34 -25 -47 2 -63 7 -83 18 -85 8 -2 18 2 22 7 8 14 51 14
76 1 25 -14 24 -41 -1 -63 -11 -9 -20 -23 -20 -31 0 -8 -3 -21 -6 -29 -8 -21
23 -47 55 -47 36 0 63 30 61 67 -3 48 -1 53 28 53 17 0 38 10 52 25 26 27 40
25 40 -8 0 -31 11 -43 42 -51 35 -8 72 24 63 55 -4 11 -2 25 3 32 5 7 13 28
17 47 5 23 23 49 54 77 57 52 47 74 -16 36z"/>
<path d="M6887 4163 c-15 -14 -6 -33 16 -33 30 0 40 10 26 27 -12 14 -32 17
-42 6z"/>
<path d="M8917 4143 c-4 -3 -7 -24 -7 -45 0 -32 3 -39 17 -36 10 2 19 12 22
23 2 11 8 23 14 26 15 10 0 39 -21 39 -10 0 -22 -3 -25 -7z"/>
<path d="M4752 4008 c2 -13 8 -23 13 -23 6 0 11 10 13 23 2 15 -2 22 -13 22
-11 0 -15 -7 -13 -22z"/>
<path d="M3742 4009 c-13 -5 -28 -7 -33 -3 -5 3 -9 1 -9 -4 0 -18 33 -22 56
-7 38 25 30 32 -14 14z"/>
<path d="M5275 4011 c-6 -11 15 -61 27 -61 9 0 11 31 2 54 -7 18 -20 21 -29 7z"/>
<path d="M7010 3996 c0 -24 12 -46 21 -40 15 9 10 54 -6 54 -8 0 -15 -6 -15
-14z"/>
<path d="M7980 3990 c-6 -12 -24 -23 -40 -26 -36 -8 -120 -87 -120 -113 0 -11
-2 -26 -5 -33 -6 -16 33 -38 65 -38 27 0 44 -34 25 -50 -7 -6 -17 -26 -21 -43
-3 -17 -16 -44 -27 -59 -17 -23 -19 -32 -9 -53 13 -28 43 -25 35 4 -3 11 3 24
15 32 11 8 20 16 20 19 4 41 17 57 55 71 34 11 46 22 63 58 13 28 23 40 28 33
11 -19 30 -14 41 11 10 22 49 32 175 41 25 2 61 7 81 11 33 7 42 3 112 -49 41
-30 85 -69 97 -86 12 -16 27 -30 33 -30 6 0 30 19 54 42 l42 42 -32 21 c-18
12 -58 30 -89 39 -44 12 -58 21 -58 35 0 27 24 43 53 36 17 -5 26 -2 31 10 7
20 0 35 -18 35 -7 0 -21 9 -31 20 -23 26 -42 25 -57 -1 -7 -11 -26 -28 -43
-38 -38 -23 -121 -36 -130 -21 -4 7 -17 9 -30 6 -14 -4 -27 0 -35 9 -8 9 -21
13 -36 9 -13 -4 -31 -1 -39 6 -8 7 -26 10 -40 8 -16 -3 -30 1 -41 13 -10 11
-29 19 -44 19 -15 0 -33 7 -40 15 -17 20 -27 19 -40 -5z m-10 -210 c0 -5 -4
-10 -10 -10 -5 0 -10 5 -10 10 0 6 5 10 10 10 6 0 10 -4 10 -10z"/>
<path d="M7224 3955 c-9 -22 22 -53 37 -38 15 15 7 47 -14 51 -9 2 -20 -4 -23
-13z"/>
<path d="M4566 3918 c-5 -24 0 -41 25 -79 35 -54 144 -161 189 -184 17 -9 30
-20 30 -25 0 -6 9 -10 19 -10 11 0 23 -4 26 -10 3 -5 27 -19 53 -30 25 -11 54
-28 63 -36 16 -15 18 -13 28 23 6 21 14 55 17 75 4 20 17 47 30 59 26 24 31
61 12 77 -14 11 -111 24 -166 23 -25 -1 -34 4 -41 23 -11 28 -36 39 -61 26
-16 -8 -19 -5 -25 23 -4 17 -9 36 -12 40 -9 14 -33 -15 -33 -39 0 -32 -11 -30
-50 6 -34 32 -85 70 -93 70 -2 0 -7 -14 -11 -32z"/>
<path d="M7020 3926 c0 -7 7 -19 15 -26 13 -11 15 -8 15 14 0 16 -5 26 -15 26
-8 0 -15 -6 -15 -14z"/>
<path d="M7150 3923 c-14 -3 -29 -11 -33 -19 -5 -9 -16 -12 -28 -9 -16 5 -18
3 -10 -17 12 -33 35 -33 76 -1 31 25 47 55 28 52 -5 -1 -19 -4 -33 -6z"/>
<path d="M5302 3900 c-16 -26 -15 -30 6 -30 27 0 44 21 31 37 -15 18 -22 16
-37 -7z"/>
<path d="M5730 3887 c0 -7 -21 -20 -47 -30 -77 -27 -78 -29 -65 -75 16 -53 44
-87 65 -79 10 4 17 17 17 31 0 15 13 38 30 56 30 31 35 47 24 88 -7 23 -24 31
-24 9z"/>
<path d="M5355 3845 c-30 -78 2 -121 72 -98 21 7 31 20 40 53 12 41 11 46 -9
67 -14 15 -33 23 -54 23 -29 0 -34 -4 -49 -45z"/>
<path d="M6430 3856 c0 -9 7 -16 16 -16 17 0 14 22 -4 28 -7 2 -12 -3 -12 -12z"/>
<path d="M6994 3822 c-23 -20 -44 -45 -47 -54 -4 -10 -15 -18 -26 -18 -11 0
-35 -13 -53 -28 -35 -30 -128 -55 -167 -45 -11 3 -21 1 -21 -5 0 -15 52 -39
102 -47 24 -4 50 -14 59 -21 14 -12 21 -13 44 -2 24 11 29 10 42 -7 8 -11 17
-32 20 -47 5 -25 10 -27 70 -34 52 -5 68 -3 80 9 18 18 10 37 -16 37 -25 0
-39 34 -50 120 -8 72 -8 76 15 98 28 27 29 30 6 59 l-17 22 -41 -37z"/>
<path d="M7350 3850 c-8 -5 -25 -10 -37 -10 -29 0 -38 -17 -20 -38 8 -9 17
-25 18 -36 2 -10 13 -25 25 -32 28 -19 50 -1 58 47 8 44 -19 86 -44 69z"/>
<path d="M11480 3845 c0 -8 7 -15 15 -15 8 0 15 7 15 15 0 8 -7 15 -15 15 -8
0 -15 -7 -15 -15z"/>
<path d="M11525 3850 c-10 -16 4 -30 31 -30 17 0 24 5 24 20 0 15 -7 20 -24
20 -14 0 -28 -4 -31 -10z"/>
<path d="M3397 3843 c-3 -5 -2 -15 2 -22 7 -10 10 -10 16 -1 4 6 3 16 -3 22
-5 5 -12 6 -15 1z"/>
<path d="M1500 3830 c-10 -6 -11 -13 -5 -19 6 -6 16 -7 25 -1 10 6 11 13 5 19
-6 6 -16 7 -25 1z"/>
<path d="M5535 3815 c21 -17 37 -15 43 3 2 8 -8 12 -30 12 -31 -1 -32 -1 -13
-15z"/>
<path d="M1935 3800 c-4 -7 -3 -16 3 -22 14 -14 47 -6 47 12 0 18 -40 26 -50
10z"/>
<path d="M6500 3795 c0 -16 27 -32 37 -21 7 7 -16 36 -28 36 -5 0 -9 -7 -9
-15z"/>
<path d="M1540 3780 c0 -5 5 -10 10 -10 6 0 10 5 10 10 0 6 -4 10 -10 10 -5 0
-10 -4 -10 -10z"/>
<path d="M2069 3721 c-19 -26 -29 -30 -65 -29 -23 0 -47 -2 -52 -6 -6 -3 -13
-2 -17 4 -11 18 -43 11 -63 -15 -11 -14 -25 -25 -32 -25 -6 0 -10 -5 -8 -12 3
-7 -6 -28 -19 -47 -30 -44 -25 -57 23 -54 86 5 100 17 63 52 l-21 19 53 -1
c42 -2 55 -6 57 -20 2 -9 -4 -20 -12 -23 -24 -9 -19 -21 20 -48 39 -26 84 -86
84 -110 0 -21 -39 -46 -71 -46 -17 0 -32 -9 -43 -25 -21 -32 -20 -33 9 -27 14
2 36 -3 50 -12 34 -23 41 -21 83 22 20 20 46 43 57 49 19 12 19 14 -17 46
l-37 33 29 83 c17 46 30 87 30 91 0 5 -11 21 -24 37 -13 16 -26 42 -28 58 -4
39 -22 42 -49 6z"/>
<path d="M8330 3740 c0 -5 9 -10 20 -10 11 0 20 5 20 10 0 6 -9 10 -20 10 -11
0 -20 -4 -20 -10z"/>
<path d="M6560 3658 c0 -8 6 -20 13 -27 10 -10 8 -16 -10 -31 -31 -25 -29 -55
5 -78 44 -31 67 -35 92 -14 29 23 23 56 -17 98 -16 16 -28 36 -28 44 0 9 -11
16 -27 18 -19 2 -28 -1 -28 -10z"/>
<path d="M7698 3615 c-5 -74 7 -97 41 -76 12 8 13 12 1 26 -10 12 -10 19 -2
27 17 17 15 38 -3 38 -9 0 -19 10 -24 23 -7 17 -10 9 -13 -38z"/>
<path d="M1553 3643 c9 -9 19 -14 23 -11 10 10 -6 28 -24 28 -15 0 -15 -1 1
-17z"/>
<path d="M1654 3633 c-7 -12 -24 -18 -45 -18 l-34 0 -1 -60 c-1 -33 -4 -70 -8
-81 -6 -18 0 -27 33 -50 50 -36 58 -54 32 -74 -34 -26 -25 -90 13 -90 32 0 89
18 111 35 19 14 19 15 -12 40 -27 22 -33 33 -33 66 0 26 9 53 24 75 27 40 24
69 -8 86 -28 15 -36 28 -36 61 0 31 -19 36 -36 10z"/>
<path d="M5783 3603 c-7 -2 -13 -15 -13 -28 0 -12 -7 -25 -15 -28 -8 -4 -26
-25 -41 -49 -16 -24 -33 -47 -38 -53 -23 -22 -68 -87 -63 -91 9 -9 49 17 75
47 13 16 29 29 36 29 16 0 146 97 146 109 0 12 -56 71 -67 70 -4 0 -14 -3 -20
-6z m37 -74 c0 -24 -23 -21 -28 4 -2 10 3 17 12 17 10 0 16 -9 16 -21z"/>
<path d="M6400 3596 c-41 -15 -54 -46 -18 -45 28 1 81 30 80 44 -1 15 -23 15
-62 1z"/>
<path d="M7937 3604 c-16 -16 -7 -44 14 -44 15 0 20 5 17 22 -3 22 -19 33 -31
22z"/>
<path d="M7770 3576 c0 -9 5 -16 10 -16 6 0 10 4 10 9 0 6 -4 13 -10 16 -5 3
-10 -1 -10 -9z"/>
<path d="M5962 3550 c-26 -25 -26 -27 -6 -96 14 -49 18 -54 44 -54 48 0 67 33
62 105 -2 22 -46 65 -66 65 -7 0 -22 -9 -34 -20z"/>
<path d="M6217 3504 c-29 -31 -27 -44 9 -44 23 0 34 -9 68 -55 15 -19 15 -19
16 7 0 15 -4 30 -10 33 -17 11 -11 37 10 42 39 10 25 27 -31 38 -32 6 -40 3
-62 -21z"/>
<path d="M810 3495 c-7 -9 -21 -13 -35 -9 -32 8 -46 -37 -38 -121 8 -87 18
-99 71 -90 47 8 51 14 22 40 -29 27 -27 92 5 135 30 41 29 37 6 49 -14 8 -22
7 -31 -4z"/>
<path d="M2150 3460 c0 -36 13 -39 28 -6 11 25 7 36 -15 36 -8 0 -13 -12 -13
-30z"/>
<path d="M5000 3469 c1 -55 19 -101 55 -134 20 -19 42 -35 50 -35 7 0 15 -7
19 -15 6 -17 36 -21 36 -4 0 6 -8 13 -17 16 -21 5 -52 48 -89 120 -33 65 -54
86 -54 52z"/>
<path d="M5242 3460 c0 -19 2 -27 5 -17 2 9 2 25 0 35 -3 9 -5 1 -5 -18z"/>
<path d="M7168 3453 c-21 -3 -28 -10 -28 -27 0 -35 22 -48 65 -40 41 7 52 23
35 53 -11 21 -18 22 -72 14z"/>
<path d="M7380 3433 c0 -11 26 -35 63 -59 77 -52 92 -60 84 -47 -4 6 0 19 8
29 8 10 15 35 15 54 l0 35 -85 3 c-76 2 -85 0 -85 -15z"/>
<path d="M299 3423 c-37 -4 -37 -4 -32 -43 7 -50 -9 -70 -53 -70 -19 0 -34 -5
-34 -11 0 -7 12 -9 33 -6 17 2 47 -2 66 -9 36 -15 81 -19 82 -6 8 118 6 152
-9 150 -10 -1 -33 -3 -53 -5z"/>
<path d="M2250 3419 c0 -5 5 -7 10 -4 6 3 10 8 10 11 0 2 -4 4 -10 4 -5 0 -10
-5 -10 -11z"/>
<path d="M5297 3398 c-19 -106 -20 -131 -6 -126 8 3 15 22 17 49 2 24 10 52
19 61 17 19 11 48 -11 48 -8 0 -16 -14 -19 -32z"/>
<path d="M5420 3403 c-52 -7 -60 -18 -60 -88 0 -56 -2 -63 -25 -75 -48 -26
-24 -45 70 -55 109 -11 167 -11 170 0 10 37 27 147 23 150 -2 2 -15 -2 -28
-10 -57 -32 -94 -45 -102 -37 -6 6 0 28 12 55 12 25 19 51 15 57 -6 10 -11 10
-75 3z m4 -75 c11 -41 7 -60 -11 -56 -16 3 -18 11 -14 63 2 23 18 18 25 -7z"/>
<path d="M5530 3395 c-14 -16 -5 -35 16 -35 15 0 20 35 5 44 -5 3 -14 -1 -21
-9z"/>
<path d="M1225 3375 c-3 -14 -7 -36 -10 -49 -3 -14 -13 -32 -22 -42 -16 -15
-16 -17 2 -30 10 -8 34 -14 52 -14 33 0 69 -18 107 -52 11 -10 23 -18 28 -18
17 0 7 -27 -14 -37 -19 -8 -22 -16 -19 -59 1 -27 8 -52 14 -56 25 -16 104 -8
130 12 23 18 25 24 15 50 -7 21 -7 39 1 62 7 20 8 35 2 41 -6 6 -7 22 -4 37 7
36 -15 44 -70 25 -44 -15 -53 -12 -59 20 -4 21 -17 22 -71 9 l-28 -7 2 55 c3
62 -4 78 -31 78 -13 0 -21 -9 -25 -25z"/>
<path d="M3301 3348 c-39 -14 -82 -49 -74 -60 4 -7 0 -9 -10 -5 -21 8 -49 -2
-41 -14 3 -5 -2 -9 -10 -9 -9 0 -28 -24 -44 -57 -15 -32 -41 -83 -58 -113 -26
-48 -51 -118 -68 -185 -2 -11 -12 -40 -21 -65 -11 -27 -20 -95 -25 -174 -6
-115 -9 -131 -29 -147 -24 -20 -28 -39 -6 -39 30 0 15 -110 -19 -132 -6 -4
-49 -19 -96 -34 -69 -22 -96 -25 -150 -21 -76 7 -94 0 -143 -58 -44 -52 -82
-129 -96 -196 -7 -30 -18 -64 -26 -76 -8 -12 -28 -56 -45 -99 -43 -108 -76
-148 -104 -125 -10 9 -36 15 -117 28 -65 10 -145 -51 -276 -208 -34 -41 -85
-101 -113 -134 l-52 -60 6 -57 c5 -37 3 -59 -4 -63 -6 -4 -9 -19 -5 -33 3 -17
-2 -38 -14 -58 -20 -33 -60 -44 -156 -44 -26 0 -48 -6 -55 -15 -7 -8 -25 -15
-41 -15 -38 0 -79 -17 -79 -32 0 -7 -5 -31 -11 -53 -10 -35 -13 -37 -24 -22
-7 9 -18 17 -25 17 -7 0 -10 7 -6 15 3 8 1 15 -4 15 -17 0 -11 22 13 42 l22
20 -24 19 c-30 24 -62 24 -93 0 -39 -31 -56 -29 -78 9 -11 19 -23 42 -26 51
-5 13 -12 14 -47 6 -23 -5 -50 -14 -60 -19 -11 -5 -20 -8 -21 -6 -1 2 -10 16
-20 31 -13 21 -23 27 -38 23 -12 -2 -34 2 -51 10 -42 22 -70 7 -142 -74 -33
-37 -94 -101 -136 -142 -64 -64 -80 -86 -105 -150 -27 -72 -28 -82 -27 -225 2
-244 6 -349 15 -373 4 -12 3 -33 -2 -47 -8 -20 -16 -25 -44 -25 -26 0 -47 -10
-83 -41 -50 -44 -62 -59 -44 -59 6 0 11 -16 11 -35 l0 -35 220 0 c220 0 220 0
208 21 -11 17 -10 22 7 35 18 13 21 13 32 -3 7 -9 13 -25 13 -35 0 -15 9 -18
60 -18 33 0 60 4 60 9 0 5 -16 18 -35 30 -45 26 -48 53 -5 45 39 -8 53 20 21
42 -24 17 -27 37 -7 53 10 9 16 8 26 -5 9 -10 27 -14 56 -13 46 3 68 -6 40
-17 -9 -3 -16 -12 -16 -19 0 -23 20 -28 41 -9 18 16 20 16 37 1 25 -23 37 -21
56 8 9 14 23 25 31 25 10 0 15 10 15 29 0 17 6 31 16 35 11 4 14 13 11 28 -13
47 41 67 61 23 13 -29 27 -32 36 -9 12 30 6 54 -12 54 -23 0 -42 19 -42 41 0
9 -11 24 -25 33 -14 9 -23 21 -20 26 4 6 0 10 -8 10 -18 0 -47 32 -47 53 0 13
10 17 48 19 71 2 84 -1 107 -22 12 -11 24 -18 26 -16 3 3 21 1 42 -4 42 -9 53
0 37 29 -8 16 -6 22 10 31 12 6 29 8 40 5 13 -4 22 0 29 13 9 18 6 21 -27 28
-48 9 -79 6 -120 -13 -27 -13 -37 -14 -57 -3 -13 7 -29 9 -36 4 -7 -4 -31 -11
-54 -15 -22 -3 -48 -10 -57 -14 -12 -5 -20 -2 -25 11 -10 26 33 57 71 50 25
-5 54 0 116 22 22 8 42 9 165 11 139 3 132 3 111 -12 -17 -13 -18 -14 -2 -20
10 -4 31 0 47 8 33 17 49 13 49 -13 1 -9 7 -28 14 -42 9 -16 11 -32 5 -47 -7
-20 -5 -23 13 -23 12 0 30 8 40 17 24 22 82 22 106 0 10 -9 26 -17 35 -17 18
0 27 -3 94 -38 23 -12 48 -22 56 -22 7 0 23 -10 35 -23 12 -13 42 -33 65 -45
26 -13 54 -38 70 -63 29 -44 28 -65 -3 -49 -37 20 -41 3 -10 -37 18 -23 19
-28 5 -43 -21 -23 -19 -35 8 -57 12 -10 27 -31 32 -48 l10 -30 282 -3 c274 -2
281 -2 286 18 7 28 57 28 57 0 0 -14 7 -20 21 -20 20 0 21 4 16 50 -7 56 2 62
43 30 35 -27 42 -25 38 13 -2 27 -8 33 -30 35 -54 6 -19 74 40 78 15 1 56 9
92 17 99 22 367 4 495 -33 22 -6 51 -14 65 -17 14 -3 57 -20 95 -39 39 -19 75
-34 81 -34 6 0 19 -9 28 -19 10 -11 37 -29 61 -40 24 -11 46 -25 50 -31 4 -7
190 -10 559 -10 480 0 555 2 566 15 7 8 25 15 39 15 33 0 58 17 74 50 13 25
61 49 73 37 4 -4 1 -13 -6 -22 -21 -26 17 -31 50 -6 16 11 41 21 56 21 19 0
25 4 20 15 -5 15 3 19 35 16 9 -1 37 8 64 19 36 15 59 19 91 14 27 -4 62 0 96
10 47 13 58 13 93 1 22 -8 54 -14 71 -15 17 0 51 -7 74 -15 23 -8 53 -15 66
-15 20 0 24 5 24 33 0 39 -15 57 -48 57 -15 0 -22 5 -19 13 2 6 13 11 23 10
28 -2 41 21 24 47 -8 12 -11 12 -27 -2 -10 -9 -36 -18 -58 -21 -22 -3 -53 -9
-68 -12 -24 -6 -29 -4 -34 14 -7 27 -44 28 -68 1 -20 -22 -65 -24 -72 -4 -2 6
8 25 22 42 14 16 25 37 25 46 0 19 -27 53 -53 67 -16 9 -18 7 -11 -25 3 -20 2
-36 -3 -36 -15 0 -86 39 -95 52 -14 23 -9 105 7 118 21 18 19 41 -5 47 -27 7
-25 31 3 35 27 4 34 35 13 63 -14 20 -15 20 -36 -2 -26 -29 -66 -30 -81 -2
-16 31 2 46 37 30 39 -17 52 0 26 34 -17 21 -19 31 -11 52 12 32 6 38 -35 35
-18 -2 -40 3 -48 10 -21 20 -78 48 -96 48 -12 0 -11 -5 8 -25 l23 -25 -31 0
c-18 0 -32 5 -32 11 0 17 -48 72 -78 90 -36 21 -39 44 -7 73 21 20 23 25 9 30
-8 3 -24 6 -35 6 -12 0 -19 7 -19 20 0 13 7 20 18 20 24 0 58 35 43 45 -6 3
-11 14 -11 24 0 10 -9 26 -20 36 -32 29 -26 45 15 38 23 -4 35 -2 35 6 0 6 -7
11 -15 11 -9 0 -20 11 -24 24 -14 35 -37 39 -65 11 -14 -14 -31 -25 -37 -25
-20 0 -69 -52 -69 -71 0 -10 -4 -21 -10 -24 -5 -3 -10 -1 -10 5 0 6 -17 10
-37 9 -21 0 -50 2 -65 6 -19 5 -28 3 -28 -4 0 -6 13 -14 29 -17 17 -4 31 -14
34 -25 4 -13 14 -19 35 -19 37 0 62 -23 62 -55 0 -22 -24 -45 -48 -45 -5 0
-12 18 -16 39 -9 61 -46 63 -71 5 -9 -23 -21 -34 -34 -34 -11 0 -23 -5 -26
-11 -5 -6 6 -9 30 -7 44 4 68 -20 46 -46 -19 -23 -46 -20 -68 7 -11 13 -27 21
-39 19 -26 -4 -38 22 -18 38 20 18 17 37 -12 76 -24 31 -27 42 -25 112 1 42
-3 91 -7 107 -9 32 -23 35 -92 20 l-35 -8 22 25 c16 17 20 27 12 35 -6 6 -12
19 -13 29 -1 11 -18 27 -37 36 -27 14 -34 24 -36 50 -3 48 4 63 22 48 8 -6 19
-9 25 -5 18 11 11 35 -15 47 -25 11 -33 32 -16 42 10 7 8 71 -3 123 -8 36 3
46 66 57 21 4 42 14 46 23 5 9 20 17 33 18 13 0 48 12 78 25 228 101 236 105
239 128 2 13 -1 29 -7 36 -6 7 -14 34 -17 60 l-7 46 -33 -6 c-33 -6 -47 7 -24
21 15 9 12 35 -5 35 -8 0 -21 -13 -30 -29 -8 -16 -19 -31 -23 -33 -5 -1 -18
-19 -28 -38 -26 -49 -137 -152 -156 -145 -8 3 -21 -1 -28 -10 -7 -8 -27 -15
-46 -15 -18 0 -36 -5 -39 -10 -8 -12 -48 -13 -60 -1 -6 5 -19 11 -30 13 -13 2
-22 13 -25 32 -7 41 -33 55 -59 32 -19 -17 -20 -17 -38 3 -12 15 -29 21 -60
21 -31 0 -46 5 -56 21 -14 20 -16 20 -40 5 -23 -16 -25 -16 -30 4 -5 18 -9 20
-26 10 -17 -9 -22 -8 -27 5 -4 9 1 21 11 29 16 12 16 14 -9 39 -14 14 -26 32
-26 38 0 7 -10 23 -21 35 -20 21 -20 26 -9 54 12 29 11 32 -11 48 -13 9 -26
17 -29 16 -30 -7 -49 -20 -58 -40 -17 -35 -39 -20 -47 32 -6 41 -11 47 -48 65
-23 11 -54 27 -69 37 -26 16 -29 16 -57 -1 -24 -14 -34 -15 -56 -5 -42 19 -84
135 -55 153 6 3 10 15 10 26 0 24 15 24 40 -1 11 -11 27 -20 35 -20 17 0 20
25 5 35 -5 3 -10 15 -10 25 0 10 -5 20 -12 22 -6 2 -11 18 -10 36 0 22 -5 33
-19 37 -28 9 -41 -3 -26 -26 10 -16 9 -21 -3 -29 -19 -12 -43 8 -37 32 3 11
-3 24 -15 32 -16 12 -18 18 -9 35 7 12 18 21 26 21 26 0 36 34 18 61 -23 33
-33 38 -63 33 -21 -4 -27 0 -38 25 -8 18 -24 34 -38 37 -29 7 -32 39 -7 92 34
75 67 93 78 43 4 -20 1 -38 -11 -56 -13 -21 -15 -31 -6 -50 6 -14 9 -32 6 -40
-8 -21 10 -19 30 4 11 12 14 21 7 26 -16 9 -13 42 5 49 8 3 26 -2 40 -10 13
-9 28 -14 31 -10 4 4 8 39 9 79 1 40 5 80 9 89 5 13 -1 18 -29 24 -20 3 -36
12 -36 19 0 21 -31 27 -56 10 -23 -15 -24 -14 -24 6 0 13 8 23 20 26 36 10 15
28 -41 36 -30 5 -63 8 -74 7 -11 0 -33 -2 -50 -3 -27 -2 -30 1 -30 25 1 30
-18 40 -54 26z m264 -168 c3 -5 -3 -10 -14 -10 -12 0 -21 5 -21 10 0 6 6 10
14 10 8 0 18 -4 21 -10z m-135 -240 c0 -5 -5 -10 -11 -10 -5 0 -7 5 -4 10 3 6
8 10 11 10 2 0 4 -4 4 -10z m70 -172 c0 -4 -9 -8 -19 -8 -19 0 -31 18 -31 48
0 12 5 11 25 -8 14 -13 25 -27 25 -32z m30 -28 c0 -5 -4 -10 -10 -10 -5 0 -10
5 -10 10 0 6 5 10 10 10 6 0 10 -4 10 -10z m160 -95 c0 -8 -7 -15 -15 -15 -16
0 -20 12 -8 23 11 12 23 8 23 -8z m102 -280 c0 -5 -5 -11 -11 -13 -6 -2 -11 4
-11 13 0 9 5 15 11 13 6 -2 11 -8 11 -13z m86 -64 c11 -7 11 -9 -1 -14 -16 -6
-27 0 -27 15 0 10 11 10 28 -1z m1088 -178 c-10 -10 -19 5 -10 18 6 11 8 11
12 0 2 -7 1 -15 -2 -18z m-31 -13 c3 -5 -1 -10 -9 -10 -9 0 -16 5 -16 10 0 6
4 10 9 10 6 0 13 -4 16 -10z m-2008 -180 c14 -11 35 -20 47 -20 12 0 39 -9 61
-20 22 -11 53 -20 70 -20 32 0 107 -34 151 -69 18 -14 41 -21 70 -21 27 0 46
-5 51 -14 10 -17 77 -64 110 -77 13 -5 23 -17 23 -28 0 -23 23 -33 56 -25 45
11 73 -4 96 -52 17 -36 18 -48 8 -54 -10 -6 -8 -13 9 -31 22 -24 27 -39 12
-39 -19 0 -41 -32 -41 -60 0 -17 11 -40 26 -57 23 -25 25 -34 20 -75 -4 -25
-2 -49 3 -52 12 -8 24 -92 16 -116 -4 -11 -15 -20 -26 -20 -16 0 -19 -5 -14
-20 4 -13 1 -22 -10 -26 -10 -4 -13 -13 -10 -25 5 -14 0 -22 -19 -29 -25 -9
-56 -56 -56 -85 0 -9 -16 -23 -35 -31 -36 -15 -44 -31 -24 -51 18 -18 3 -43
-24 -43 -18 0 -28 8 -37 30 -7 17 -16 30 -21 30 -5 0 -19 -20 -31 -45 -12 -25
-26 -45 -30 -45 -4 0 -8 -7 -8 -15 0 -12 -15 -14 -76 -12 -49 2 -78 8 -84 17
-4 7 -31 15 -60 18 -35 3 -53 10 -57 21 -3 9 -13 24 -21 33 -8 10 -12 25 -7
35 6 16 8 15 20 -8 21 -39 65 -50 65 -17 0 25 -34 48 -71 48 -21 0 -40 3 -42
8 -9 14 6 74 20 79 20 8 53 -26 53 -54 0 -30 25 -30 41 0 6 12 13 23 14 25 1
1 14 -3 29 -9 20 -10 29 -10 38 -1 18 18 34 14 46 -12 16 -35 -12 -69 -45 -56
-13 5 -23 14 -23 20 0 16 -17 12 -24 -7 -4 -9 2 -25 14 -38 27 -28 108 -28
142 1 12 10 27 23 34 29 8 7 8 12 -3 20 -19 14 -6 44 23 56 29 10 30 29 5 60
-16 20 -21 21 -34 11 -13 -11 -17 -10 -26 7 -15 26 -14 31 5 31 20 0 53 39 54
62 0 18 -37 45 -54 39 -6 -1 -20 3 -33 10 -18 9 -26 9 -38 -1 -19 -16 -19 -54
0 -70 20 -16 19 -54 -1 -71 -14 -11 -19 -10 -35 10 -11 13 -19 29 -19 37 0 17
-29 19 -32 2 -1 -7 -2 -26 -2 -43 -1 -23 -6 -30 -21 -30 -16 0 -21 8 -23 43
-2 29 -11 50 -28 67 -13 13 -24 29 -24 35 0 5 -5 10 -12 10 -6 0 -20 7 -30 16
-14 14 -20 14 -33 4 -14 -12 -14 -15 0 -30 19 -21 19 -98 0 -123 -13 -18 -14
-18 -24 1 -7 13 -7 22 1 30 8 8 7 17 -4 35 -11 16 -13 28 -6 40 19 35 -19 46
-74 22 -14 -5 -18 -2 -18 15 0 13 8 24 20 27 11 3 20 11 20 18 0 9 -13 11 -46
7 -44 -5 -46 -4 -42 19 2 20 9 24 43 27 22 1 51 5 64 8 22 5 23 6 6 24 -10 11
-26 22 -36 25 -20 7 -26 31 -9 37 7 2 8 17 2 43 -7 35 -12 40 -45 48 -29 7
-37 14 -37 32 0 16 -9 26 -30 35 -16 7 -31 16 -31 21 -1 5 -3 14 -4 19 -1 6
-3 26 -4 45 -1 30 -5 35 -24 35 -33 0 -59 22 -51 43 3 9 10 17 15 17 5 0 9 5
9 10 0 6 -13 10 -29 10 -32 0 -64 38 -59 70 2 10 -7 29 -20 42 l-22 25 25 27
c14 15 25 34 25 42 0 7 9 14 20 14 14 0 20 -7 20 -23 0 -19 8 -26 37 -35 44
-14 52 -9 29 17 -40 44 15 85 81 62 29 -11 38 -10 56 3 28 19 25 19 54 -4z
m1743 -4 c0 -3 -4 -8 -10 -11 -5 -3 -10 -1 -10 4 0 6 5 11 10 11 6 0 10 -2 10
-4z m-2116 -97 c-3 -5 -12 -9 -20 -9 -14 0 -20 31 -7 44 9 9 34 -24 27 -35z
m-394 -107 c0 -13 -12 -22 -22 -16 -10 6 -1 24 13 24 5 0 9 -4 9 -8z m255 -13
c7 -10 -21 -38 -37 -39 -13 0 -9 38 5 43 19 8 25 8 32 -4z m2691 -486 c3 -10
10 -26 15 -35 7 -15 5 -18 -13 -18 -13 0 -34 9 -48 19 -20 16 -22 21 -11 35
18 21 50 20 57 -1z m-2244 -88 c0 -5 -5 -11 -11 -13 -6 -2 -11 4 -11 13 0 9 5
15 11 13 6 -2 11 -8 11 -13z m62 -36 c18 -9 25 -21 28 -50 2 -25 -1 -39 -8
-39 -18 0 -66 69 -60 85 6 18 8 18 40 4z m2146 -86 c0 -27 -12 -29 -46 -7
l-25 17 23 24 c21 22 23 23 35 7 7 -10 13 -28 13 -41z m56 -10 c-11 -11 -19 6
-11 24 8 17 8 17 12 0 3 -10 2 -21 -1 -24z m-3910 -13 c67 0 21 -60 -48 -64
-27 -1 -34 3 -36 22 -4 28 16 55 35 47 8 -3 30 -5 49 -5z m3919 -30 c10 -15
-5 -50 -20 -50 -8 0 -19 9 -25 19 -8 16 -6 22 7 30 23 13 30 13 38 1z m-1791
-8 c8 -13 -11 -35 -23 -28 -16 10 -14 36 3 36 8 0 17 -4 20 -8z m1626 -67 c0
-8 -4 -15 -9 -15 -13 0 -22 16 -14 24 11 11 23 6 23 -9z m244 -41 c4 -10 1
-14 -6 -12 -15 5 -23 28 -10 28 5 0 13 -7 16 -16z m-360 -7 c15 -11 16 -17 5
-40 -16 -36 -34 -34 -49 4 -11 26 -11 32 1 40 19 12 22 11 43 -4z m138 -12
c11 -14 26 -25 34 -25 8 0 14 -4 14 -8 0 -5 -13 -7 -28 -4 -18 2 -33 -2 -42
-13 -18 -21 -4 -33 44 -37 54 -4 68 -29 36 -63 l-23 -25 22 0 c17 0 22 -5 19
-21 -2 -12 -11 -27 -21 -33 -14 -9 -21 -7 -32 8 -10 13 -21 17 -37 13 -20 -5
-26 -1 -35 22 -7 19 -19 30 -34 33 -37 5 -33 48 6 61 40 13 39 12 25 47 -11
26 -10 33 5 50 23 25 23 25 47 -5z m-258 -16 c26 -31 43 -75 33 -85 -20 -20
-97 63 -97 104 0 23 39 12 64 -19z m396 1 c0 -5 -2 -10 -4 -10 -3 0 -8 5 -11
10 -3 6 -1 10 4 10 6 0 11 -4 11 -10z m117 -26 c7 -18 -12 -64 -26 -64 -16 0
-23 38 -11 60 13 24 28 26 37 4z m163 -10 c0 -8 -4 -12 -10 -9 -5 3 -10 10
-10 16 0 5 5 9 10 9 6 0 10 -7 10 -16z m-600 -74 c11 -21 4 -25 -19 -11 -7 5
-10 14 -7 20 10 15 14 14 26 -9z m535 -15 c0 -39 -31 -48 -41 -11 -7 30 2 48
24 44 11 -2 17 -13 17 -33z m-1855 -35 c0 -5 -7 -10 -15 -10 -8 0 -15 5 -15
10 0 6 7 10 15 10 8 0 15 -4 15 -10z m-172 -17 c-2 -10 -10 -18 -18 -18 -8 0
-16 8 -18 18 -2 12 3 17 18 17 15 0 20 -5 18 -17z m2107 -33 c3 -5 -1 -10 -9
-10 -9 0 -16 5 -16 10 0 6 4 10 9 10 6 0 13 -4 16 -10z m-300 -50 c3 -5 1 -10
-4 -10 -6 0 -11 5 -11 10 0 6 2 10 4 10 3 0 8 -4 11 -10z m-4130 -81 c0 -8
-10 -15 -22 -17 -19 -3 -23 -10 -23 -43 0 -34 -3 -39 -23 -39 -13 0 -36 13
-51 29 l-27 28 27 22 c15 12 39 24 53 27 14 3 31 7 36 9 17 6 30 -1 30 -16z
m4301 0 c5 -8 9 -7 14 1 11 19 40 4 40 -20 0 -22 -3 -23 -49 -14 -21 5 -31 12
-31 25 0 21 15 25 26 8z m-4486 -74 c-7 -8 -18 -15 -24 -15 -6 0 -2 7 8 15 25
19 32 19 16 0z m4700 -105 c0 -5 -2 -10 -4 -10 -3 0 -8 5 -11 10 -3 6 -1 10 4
10 6 0 11 -4 11 -10z m231 -45 c0 -5 -9 -11 -21 -13 -20 -3 -27 8 -13 22 10 9
34 3 34 -9z m-4631 -5 c0 -5 -9 -10 -21 -10 -11 0 -17 5 -14 10 3 6 13 10 21
10 8 0 14 -4 14 -10z m-470 -131 c0 -22 -63 -24 -80 -4 -11 13 -7 15 34 13 25
-2 46 -6 46 -9z m-12 -87 c2 -7 -3 -12 -12 -12 -9 0 -16 7 -16 16 0 17 22 14
28 -4z"/>
<path d="M2870 1490 c0 -5 7 -7 15 -4 8 4 15 8 15 10 0 2 -7 4 -15 4 -8 0 -15
-4 -15 -10z"/>
<path d="M3002 1348 c-13 -16 -19 -99 -8 -116 5 -9 31 -12 79 -10 40 1 75 3
79 5 3 2 -7 17 -23 34 -16 17 -29 42 -29 54 0 28 -3 30 -51 39 -24 4 -40 2
-47 -6z m58 -83 c10 -13 9 -15 -9 -15 -12 0 -21 6 -21 15 0 8 4 15 9 15 5 0
14 -7 21 -15z"/>
<path d="M3150 1324 c0 -9 11 -27 25 -40 20 -19 27 -21 31 -10 7 18 -24 66
-42 66 -8 0 -14 -7 -14 -16z"/>
<path d="M3410 1190 c0 -13 5 -20 13 -17 6 2 12 10 12 17 0 7 -6 15 -12 18 -8
2 -13 -5 -13 -18z"/>
<path d="M3160 1100 c0 -33 19 -40 40 -15 16 20 5 45 -20 45 -16 0 -20 -7 -20
-30z"/>
<path d="M3441 886 c10 -8 89 -13 83 -5 -3 5 -24 9 -46 9 -23 0 -39 -2 -37 -4z"/>
<path d="M6639 3319 c-35 -37 -36 -48 -8 -83 25 -31 47 -33 82 -6 30 24 60 26
78 4 8 -10 26 -14 53 -12 36 2 41 0 44 -20 4 -29 42 -51 42 -25 -1 20 -26 57
-40 59 -6 1 -14 2 -19 3 -10 1 -33 53 -30 67 8 43 -28 47 -44 5 l-11 -30 -47
35 c-26 19 -52 34 -59 34 -7 0 -25 -14 -41 -31z"/>
<path d="M6320 3289 c0 -31 -15 -69 -33 -81 -16 -10 -17 -56 -2 -68 18 -15 44
-1 79 41 29 34 36 89 11 89 -9 0 -20 11 -25 25 -13 35 -30 31 -30 -6z"/>
<path d="M3630 3244 c0 -8 5 -12 10 -9 6 4 8 11 5 16 -9 14 -15 11 -15 -7z"/>
<path d="M5265 3240 c-4 -7 -1 -16 6 -21 17 -10 26 8 11 23 -6 6 -12 6 -17 -2z"/>
<path d="M5650 3236 c0 -15 18 -31 26 -23 7 7 -7 37 -17 37 -5 0 -9 -6 -9 -14z"/>
<path d="M7497 3238 c-20 -15 -40 -75 -27 -83 12 -7 65 20 91 46 16 16 18 23
8 35 -14 17 -49 18 -72 2z"/>
<path d="M1970 3182 l-23 -19 20 -29 c11 -16 28 -50 37 -75 19 -50 12 -79 -23
-106 -25 -18 -1 -35 57 -41 38 -3 62 -14 108 -48 32 -24 62 -44 66 -44 7 0 14
28 24 101 l6 46 -31 -5 c-23 -3 -41 3 -69 24 -45 34 -52 43 -52 71 0 12 -9 30
-19 40 -11 11 -21 35 -23 58 -3 35 -7 40 -29 43 -14 2 -36 -5 -49 -16z"/>
<path d="M966 3166 c6 -27 -13 -46 -22 -22 -8 21 -38 20 -72 -1 -15 -9 -38
-23 -52 -32 -14 -8 -32 -15 -40 -16 -9 0 -16 -12 -18 -30 -4 -47 -21 -82 -45
-93 -17 -8 2 -11 83 -11 102 -1 105 -2 136 -32 17 -17 38 -31 45 -32 26 -4 39
-18 39 -43 0 -14 7 -35 15 -48 13 -19 13 -28 4 -50 -16 -33 -7 -42 28 -27 38
15 110 1 196 -39 79 -36 111 -76 102 -125 -3 -16 -9 -47 -12 -68 -5 -36 -4
-38 18 -35 17 2 25 10 27 28 6 54 25 110 44 127 35 31 40 50 21 73 -15 17 -25
19 -61 14 -25 -4 -54 -1 -72 6 -29 12 -36 25 -42 80 -2 20 -9 26 -35 28 -25 2
-33 8 -33 22 0 28 -19 34 -40 15 -18 -16 -21 -16 -49 4 -16 12 -34 21 -40 21
-6 0 -17 11 -23 25 -6 14 -15 25 -20 25 -4 0 -8 8 -8 19 0 10 -6 24 -14 30
-25 21 -28 67 -10 124 21 67 15 87 -26 87 -27 0 -30 -3 -24 -24z"/>
<path d="M437 3173 c-4 -3 -7 -17 -7 -30 0 -27 -7 -29 -32 -6 -12 11 -22 13
-28 7 -12 -12 15 -54 36 -54 20 0 18 -33 -4 -61 -19 -22 -19 -23 17 -61 27
-28 44 -38 67 -38 25 0 34 -7 50 -35 24 -45 37 -49 63 -19 11 13 24 24 29 24
4 0 13 9 20 21 13 20 12 21 -15 15 -34 -8 -48 2 -97 67 -31 41 -36 56 -36 101
0 28 -5 57 -12 64 -13 13 -41 16 -51 5z"/>
<path d="M6954 3135 c-4 -9 -2 -21 5 -28 6 -6 11 -25 11 -41 0 -17 7 -40 15
-50 23 -31 18 -93 -11 -143 -14 -25 -24 -47 -21 -50 7 -7 59 22 78 43 9 11 20
28 23 40 4 12 30 33 59 49 28 15 64 39 80 53 48 45 31 72 -29 47 -44 -18 -68
-19 -86 -2 -7 6 -22 12 -33 12 -12 0 -20 7 -20 16 0 19 -21 46 -47 60 -14 7
-20 6 -24 -6z"/>
<path d="M5569 3103 c-13 -35 2 -86 38 -124 27 -29 99 -66 109 -56 4 4 -6 23
-22 43 -16 21 -42 64 -59 98 -35 69 -51 79 -66 39z"/>
<path d="M6126 3108 c-24 -33 -20 -38 29 -38 38 0 45 3 45 20 0 11 7 20 15 20
8 0 15 -4 15 -10 0 -6 10 -5 25 2 41 18 29 26 -44 27 -62 1 -72 -2 -85 -21z"/>
<path d="M7075 3100 c-7 -11 42 -37 51 -27 4 3 4 13 1 22 -7 17 -42 21 -52 5z"/>
<path d="M5862 3068 c-1 -18 -2 -42 -4 -53 -2 -11 3 -21 13 -23 21 -4 35 59
19 88 -16 30 -28 24 -28 -12z"/>
<path d="M5952 3058 c-19 -19 -14 -47 14 -73 22 -20 24 -27 14 -45 -6 -12 -9
-24 -5 -28 8 -8 55 43 55 61 0 7 14 24 31 36 45 33 23 50 -30 24 -43 -21 -51
-20 -51 8 0 23 -14 31 -28 17z"/>
<path d="M6300 3010 c0 -11 7 -20 15 -20 8 0 15 9 15 20 0 11 -7 20 -15 20 -8
0 -15 -9 -15 -20z"/>
<path d="M6181 2986 c-12 -19 -31 -36 -44 -40 -12 -3 -30 -19 -40 -36 -12 -19
-26 -30 -41 -30 -12 0 -31 -7 -42 -15 -16 -12 -17 -16 -4 -24 8 -6 32 -13 53
-17 48 -8 96 -39 157 -103 34 -36 61 -53 105 -67 77 -25 118 -25 123 -1 3 15
-1 17 -22 11 -16 -4 -26 -2 -26 4 0 6 -16 28 -36 48 -38 42 -104 168 -104 202
0 33 -31 102 -45 102 -7 0 -23 -15 -34 -34z"/>
<path d="M5910 2984 c0 -8 5 -12 10 -9 6 4 8 11 5 16 -9 14 -15 11 -15 -7z"/>
<path d="M2680 2935 c0 -38 0 -38 24 -29 22 9 20 41 -4 54 -18 10 -20 8 -20
-25z"/>
<path d="M6356 2962 c-3 -5 0 -27 6 -51 14 -53 31 -40 22 17 -6 40 -17 52 -28
34z"/>
<path d="M5745 2910 c3 -5 8 -10 11 -10 2 0 4 5 4 10 0 6 -5 10 -11 10 -5 0
-7 -4 -4 -10z"/>
<path d="M1697 2883 c-3 -5 -4 -41 -3 -82 2 -59 6 -76 21 -87 36 -26 52 -18
59 31 4 24 11 47 17 50 16 10 10 35 -9 35 -10 0 -28 14 -40 30 -22 30 -37 37
-45 23z"/>
<path d="M6436 2862 c-9 -15 -5 -138 5 -153 8 -13 15 53 10 108 -1 12 3 24 9
28 5 3 10 10 10 16 0 11 -27 12 -34 1z"/>
<path d="M2702 2841 c2 -7 7 -12 11 -12 12 1 9 15 -3 20 -7 2 -11 -2 -8 -8z"/>
<path d="M6522 2820 c0 -14 2 -19 5 -12 2 6 2 18 0 25 -3 6 -5 1 -5 -13z"/>
<path d="M2250 2744 c0 -14 -4 -33 -9 -42 -4 -9 -11 -33 -15 -54 -7 -41 11
-68 47 -68 24 0 60 53 71 107 6 26 3 35 -21 57 -37 35 -73 35 -73 0z"/>
<path d="M546 2723 c-14 -81 -13 -88 15 -91 25 -3 27 0 33 48 5 34 3 57 -5 66
-20 24 -37 15 -43 -23z"/>
<path d="M1865 2550 c-8 -13 5 -80 15 -80 10 0 20 26 20 55 0 24 -25 41 -35
25z"/>
<path d="M2337 2449 c-15 -4 -63 -28 -106 -53 -66 -39 -86 -46 -132 -46 -83 0
-94 -17 -17 -25 79 -8 97 -4 168 45 31 20 65 40 77 44 21 7 49 34 42 40 -2 2
-16 0 -32 -5z"/>
<path d="M1476 2431 c18 -19 243 -61 319 -60 43 1 -40 23 -179 49 -122 22
-155 25 -140 11z"/>
<path d="M4123 2243 c-7 -2 -13 -11 -13 -20 0 -21 44 -13 48 10 3 17 -10 21
-35 10z"/>
<path d="M4132 2148 c3 -7 13 -15 22 -16 12 -3 17 1 14 10 -3 7 -13 15 -22 16
-12 3 -17 -1 -14 -10z"/>
<path d="M5045 2010 c-8 -13 20 -24 41 -16 20 8 9 26 -16 26 -10 0 -22 -5 -25
-10z"/>
<path d="M4741 1181 c-9 -6 -8 -11 3 -20 15 -13 36 -7 36 9 0 12 -25 19 -39
11z"/>
<path d="M6180 1093 c-22 -28 -22 -27 -26 -98 -2 -27 -5 -66 -6 -85 -3 -32 -1
-35 22 -32 14 1 41 2 61 2 40 -1 111 28 149 60 l24 22 -22 16 c-15 12 -20 23
-16 40 9 32 -12 53 -45 46 -14 -4 -30 -10 -35 -15 -5 -4 -17 -4 -27 1 -12 7
-20 6 -24 0 -4 -6 -11 -8 -16 -5 -14 10 -10 45 6 51 21 8 19 19 -5 21 -11 1
-29 -10 -40 -24z"/>
<path d="M4820 1100 c0 -5 5 -10 10 -10 6 0 10 5 10 10 0 6 -4 10 -10 10 -5 0
-10 -4 -10 -10z"/>
<path d="M5570 586 c0 -3 11 -17 25 -32 14 -15 25 -23 25 -17 0 5 -3 13 -7 17
-5 4 -8 13 -8 19 0 7 -8 13 -17 15 -10 2 -18 1 -18 -2z"/>
<path d="M1520 501 c-8 -17 -6 -25 10 -41 11 -11 20 -31 20 -45 0 -14 8 -29
21 -35 29 -16 33 -7 15 28 -9 17 -13 38 -10 46 4 11 1 16 -10 16 -9 0 -16 8
-16 19 0 28 -17 35 -30 12z"/>
<path d="M5530 512 c0 -12 19 -26 26 -19 2 2 -2 10 -11 17 -9 8 -15 8 -15 2z"/>
<path d="M1205 420 c3 -5 13 -10 21 -10 8 0 12 5 9 10 -3 6 -13 10 -21 10 -8
0 -12 -4 -9 -10z"/>
<path d="M1220 385 c0 -10 7 -15 18 -13 21 4 19 22 -2 26 -10 2 -16 -3 -16
-13z"/>
<path d="M1457 333 c-13 -13 -19 -15 -29 -5 -9 9 -18 5 -40 -19 -34 -37 -34
-43 -5 -66 13 -10 26 -26 30 -37 6 -15 10 -16 22 -6 21 17 19 38 -5 52 -41 26
-14 51 30 28 25 -13 67 35 49 56 -15 19 -31 18 -52 -3z"/>
<path d="M5760 333 c0 -13 5 -23 10 -23 13 0 13 11 0 30 -8 12 -10 11 -10 -7z"/>
<path d="M10937 343 c-4 -3 -7 -15 -7 -26 0 -10 -25 -47 -56 -80 -63 -71 -121
-145 -153 -199 l-23 -38 267 0 c238 0 266 2 255 15 -9 11 -16 12 -25 5 -8 -7
-30 18 -80 93 -38 56 -88 121 -112 143 -29 28 -43 50 -43 68 0 25 -10 33 -23
19z"/>
<path d="M9208 285 c-43 -13 -96 -34 -118 -46 -47 -27 -56 -22 -41 22 6 18 9
35 6 38 -8 7 -11 5 -154 -119 -67 -58 -149 -122 -183 -143 l-62 -37 377 0
c427 0 426 0 503 77 24 24 44 48 44 53 0 5 -12 18 -27 27 -16 10 -38 29 -50
43 -18 21 -29 25 -72 23 l-52 -1 7 33 c11 60 -45 70 -178 30z"/>
<path d="M1290 231 c-17 -5 -21 -9 -12 -15 18 -11 15 -44 -9 -77 -25 -36 -47
-37 -55 -4 -9 35 -28 32 -21 -3 3 -16 0 -40 -7 -54 -7 -13 -16 -36 -20 -51
l-6 -27 75 0 c59 0 75 3 75 14 0 21 20 30 33 17 9 -9 8 -14 -3 -22 -10 -7 20
-8 100 -4 63 4 119 10 123 14 4 4 -1 18 -11 32 -17 20 -22 21 -35 10 -9 -7
-26 -11 -39 -9 -20 3 -23 8 -20 38 2 28 -3 41 -24 60 -15 14 -28 21 -31 15 -2
-5 -8 -17 -13 -25 -16 -23 -40 15 -40 62 0 41 -7 44 -60 29z"/>
<path d="M1490 222 c0 -4 7 -18 16 -30 13 -18 19 -21 30 -11 19 15 18 35 -2
43 -22 8 -44 8 -44 -2z"/>
<path d="M2965 160 c-3 -5 1 -10 9 -10 9 0 16 5 16 10 0 6 -4 10 -9 10 -6 0
-13 -4 -16 -10z"/>
<path d="M11685 151 c-3 -10 -6 -41 -6 -67 -1 -27 -6 -55 -11 -61 -26 -32
-134 3 -124 39 2 10 -1 18 -8 18 -6 0 -17 14 -23 30 -15 41 -38 39 -37 -3 0
-17 4 -40 9 -50 4 -9 5 -26 2 -37 -5 -19 0 -20 119 -20 l124 0 0 58 c0 80 -29
141 -45 93z"/>
<path d="M3032 105 c1 -14 6 -25 10 -25 4 0 8 11 8 25 0 14 -4 25 -10 25 -5 0
-9 -11 -8 -25z"/>
<path d="M11302 84 c3 -17 21 -21 26 -6 1 5 -4 12 -13 16 -11 4 -15 1 -13 -10z"/>
<path d="M7892 78 c-14 -14 -15 -47 -3 -66 6 -11 17 -11 51 -2 30 8 50 8 72 1
17 -6 54 -11 82 -11 l51 0 -53 30 c-51 28 -144 60 -174 60 -8 0 -19 -5 -26
-12z"/>
<path d="M911 48 c-12 -33 4 -47 52 -45 34 2 43 6 45 23 3 18 -1 21 -21 17
-14 -3 -29 2 -36 11 -18 22 -30 20 -40 -6z"/>
</g>
</svg>
