<?xml version="1.0" standalone="no"?>
<!DOCTYPE svg PUBLIC "-//W3C//DTD SVG 20010904//EN"
 "http://www.w3.org/TR/2001/REC-SVG-20010904/DTD/svg10.dtd">
<svg version="1.0" xmlns="http://www.w3.org/2000/svg"
 width="720.000000pt" height="480.000000pt" viewBox="0 0 720.000000 480.000000"
 preserveAspectRatio="xMidYMid meet">

<g transform="translate(0.000000,480.000000) scale(0.100000,-0.100000)"
fill="#000000" stroke="none">
<path d="M0 3735 l0 -1065 60 0 c49 0 61 3 70 20 14 25 22 25 38 -1 9 -14 10
-19 2 -14 -9 6 -9 2 -1 -13 6 -12 16 -24 21 -27 15 -9 12 -28 -4 -22 -8 3 -16
-2 -19 -14 -4 -14 0 -19 14 -19 10 0 19 -5 19 -12 0 -6 8 -4 19 6 19 17 20 17
31 -4 7 -12 8 -20 2 -16 -11 7 -38 -21 -29 -31 15 -14 -17 -33 -47 -28 -26 5
-36 1 -62 -27 -26 -29 -50 -68 -40 -68 2 0 18 5 35 11 22 8 29 14 21 19 -7 4
-11 13 -9 19 6 16 73 -20 77 -41 3 -15 -4 -18 -34 -18 -39 0 -41 -11 -2 -15
48 -5 52 -8 18 -14 -19 -4 -39 -4 -45 1 -18 15 -52 8 -75 -17 -31 -33 -42 -32
-24 3 16 31 18 62 4 62 -5 0 -10 -7 -10 -15 0 -21 -18 -19 -23 3 -3 9 -5 2 -6
-15 0 -19 4 -33 10 -33 8 0 8 -4 0 -14 -8 -10 -12 -48 -10 -111 2 -87 5 -96
21 -92 26 7 39 -14 22 -38 -15 -19 -16 -19 -29 -1 -12 16 -14 -18 -15 -242 l0
-259 37 -29 c20 -15 31 -30 25 -32 -7 -2 -9 -8 -6 -14 4 -6 -2 -5 -15 1 -11 7
-21 8 -22 4 0 -4 -4 1 -9 12 -5 12 -8 -128 -7 -335 2 -347 2 -355 22 -357 41
-4 181 -31 198 -38 13 -5 17 -14 13 -29 -3 -11 -6 -24 -6 -28 0 -10 -51 -3
-58 9 -4 5 -34 9 -67 9 -52 -1 -61 -4 -70 -24 -5 -12 -14 -22 -20 -22 -5 0
-11 -29 -13 -65 -3 -65 -3 -66 21 -60 14 4 28 2 31 -3 3 -6 -7 -13 -23 -17
l-30 -6 -1 -219 c0 -231 -2 -224 45 -236 46 -11 85 -37 85 -54 0 -13 7 -20 19
-20 11 0 23 -5 26 -10 5 -8 11 -8 20 0 9 8 15 8 20 0 15 -24 23 -6 20 48 -1
32 2 68 9 79 12 23 114 133 123 133 7 0 107 83 111 93 2 4 8 7 14 7 5 0 23 9
39 21 75 53 286 79 374 46 22 -9 64 -18 94 -21 32 -3 67 -15 87 -28 39 -26 47
-49 9 -24 -14 9 -25 12 -25 7 0 -11 -39 -9 -59 3 -8 5 -17 3 -22 -5 -12 -20
-11 -37 4 -42 6 -2 9 -7 6 -11 -4 -4 -23 0 -44 8 -25 11 -42 13 -55 6 -9 -5
-20 -7 -22 -4 -10 9 -30 -26 -24 -42 4 -11 13 -14 31 -10 33 8 32 -2 -1 -14
-14 -6 -28 -20 -32 -32 -4 -18 -7 -19 -16 -6 -10 13 -13 13 -24 2 -10 -11 -10
-14 3 -14 8 0 15 -7 15 -15 0 -7 8 -18 17 -24 10 -5 14 -13 10 -17 -5 -5 -11
-4 -15 2 -4 6 -15 13 -24 17 -18 7 -23 -6 -19 -47 3 -33 -28 -69 -54 -64 -18
4 -22 1 -17 -10 3 -10 1 -13 -6 -8 -10 6 -10 -8 -3 -56 0 -5 94 -8 207 -8 163
0 205 3 201 13 -6 16 25 83 37 79 5 -2 18 10 28 27 11 17 26 31 33 31 8 0 17
5 21 12 5 8 2 9 -9 5 -27 -10 -28 9 -2 21 14 7 25 16 25 20 0 10 89 36 165 48
67 11 88 11 102 1 6 -5 27 -9 47 -10 31 -2 34 -4 29 -25 -4 -18 -1 -25 16 -29
11 -3 21 -11 21 -19 0 -7 7 -17 15 -22 16 -8 11 -42 -6 -42 -13 0 -11 -21 5
-52 9 -17 11 -30 5 -34 -28 -17 18 -24 158 -24 137 0 154 2 143 15 -8 9 -9 15
-2 15 6 0 14 -4 17 -10 12 -20 35 -10 35 14 0 19 -6 25 -27 28 -18 2 -27 8
-25 17 2 9 -4 12 -18 8 -11 -3 -20 -1 -20 4 0 5 5 9 10 9 6 0 15 11 20 24 11
31 77 62 193 92 107 28 108 28 101 9 -7 -18 -5 -18 70 0 63 15 96 8 96 -20 0
-8 7 -15 15 -15 8 0 15 -7 15 -15 0 -8 5 -15 10 -15 6 0 10 -4 10 -10 0 -5 -6
-7 -13 -5 -14 6 -41 -32 -27 -40 5 -3 11 -1 15 5 9 15 25 12 25 -4 0 -8 8 -22
17 -32 17 -17 16 -17 -10 -10 -20 5 -27 3 -27 -9 0 -8 -9 -15 -20 -15 -14 0
-18 5 -14 18 5 13 4 14 -4 3 -22 -31 11 -57 54 -41 29 11 54 3 33 -11 -8 -5
64 -8 171 -8 173 1 182 2 140 15 -25 7 -54 19 -64 25 -16 9 -22 8 -34 -7 -10
-14 -13 -15 -12 -4 5 33 -1 48 -21 53 -13 4 -18 10 -14 17 4 7 2 16 -6 20 -10
7 -7 13 12 29 17 14 20 20 9 21 -9 0 -23 9 -32 19 -15 17 -15 20 0 35 13 12
13 16 3 16 -11 0 -10 5 3 19 13 15 14 20 4 24 -7 3 -3 6 9 6 12 1 27 9 32 19
10 16 12 16 26 -2 15 -19 15 -19 15 3 0 12 -4 19 -10 16 -20 -12 -10 16 12 33
12 9 36 32 54 50 26 27 39 32 76 32 25 0 63 -7 84 -16 22 -9 46 -18 54 -19 38
-4 146 -68 143 -84 -2 -6 2 -11 8 -11 13 0 49 -38 49 -51 0 -4 16 -13 36 -21
33 -12 49 -33 67 -89 8 -25 -18 -73 -49 -89 -16 -8 -34 -21 -40 -29 -7 -10
-28 -14 -63 -12 -29 1 -51 -3 -51 -9 0 -7 665 -10 2050 -10 l2050 0 0 1101 c0
991 -2 1101 -16 1095 -10 -4 -13 -2 -8 6 5 7 0 9 -14 6 -12 -4 -22 -2 -22 3 0
5 7 9 15 9 8 0 15 5 15 10 0 6 5 10 11 10 5 0 8 -4 4 -9 -3 -5 -1 -12 5 -16 6
-4 10 25 10 83 0 84 -1 90 -22 95 -26 7 -38 1 -38 -19 0 -8 -7 -14 -15 -14
-25 0 -17 30 12 43 60 26 63 35 63 180 0 110 -3 137 -17 157 -10 14 -25 38
-33 54 -15 30 -44 51 -109 81 -38 17 -105 19 -171 4 -25 -6 -56 -10 -68 -10
-13 1 -36 -7 -50 -18 -15 -10 -43 -26 -62 -35 -19 -9 -42 -22 -52 -29 -20 -16
-43 -92 -39 -129 3 -36 -10 -35 -31 2 -20 36 -43 41 -32 8 3 -13 11 -24 15
-26 13 -5 11 -42 -1 -42 -7 0 -7 -6 0 -19 7 -14 7 -22 -1 -26 -13 -9 -97 80
-105 112 -6 22 -11 24 -58 22 -33 -2 -51 1 -51 8 0 7 -6 18 -14 25 -11 11 -12
9 -6 -9 5 -19 1 -25 -19 -33 -20 -7 -26 -16 -26 -41 0 -26 -3 -31 -20 -26 -13
3 -24 -1 -30 -13 -6 -12 -17 -16 -30 -13 -17 5 -20 0 -20 -26 0 -17 -4 -31 -9
-31 -12 0 -24 37 -16 50 4 6 -6 10 -24 10 -26 0 -31 -4 -31 -25 0 -18 5 -25
19 -25 10 0 31 -7 47 -15 25 -13 29 -13 37 0 13 23 43 18 62 -11 15 -24 18
-24 29 -8 9 12 15 14 20 6 4 -7 -4 -24 -18 -39 -24 -26 -26 -26 -45 -9 -21 19
-51 15 -71 -9 -10 -12 -7 -20 16 -45 16 -16 37 -30 46 -30 9 0 20 -4 23 -10 3
-5 24 -10 45 -10 21 0 41 -6 43 -12 3 -8 6 -7 6 4 1 19 -28 32 -51 23 -8 -3
-21 1 -28 10 -7 8 -19 15 -26 15 -8 0 -14 8 -14 18 0 24 10 34 24 23 11 -9 52
-14 89 -12 20 1 23 27 5 34 -9 4 -8 6 2 6 24 0 92 -66 95 -92 2 -14 8 -34 14
-45 7 -14 8 -23 1 -27 -14 -9 -45 17 -45 38 0 9 -4 16 -10 15 -5 -2 -9 -7 -7
-12 7 -22 -9 -56 -27 -56 -12 0 -26 -13 -35 -32 -20 -39 -20 -58 -1 -59 24 -2
29 -4 43 -13 18 -11 68 11 86 39 9 13 31 29 50 36 27 10 39 23 51 52 19 47 41
45 37 -4 -4 -50 -20 -74 -58 -89 -61 -24 -35 -54 35 -39 45 10 63 28 34 35
-14 4 -20 11 -16 21 5 14 8 13 20 -3 14 -18 15 -18 32 5 l18 23 22 -31 c12
-17 18 -31 12 -31 -6 0 -11 -10 -11 -21 0 -16 -5 -20 -20 -16 -15 4 -20 0 -20
-14 0 -21 -15 -26 -25 -8 -5 7 -13 5 -25 -6 -9 -9 -24 -13 -34 -9 -9 4 -24 0
-34 -9 -22 -19 -64 -31 -187 -52 -55 -9 -110 -21 -123 -26 -32 -12 -66 -11
-80 3 -6 6 -15 8 -19 3 -5 -4 -2 -10 5 -12 23 -8 12 -23 -12 -17 -18 4 -27 1
-35 -15 -10 -18 -15 -19 -36 -9 -20 9 -28 8 -44 -6 -18 -16 -22 -17 -42 -3
-16 11 -28 13 -46 6 -34 -13 -35 -12 -33 19 3 44 1 49 -20 55 -13 3 -20 0 -20
-8 0 -8 -13 -22 -29 -31 -17 -10 -27 -23 -24 -31 7 -18 -15 -17 -33 2 -20 19
-39 19 -59 -1 -14 -15 -14 -17 1 -29 10 -7 14 -17 10 -24 -6 -9 -11 -9 -22 0
-11 9 -17 9 -28 0 -8 -7 -25 -10 -38 -7 -12 3 -43 7 -68 10 -60 6 -78 14 -85
37 -4 10 -10 19 -14 19 -5 0 -7 11 -5 25 1 18 -9 37 -36 65 -21 22 -41 40 -44
40 -3 0 -6 -11 -6 -25 0 -14 -5 -25 -10 -25 -6 0 -15 -10 -20 -22 -6 -17 -8
-6 -6 37 2 38 11 74 24 97 11 20 18 40 14 44 -4 5 1 3 10 -4 9 -7 25 -12 35
-10 15 3 18 -3 15 -38 -2 -29 1 -44 14 -55 16 -13 17 -11 10 21 -6 34 -4 32
74 -48 80 -82 110 -99 110 -63 0 10 10 26 23 34 21 13 31 13 83 1 32 -7 66
-11 75 -8 29 8 36 70 25 197 -5 62 -4 87 3 82 6 -3 11 1 11 10 0 11 -5 15 -15
11 -10 -3 -15 1 -15 12 -1 9 -20 52 -43 96 -36 68 -47 80 -79 91 -61 20 -97
25 -104 14 -3 -6 -13 -7 -23 -4 -9 4 -32 9 -52 11 -31 4 -41 0 -65 -26 -21
-21 -35 -28 -53 -25 -13 2 -32 0 -42 -6 -20 -10 -26 -44 -9 -54 15 -9 12 -35
-4 -29 -13 5 -40 -43 -42 -76 -1 -8 -2 -23 -3 -32 0 -10 -9 -18 -18 -19 -10 0
-13 -3 -6 -5 7 -3 17 -21 24 -41 9 -28 9 -37 -2 -44 -7 -4 -17 -5 -21 -3 -4 3
-8 -2 -8 -10 0 -9 -5 -16 -12 -16 -6 0 -4 -8 6 -19 16 -18 16 -25 5 -77 -10
-45 -10 -59 -1 -62 7 -2 12 -9 12 -15 1 -19 37 -57 54 -57 8 0 18 -4 21 -10 9
-15 28 -12 22 4 -4 9 2 13 19 13 13 1 24 -3 24 -8 0 -5 -5 -9 -11 -9 -5 0 -7
-4 -4 -10 3 -5 15 -10 26 -10 10 0 19 -4 19 -9 0 -13 -37 -24 -52 -15 -6 4
-28 6 -49 6 -21 -1 -50 3 -64 8 -20 8 -27 6 -31 -5 -7 -17 -45 -21 -41 -4 1 6
-4 14 -10 16 -7 3 -13 0 -13 -6 0 -18 -25 -13 -45 9 -13 14 -22 17 -35 10 -12
-6 -23 -5 -36 5 -11 8 -36 15 -56 15 -20 0 -40 5 -44 11 -3 6 -19 9 -35 7 -17
-3 -34 1 -40 9 -6 7 -23 13 -38 13 -15 0 -33 6 -39 12 -10 10 -17 10 -31 1
-12 -7 -31 -9 -54 -3 -20 4 -38 6 -41 3 -2 -3 -28 -5 -58 -6 -48 -1 -54 2 -66
25 -9 19 -23 28 -52 33 -45 8 -48 16 -25 80 8 21 10 42 6 45 -4 3 -8 37 -7 76
2 62 6 77 35 122 18 29 37 52 42 52 13 0 11 38 -2 42 -6 2 -11 22 -10 43 1 22
2 62 3 89 1 53 -13 70 -77 100 -53 24 -62 25 -83 5 -13 -11 -35 -19 -58 -19
-24 0 -46 -8 -66 -25 -40 -34 -51 -32 -43 6 6 24 4 30 -6 24 -9 -6 -11 -2 -7
13 8 28 -7 28 -26 0 -14 -19 -14 -23 2 -35 16 -12 16 -14 1 -25 -9 -7 -16 -17
-17 -23 0 -5 -5 -11 -11 -13 -6 -2 -8 3 -5 12 4 11 1 16 -11 16 -13 0 -16 6
-13 25 3 14 1 25 -3 25 -13 0 -11 28 1 35 6 4 17 2 25 -5 18 -15 36 16 29 51
l-5 24 11 -23 c5 -13 15 -22 21 -20 15 5 14 9 -10 48 -13 22 -21 29 -21 18 0
-26 -19 -22 -31 6 -9 18 -21 25 -57 29 -60 7 -112 -2 -106 -17 3 -8 29 -12 71
-12 60 1 68 -2 86 -26 12 -15 18 -30 15 -34 -11 -10 -89 19 -99 37 -8 15 -14
16 -41 7 -32 -11 -32 -11 -10 -26 12 -8 22 -21 22 -28 0 -8 10 -14 24 -14 35
0 56 -10 56 -26 0 -11 -12 -14 -50 -12 -44 3 -50 6 -50 26 0 13 -6 22 -16 22
-10 0 -14 -7 -12 -22 2 -15 -3 -24 -14 -26 -13 -2 -18 3 -18 18 0 17 -4 21
-20 17 -11 -3 -22 -2 -24 2 -7 10 -96 0 -96 -11 0 -6 12 -24 26 -41 18 -22 22
-33 14 -35 -8 -3 -25 9 -39 27 -14 17 -31 31 -37 31 -6 0 -24 -16 -41 -35
l-31 -34 32 -21 c17 -11 27 -20 22 -20 -13 0 24 -40 49 -52 16 -9 18 -8 8 3
-7 7 -13 22 -13 32 0 16 -3 17 -15 7 -16 -13 -20 -3 -9 24 8 21 20 20 55 -5
24 -17 33 -18 44 -9 11 9 15 9 15 1 0 -6 7 -11 16 -11 9 0 27 -9 41 -20 l25
-19 25 47 c14 26 30 50 37 54 6 4 11 12 11 18 0 5 3 10 8 10 4 0 10 0 15 0 13
0 8 -79 -5 -84 -7 -3 -13 -12 -13 -21 0 -17 5 -18 29 -6 9 5 23 6 31 1 11 -7
11 -11 -2 -24 -20 -19 -40 -124 -39 -201 2 -105 3 -110 14 -117 9 -6 9 -8 -1
-8 -16 0 -33 45 -26 65 4 8 1 15 -7 15 -7 0 -10 3 -7 6 9 9 -40 56 -51 49 -6
-3 -13 6 -17 20 -3 14 -15 30 -26 36 -11 6 -17 17 -14 25 3 9 -1 14 -13 14
-10 0 -30 9 -44 20 -14 11 -28 20 -30 20 -3 0 -18 5 -34 12 -15 6 -37 12 -48
12 -13 1 -19 7 -17 18 1 10 -6 19 -19 23 -16 5 -19 12 -15 30 4 15 1 25 -9 29
-8 3 -15 12 -15 21 0 8 -7 15 -15 15 -17 0 -20 -16 -5 -25 6 -4 8 -14 5 -24
-3 -11 4 -26 20 -41 29 -27 23 -47 -8 -25 -29 20 -49 19 -81 -6 -29 -23 -35
-19 -10 6 22 22 9 33 -14 12 -10 -10 -23 -17 -28 -17 -5 1 2 10 15 21 27 22
22 36 -7 20 -32 -17 -35 -13 -13 15 26 32 18 51 -10 23 -22 -22 -48 -17 -29 6
8 10 8 15 0 20 -6 4 -9 14 -6 22 3 8 -1 28 -9 44 -14 26 -14 30 0 35 23 9 18
27 -15 59 -16 16 -30 35 -30 42 0 7 -5 13 -12 13 -6 0 -3 9 7 20 10 11 24 20
32 20 7 0 13 7 13 15 0 8 5 15 10 15 6 0 10 -4 10 -10 0 -5 11 -10 24 -10 17
0 26 7 30 24 7 29 40 37 75 19 22 -11 26 -9 38 15 18 35 33 50 33 33 0 -7 5
-9 11 -6 6 4 8 13 5 21 -4 11 4 13 40 10 45 -3 45 -3 39 22 -3 14 -21 44 -38
66 -66 84 -122 122 -202 137 -47 8 -63 8 -90 -5 -18 -9 -36 -16 -39 -16 -7 0
-63 -38 -83 -57 -7 -6 -16 -13 -20 -15 -25 -10 -73 -86 -73 -114 0 -41 -6 -45
-48 -30 -77 27 -128 29 -173 6 -37 -19 -43 -20 -56 -7 -12 12 -13 19 -4 36 10
18 9 22 -14 31 -14 5 -25 11 -25 14 0 12 31 76 40 81 6 4 8 10 5 15 -3 5 0 19
7 31 10 17 10 23 1 26 -7 3 -13 11 -13 18 0 8 -13 24 -29 37 -15 13 -39 38
-52 56 -19 27 -21 35 -9 42 11 7 11 11 1 24 -7 8 -11 32 -9 53 l3 38 56 -3
c50 -3 57 -1 72 22 21 32 21 46 2 46 -9 0 -18 7 -21 15 -4 8 -12 15 -20 15
-25 0 -144 62 -144 76 0 7 11 25 26 39 14 14 22 29 19 35 -8 13 17 50 33 50 7
0 11 4 8 9 -3 5 -3 23 0 40 5 23 13 33 33 37 55 12 61 16 61 37 0 20 0 20 -15
1 -17 -23 -19 -15 -5 22 6 15 8 40 5 55 l-6 28 -35 -16 c-41 -20 -52 -12 -30
21 9 14 16 34 16 45 0 11 8 25 18 31 15 10 15 11 -3 6 -19 -6 -19 -5 -2 8 14
11 15 15 5 20 -7 3 -3 4 9 2 15 -3 24 2 28 15 7 21 -1 39 -16 39 -10 0 -34
-49 -31 -62 1 -5 -5 -8 -13 -8 -21 0 -19 7 16 62 31 48 47 62 35 32 -4 -10 -1
-14 6 -12 7 3 13 10 13 17 0 7 9 19 19 27 11 7 16 17 11 21 -4 5 -10 2 -12 -4
-3 -7 -8 -13 -13 -13 -4 0 -3 11 3 25 7 14 15 25 19 25 4 0 5 6 2 14 -4 9 10
26 37 45 41 31 78 38 126 25 22 -6 21 -8 -17 -48 -22 -22 -40 -44 -40 -47 0
-4 10 -9 21 -12 l21 -6 -22 -30 c-27 -38 -9 -41 19 -3 12 15 18 19 15 10 -3
-10 -1 -18 5 -18 25 0 9 40 -23 57 -12 7 -15 13 -7 17 6 4 11 2 11 -3 0 -6 5
-11 11 -11 6 0 9 9 6 20 -3 11 -1 17 4 14 14 -8 41 17 35 32 -3 8 0 11 10 7 9
-3 14 2 14 15 0 12 13 29 33 41 17 11 40 29 50 41 18 22 23 50 8 50 -5 0 -19
16 -31 37 -17 29 -18 38 -8 44 9 6 10 9 1 9 -7 0 -10 6 -7 14 3 8 13 12 26 8
14 -3 19 -1 14 6 -10 16 7 15 22 0 8 -8 15 -9 20 -3 4 6 23 11 42 12 l35 2
-25 -14 c-31 -17 -20 -19 31 -4 22 7 39 19 42 31 3 10 11 17 17 16 7 -2 15 3
17 11 4 9 0 11 -15 7 -11 -4 -23 -2 -27 4 -3 6 -10 8 -14 6 -4 -3 -8 1 -8 9 0
13 3 13 17 0 21 -19 36 -20 21 -2 -6 8 -8 16 -5 20 9 9 35 -4 28 -14 -3 -5 2
-9 10 -9 8 0 17 4 21 10 3 5 12 7 19 4 18 -7 29 25 15 42 -17 20 -98 18 -122
-3 -19 -17 -20 -17 -14 0 4 9 2 17 -3 17 -4 0 -11 -13 -15 -29 -3 -16 -13 -32
-22 -35 -27 -11 -29 5 -5 25 13 10 21 23 17 29 -10 16 -747 14 -764 -2 -11
-10 -14 -10 -18 0 -4 9 -281 12 -1339 12 l-1334 0 0 -1065z m2630 1004 c0 -11
-4 -17 -10 -14 -5 3 -10 13 -10 21 0 8 5 14 10 14 6 0 10 -9 10 -21z m830 -19
c0 -5 -8 -10 -17 -10 -15 0 -16 2 -3 10 19 12 20 12 20 0z m-820 -14 c0 -2 3
-12 7 -22 5 -13 3 -16 -10 -11 -10 4 -20 0 -25 -10 -13 -22 -21 -3 -11 25 7
18 39 33 39 18z m856 -16 c0 -11 -4 -20 -8 -20 -4 0 -8 2 -8 4 0 2 -3 11 -6
20 -4 10 -1 16 8 16 7 0 14 -9 14 -20z m-31 0 c3 -6 -4 -10 -17 -10 -18 0 -20
2 -8 10 19 12 18 12 25 0z m-555 -130 c0 -5 -2 -10 -4 -10 -3 0 -8 5 -11 10
-3 6 -1 10 4 10 6 0 11 -4 11 -10z m-50 -20 c0 -5 -5 -10 -11 -10 -5 0 -7 5
-4 10 3 6 8 10 11 10 2 0 4 -4 4 -10z m0 -79 c0 -5 -7 -14 -15 -21 -12 -10
-15 -10 -15 2 0 8 3 18 7 21 9 10 23 9 23 -2z m119 -168 c-19 -32 -53 -84
-117 -179 -7 -11 0 6 14 36 26 54 110 180 120 180 3 0 -5 -17 -17 -37z m14
-98 c-3 -9 -8 -14 -10 -11 -3 3 -2 9 2 15 9 16 15 13 8 -4z m-63 -70 c-7 -9
-15 -13 -17 -11 -7 7 7 26 19 26 6 0 6 -6 -2 -15z m-480 -805 c0 -5 -4 -10
-10 -10 -5 0 -10 5 -10 10 0 6 5 10 10 10 6 0 10 -4 10 -10z m221 -150 c22
-12 64 -47 108 -89 l25 -24 -22 -8 c-30 -11 -28 -17 3 -11 15 2 25 0 25 -7 0
-7 -3 -10 -7 -8 -5 3 -17 1 -28 -4 -19 -8 -19 -8 3 -15 24 -7 30 -24 8 -24 -8
0 -16 -7 -20 -15 -4 -11 1 -15 19 -15 14 0 25 -5 25 -10 0 -18 -29 -23 -46 -9
-14 11 -19 10 -35 -10 -11 -13 -19 -19 -19 -15 0 5 -5 2 -10 -6 -8 -12 -10
-10 -8 9 2 19 -3 26 -22 32 l-25 7 23 7 c26 8 29 27 7 45 -13 11 -14 10 -9 -4
4 -11 1 -16 -10 -16 -9 0 -16 5 -16 10 0 19 -18 10 -25 -12 -6 -18 -8 -20 -12
-7 -4 18 -62 32 -76 19 -9 -8 30 -50 45 -50 4 0 8 -16 8 -35 0 -24 -5 -35 -15
-35 -8 0 -15 5 -15 11 0 6 -6 9 -14 6 -8 -3 -17 -1 -20 6 -2 7 -5 4 -5 -6 -1
-10 -8 -25 -16 -33 -23 -24 -18 -47 15 -66 30 -17 30 -17 20 2 -6 11 -7 20 -2
20 16 0 35 -29 29 -44 -3 -8 1 -20 9 -26 16 -14 19 -35 4 -25 -6 3 -13 -1 -16
-10 -6 -14 -9 -14 -25 4 -11 11 -19 25 -19 31 0 6 -5 8 -10 5 -8 -5 -8 -11 0
-20 7 -9 6 -16 -5 -25 -8 -7 -15 -20 -15 -29 -1 -14 -3 -13 -15 3 -7 10 -18
15 -24 11 -17 -10 -13 -21 15 -36 31 -16 76 -78 67 -92 -3 -5 -12 1 -19 14 -7
13 -15 22 -17 19 -3 -3 -15 4 -28 15 l-24 20 16 -20 c17 -21 22 -55 8 -55 -4
0 -11 5 -14 11 -8 12 -45 -23 -45 -43 1 -8 7 -5 15 6 10 14 18 17 25 10 7 -7
4 -16 -10 -29 -15 -14 -23 -15 -34 -6 -11 10 -16 8 -21 -8 -3 -10 -13 -22 -21
-25 -12 -4 -15 -2 -10 9 5 13 2 14 -15 5 -27 -15 -34 -37 -19 -55 10 -13 10
-19 -4 -33 -9 -10 -16 -24 -16 -30 0 -6 -7 -9 -15 -6 -8 4 -15 1 -15 -5 0 -6
5 -11 11 -11 6 0 8 -7 5 -16 -4 -9 -2 -22 4 -29 8 -10 8 -19 -2 -34 -14 -23
-28 -28 -28 -9 0 6 -9 3 -20 -7 -20 -18 -20 -18 -9 13 6 18 15 35 20 38 17 10
9 53 -13 68 -23 17 -48 6 -48 -20 0 -8 -4 -14 -8 -14 -5 0 -9 -7 -9 -15 0 -8
4 -15 9 -15 4 0 8 7 8 15 0 8 5 15 10 15 20 0 9 -27 -15 -38 -34 -16 -35 -15
-35 8 0 11 -7 20 -15 20 -8 0 -14 6 -12 12 1 7 -8 14 -20 16 -27 4 -34 25 -36
108 -3 85 34 150 109 192 8 4 23 37 33 72 22 77 54 163 62 170 4 3 16 23 28
45 11 22 31 52 43 68 17 20 19 30 10 39 -15 15 -42 -7 -42 -33 0 -11 -4 -19
-10 -19 -5 0 -10 11 -10 25 0 14 -4 25 -10 25 -5 0 -10 -7 -10 -15 0 -8 -4
-15 -10 -15 -13 0 -13 16 0 40 9 18 8 19 -18 14 -24 -5 -30 -2 -35 15 -5 21
-3 21 76 16 45 -4 92 -8 104 -11 17 -3 26 3 37 23 21 42 53 67 99 79 45 11
121 3 158 -16z m-743 6 c29 -8 72 -26 96 -40 31 -18 60 -26 100 -27 44 -2 57
-6 61 -20 4 -10 0 -25 -7 -33 -11 -12 -17 -11 -40 6 -16 11 -28 17 -28 13 0
-12 33 -70 44 -77 8 -6 7 -8 -1 -8 -7 0 -18 10 -24 22 -39 72 -93 106 -127 78
-9 -7 -9 -7 -2 2 15 18 12 24 -12 25 -13 1 -24 7 -26 13 -3 8 -8 7 -18 -1 -18
-15 -18 -30 -1 -23 15 5 44 -23 34 -33 -4 -3 -13 0 -22 7 -18 15 -21 -3 -2
-22 6 -8 21 -24 32 -37 20 -24 20 -24 0 -13 -15 8 -24 7 -36 -4 -12 -11 -22
-12 -43 -4 -42 15 -56 12 -56 -12 0 -16 3 -19 8 -10 5 7 16 10 25 6 21 -8 22
-24 2 -24 -8 0 -15 -6 -16 -12 0 -10 -2 -10 -6 0 -8 20 -72 -56 -66 -78 3 -10
0 -20 -5 -24 -5 -3 -8 -19 -6 -35 4 -33 -13 -52 -27 -30 -5 8 -7 -3 -4 -29 3
-36 1 -42 -16 -42 -10 0 -19 -4 -19 -10 0 -5 7 -10 16 -10 17 0 71 -28 89 -45
49 -48 90 -121 45 -80 -11 10 -20 13 -20 7 0 -6 6 -12 13 -15 6 -2 9 -8 5 -12
-5 -5 -16 -1 -26 8 -20 18 -33 22 -31 10 4 -24 -4 -33 -26 -33 -14 0 -25 5
-25 10 0 6 5 9 11 8 6 -2 14 3 16 10 3 6 -2 12 -11 12 -9 0 -18 -11 -22 -25
-4 -16 -12 -24 -22 -23 -13 2 -16 -5 -13 -34 2 -31 0 -37 -13 -32 -11 4 -19
-2 -26 -21 -13 -35 -13 -35 7 -28 12 5 14 3 8 -8 -16 -28 -38 -48 -46 -43 -4
2 -11 -11 -15 -31 -6 -36 -18 -45 -28 -22 -3 6 -3 1 1 -13 5 -22 4 -23 -10
-11 -14 11 -18 11 -23 -3 -3 -9 -10 -16 -14 -16 -4 0 -27 39 -51 88 -24 48
-47 89 -51 90 -5 2 -8 10 -8 18 0 8 -5 23 -12 33 -9 15 -9 28 0 59 15 50 51
85 116 115 l52 24 14 72 c7 39 17 71 21 71 4 0 12 39 18 88 7 48 18 110 25
137 8 28 14 61 14 75 2 40 38 60 112 60 36 0 89 -7 118 -14z m-353 -67 c-4 -6
-17 -14 -29 -19 -19 -8 -19 -9 -2 -9 11 -1 30 9 43 21 25 24 44 18 23 -7 -21
-25 -67 -45 -87 -38 -10 3 -29 15 -41 27 l-24 21 54 6 c29 3 57 6 61 7 5 1 5
-3 2 -9z m-221 -26 c-5 -17 -5 -17 9 0 19 23 72 22 97 -3 40 -40 15 -94 -29
-61 -21 16 -22 19 -6 34 13 14 14 17 2 17 -8 0 -20 -7 -27 -15 -11 -13 -16
-14 -34 -1 -12 7 -31 16 -41 18 -18 5 -18 6 5 16 14 6 26 11 27 11 1 1 0 -7
-3 -16z m276 -7 c0 -8 -13 -23 -30 -32 -16 -10 -32 -24 -35 -31 -3 -11 1 -10
17 2 26 18 42 20 32 4 -4 -7 -7 -24 -8 -38 -1 -22 -7 -27 -39 -32 -34 -5 -38
-4 -34 12 3 11 2 19 -3 19 -4 0 -10 8 -13 18 -2 9 -8 25 -12 34 -6 15 -3 17
21 12 21 -4 39 1 64 19 43 31 40 30 40 13z m430 4 c0 -5 -10 -10 -22 -10 -19
0 -20 2 -8 10 19 13 30 13 30 0z m-775 -21 c28 -7 52 -15 55 -19 3 -4 23 -17
45 -28 50 -25 111 -87 96 -96 -6 -4 -11 -2 -11 4 0 8 -11 9 -31 5 -29 -7 -31
-5 -26 14 6 25 -8 28 -22 4 -5 -10 -13 -15 -17 -11 -4 4 -1 14 6 23 8 10 9 15
2 15 -6 0 -9 7 -5 16 5 14 -1 16 -40 13 -26 -2 -47 -1 -47 3 0 5 -5 8 -11 8
-5 0 -7 -5 -4 -11 4 -6 -1 -17 -11 -24 -18 -14 -18 -14 1 -15 l20 -1 -20 -9
c-13 -5 -26 -3 -36 7 -14 11 -18 12 -21 1 -4 -11 -8 -11 -21 0 -9 8 -13 20
-10 28 7 18 -8 18 -33 -1 -19 -14 -19 -14 1 -15 18 -1 18 -2 -4 -14 -26 -14
-13 -33 16 -22 9 4 20 2 23 -5 4 -6 23 -11 43 -12 31 -1 33 -3 23 -19 -12 -20
-26 -24 -26 -8 0 6 -4 10 -10 10 -5 0 -10 -7 -10 -15 0 -8 5 -15 10 -15 6 0
10 -7 10 -15 0 -8 5 -15 10 -15 6 0 10 7 10 15 0 13 4 14 20 5 11 -6 20 -18
19 -28 0 -10 -3 -12 -6 -4 -6 14 -33 16 -33 2 0 -18 -28 1 -34 23 -7 29 -20
13 -22 -29 -1 -30 2 -34 20 -29 15 5 17 4 7 -3 -11 -8 -11 -11 0 -18 7 -4 14
-3 17 4 2 8 10 8 28 0 37 -17 28 -28 -20 -23 -33 3 -46 1 -50 -10 -7 -19 -26
-19 -26 0 0 8 -4 15 -9 15 -11 0 -7 -60 5 -69 14 -9 18 -75 5 -66 -6 3 -9 11
-6 16 4 5 -1 9 -9 9 -9 0 -17 8 -18 18 0 9 -2 23 -2 31 -1 8 -12 18 -26 24
-15 5 -20 11 -12 14 19 7 14 23 -8 23 -14 0 -20 7 -20 21 0 11 -4 17 -10 14
-5 -3 -10 1 -10 9 0 9 -5 16 -10 16 -6 0 -29 20 -53 44 -23 25 -55 51 -70 59
l-27 14 20 26 c42 54 247 126 315 111 11 -2 43 -9 70 -15z m1055 -28 c0 -12
-20 -25 -27 -18 -7 7 6 27 18 27 5 0 9 -4 9 -9z m-146 -27 c3 -8 2 -12 -4 -9
-6 3 -10 10 -10 16 0 14 7 11 14 -7z m1000 -14 c6 -6 16 -10 23 -10 17 0 109
-60 158 -103 39 -35 39 -36 20 -50 -11 -9 -22 -13 -25 -10 -3 3 1 8 8 10 6 3
12 9 12 15 0 6 -7 7 -16 4 -12 -4 -15 -2 -10 9 3 8 2 14 -2 13 -14 -3 -60 21
-64 34 -4 10 -8 10 -20 1 -11 -10 -17 -10 -27 0 -9 9 -14 9 -21 -3 -8 -13 -13
-13 -31 -2 -18 11 -24 11 -38 -2 -22 -20 -31 -20 -31 -1 0 9 -6 12 -16 8 -15
-5 -15 -7 0 -15 22 -12 20 -25 -5 -31 -12 -3 -18 -10 -14 -16 3 -6 -1 -21 -9
-33 -9 -12 -13 -31 -10 -45 4 -14 2 -23 -5 -23 -6 0 -11 8 -11 18 0 11 -7 5
-21 -17 -11 -19 -18 -42 -16 -53 3 -10 1 -16 -4 -12 -5 3 -9 12 -9 20 0 27
-18 14 -25 -18 -9 -38 -31 -65 -38 -45 -2 6 -7 -3 -12 -22 -6 -30 -10 -33 -36
-27 -15 3 -31 1 -34 -4 -3 -6 3 -10 15 -10 53 0 210 -107 210 -143 0 -8 -3 -9
-8 -1 -4 6 -21 18 -39 26 -27 13 -33 14 -37 2 -3 -8 -15 -14 -26 -14 -11 0
-20 -7 -20 -15 0 -18 21 -20 38 -3 9 9 12 8 12 -4 0 -9 -10 -18 -23 -20 -24
-5 -47 12 -47 34 0 7 -12 14 -27 15 -22 1 -24 -1 -10 -8 22 -13 22 -32 -3 -54
-10 -9 -19 -25 -18 -34 1 -9 0 -27 -1 -41 -1 -20 -3 -22 -11 -10 -8 12 -10 10
-10 -8 0 -14 -4 -21 -11 -17 -6 4 -20 -2 -32 -12 -41 -37 -52 -36 -18 0 29 31
32 37 17 43 -13 5 -14 9 -5 20 9 11 9 14 0 14 -6 0 -16 -12 -21 -26 -6 -14
-14 -23 -19 -20 -5 3 -14 -1 -20 -8 -9 -10 -9 -16 -1 -21 8 -5 5 -12 -7 -21
-16 -13 -16 -14 0 -8 19 7 20 4 11 -20 -3 -9 -14 -16 -23 -16 -9 0 -23 -6 -30
-12 -10 -11 -14 -10 -22 4 -8 14 -14 15 -34 6 -13 -6 -22 -15 -19 -19 3 -5 0
-17 -6 -28 -7 -15 -6 -23 5 -35 8 -8 15 -18 15 -21 0 -4 11 -20 25 -37 14 -16
25 -35 25 -41 -1 -7 -13 2 -28 20 -20 23 -38 33 -69 37 -34 4 -41 2 -36 -10 3
-10 0 -12 -10 -8 -16 6 -39 -25 -36 -49 4 -30 -2 -47 -17 -47 -10 0 -14 -5
-10 -16 3 -8 -3 -24 -13 -36 -11 -11 -17 -26 -15 -33 3 -6 -11 -26 -30 -43
l-35 -31 14 -68 c16 -73 11 -122 -14 -164 -27 -44 -74 -99 -85 -99 -5 0 2 12
16 28 49 52 96 152 72 152 -11 0 -74 -68 -74 -80 0 -5 -4 -10 -10 -10 -15 0
-50 -33 -50 -47 0 -7 -4 -13 -10 -13 -5 0 -10 -7 -10 -15 0 -8 -5 -15 -10 -15
-6 0 -26 -16 -46 -35 -44 -44 -58 -45 -49 -2 5 23 4 29 -4 22 -6 -6 -12 -21
-14 -35 -4 -27 -25 -39 -37 -20 -9 14 -30 5 -30 -12 0 -7 23 -9 73 -4 49 4 67
3 57 -4 -24 -16 -183 -63 -212 -63 -15 0 -25 -4 -22 -9 3 -4 13 -8 22 -8 37 0
91 -21 86 -33 -2 -7 7 -20 21 -27 21 -11 26 -20 22 -43 -2 -15 0 -30 5 -33 11
-7 -10 -34 -27 -34 -18 0 -42 -31 -51 -65 -7 -27 -6 -29 9 -16 10 7 17 9 17 4
0 -15 -77 -73 -97 -73 -45 0 -92 -71 -61 -91 15 -10 -41 -9 -57 0 -17 10 -45
7 -53 -6 -6 -9 -15 -6 -34 10 -14 12 -34 27 -43 32 -10 6 -20 35 -26 76 -9 62
-8 71 16 130 32 76 77 144 102 154 26 10 -61 43 -135 51 -42 5 -69 16 -105 40
-26 19 -53 34 -61 34 -24 0 -73 69 -92 128 -10 34 -18 88 -18 132 0 62 5 85
28 130 15 30 34 59 42 63 8 4 14 13 14 20 0 7 -18 -7 -40 -31 -22 -24 -40 -47
-40 -52 0 -6 -7 -10 -15 -10 -18 0 -20 17 -2 23 6 2 9 8 4 12 -4 5 -13 0 -21
-10 -12 -16 -16 -17 -30 -6 -14 11 -16 11 -16 -3 0 -9 5 -16 10 -16 6 0 10 -8
10 -17 0 -13 -3 -14 -12 -5 -17 17 -26 15 -31 -5 -4 -14 -5 -13 -6 4 -1 29
-21 40 -21 13 0 -16 -5 -20 -15 -16 -9 3 -15 0 -15 -9 0 -8 -6 -15 -14 -15
-23 0 -29 -19 -9 -27 10 -4 24 -13 31 -20 7 -7 19 -13 26 -13 16 0 99 -80 91
-88 -3 -4 -10 0 -16 8 -8 13 -10 13 -19 0 -5 -8 -7 -24 -4 -35 5 -16 4 -18 -7
-8 -18 18 -49 16 -49 -2 0 -8 -7 -15 -15 -15 -8 0 -15 7 -15 15 0 18 -1 18
-33 2 -19 -10 -23 -17 -15 -30 10 -19 8 -20 -37 -18 l-30 1 25 -12 25 -13 -22
-22 c-13 -12 -23 -18 -23 -13 0 17 -22 11 -41 -12 -11 -11 -19 -31 -19 -44 0
-17 -10 -27 -40 -40 -22 -10 -40 -23 -40 -28 0 -6 -5 -4 -10 4 -6 9 -10 11
-10 3 0 -7 -7 -10 -15 -7 -8 4 -15 12 -15 19 0 7 -7 16 -16 19 -8 3 -12 2 -9
-4 9 -15 0 -12 -38 10 -55 33 -59 105 -11 202 52 103 107 141 223 154 33 3 61
11 61 15 0 5 -6 9 -12 9 -19 1 -64 70 -77 117 -6 23 -9 55 -5 70 6 26 60 93
75 93 7 0 112 62 132 78 13 11 104 0 167 -20 42 -12 140 -75 140 -89 0 -18 16
-9 39 22 14 19 23 45 23 67 0 22 10 50 24 71 13 20 24 39 24 44 0 19 68 91
107 114 24 14 66 27 97 30 47 5 63 2 108 -21 87 -43 176 -139 147 -157 -21
-13 -29 -11 -29 7 0 8 5 12 10 9 11 -7 14 8 3 18 -3 4 -15 -5 -25 -20 -10 -16
-18 -22 -18 -15 0 6 -6 12 -14 12 -8 0 -17 -6 -20 -12 -5 -10 -7 -10 -12 0 -6
13 -54 17 -54 4 0 -5 -12 -13 -27 -20 l-28 -12 30 4 c42 6 127 -13 154 -33 25
-19 21 -41 -12 -57 -71 -36 -89 -48 -103 -69 -17 -27 -9 -55 17 -55 10 0 19
-7 19 -15 0 -8 4 -15 10 -15 5 0 25 -14 44 -31 19 -16 39 -31 43 -31 16 -3 43
-47 33 -53 -5 -3 -10 -1 -10 5 0 14 -25 40 -37 40 -5 0 -24 12 -42 28 -19 15
-39 27 -45 27 -21 1 -57 26 -51 36 4 5 1 9 -4 9 -6 0 -11 -4 -11 -10 0 -5 -7
-10 -16 -10 -10 0 -14 6 -10 15 6 17 -11 20 -34 5 -13 -8 -12 -10 3 -10 10 0
20 -7 23 -15 4 -8 10 -12 15 -9 6 3 7 -5 3 -20 -4 -18 -2 -26 7 -26 9 0 6 -5
-5 -12 -15 -8 -21 -8 -24 0 -2 7 -12 12 -23 12 -22 0 -24 11 -7 28 7 7 8 12 3
12 -6 0 -24 -17 -41 -37 -22 -26 -39 -37 -59 -38 -35 0 -42 -18 -16 -42 22
-21 48 -79 30 -68 -6 4 -14 17 -19 29 -8 20 -9 20 -9 1 -1 -11 10 -37 24 -57
14 -20 25 -42 25 -47 0 -18 44 -41 81 -42 18 -1 58 2 88 6 52 8 53 7 40 -12
-13 -21 -20 -23 -96 -26 -44 -1 -55 -10 -27 -21 10 -4 14 -12 10 -22 -5 -14
-4 -15 8 -5 11 9 15 9 18 0 2 -7 15 -4 38 10 19 11 44 21 56 21 20 0 44 17 44
32 0 4 -7 8 -15 8 -21 0 -19 31 3 37 22 6 72 75 72 102 0 43 39 32 44 -12 4
-35 8 -39 50 -43 19 -2 47 -11 61 -20 23 -15 25 -15 19 0 -3 9 -12 16 -20 16
-8 0 -14 5 -14 10 0 6 7 10 16 10 10 0 14 5 10 15 -4 11 0 15 11 13 10 -2 19
5 21 15 2 10 -3 17 -12 17 -9 0 -16 4 -16 10 0 5 -12 7 -27 4 -16 -3 -39 -1
-53 5 -14 5 -19 10 -11 10 53 3 206 104 233 154 10 19 8 19 -21 -2 -17 -12
-31 -27 -31 -33 0 -6 -11 -8 -27 -4 -19 4 -23 4 -14 -3 11 -7 10 -11 -7 -20
-29 -15 -35 -14 -27 7 5 14 4 15 -6 5 -7 -7 -22 -13 -33 -13 -12 0 6 14 43 33
76 38 152 109 140 129 -7 11 -11 10 -19 -2 -5 -8 -10 -10 -10 -5 0 6 4 15 9
20 4 6 11 24 14 42 6 29 4 32 -23 38 -16 4 -49 6 -72 5 -67 -3 -67 -1 2 30 41
19 78 29 102 28 20 -1 40 1 45 5 11 11 43 119 43 145 0 32 80 134 138 177 26
19 52 39 58 44 7 6 15 7 19 3 4 -4 2 3 -4 16 -11 21 -8 29 31 80 24 31 61 75
83 97 22 22 57 67 78 100 67 106 95 140 123 151 31 13 93 9 108 -6z m-2385
-37 c6 -16 15 -38 21 -50 6 -16 6 -23 -1 -23 -6 0 -13 9 -16 21 -5 17 -11 20
-37 15 -38 -8 -71 -8 -111 -2 -44 7 -85 -4 -85 -23 -1 -14 -2 -14 -14 2 -8 10
-17 14 -20 9 -6 -10 14 -22 48 -29 11 -2 24 -7 30 -12 6 -4 24 -11 40 -15 22
-5 26 -10 16 -16 -7 -4 -19 -6 -27 -3 -7 3 -13 0 -13 -7 0 -9 11 -11 40 -6 25
4 40 2 40 -4 0 -9 -22 -15 -43 -11 -4 1 -22 -12 -39 -28 -30 -28 -48 -32 -48
-10 0 5 6 9 14 9 21 0 30 20 17 33 -8 8 -11 8 -11 -2 0 -8 -6 -11 -16 -7 -9 3
-12 2 -9 -5 9 -14 -14 -39 -31 -32 -8 3 -14 0 -14 -6 0 -6 -10 -10 -22 -8 -16
1 -23 -3 -22 -15 1 -10 -4 -14 -12 -11 -19 7 -18 12 14 42 33 32 39 67 12 74
-20 5 -40 -10 -37 -28 1 -5 -12 -17 -29 -25 -18 -9 -29 -21 -26 -29 3 -10 -2
-12 -18 -8 -13 3 -33 -1 -46 -10 -13 -8 -24 -11 -25 -7 0 5 -4 -1 -10 -14 -6
-15 -13 -21 -21 -15 -7 4 -20 8 -28 9 -8 1 -26 2 -39 3 -22 1 -23 4 -19 46 7
59 47 116 109 155 47 31 53 32 211 40 90 5 179 13 198 19 57 15 67 13 79 -16z
m1371 0 c0 -19 -13 -9 -16 12 -1 8 2 13 7 9 5 -3 9 -12 9 -21z m1377 -10 c-9
-9 -19 -14 -23 -11 -10 10 6 28 24 28 15 0 15 -1 -1 -17z m-2187 -27 c0 -3 -4
-8 -10 -11 -5 -3 -10 -1 -10 4 0 6 5 11 10 11 6 0 10 -2 10 -4z m1820 -35 c0
-5 -7 -11 -15 -15 -15 -5 -20 5 -8 17 9 10 23 9 23 -2z m-515 -20 c-3 -6 -11
-11 -17 -11 -6 0 -6 6 2 15 14 17 26 13 15 -4z m-1370 -1 c3 -5 2 -10 -4 -10
-5 0 -13 5 -16 10 -3 6 -2 10 4 10 5 0 13 -4 16 -10z m102 -16 c-9 -9 -28 6
-21 18 4 6 10 6 17 -1 6 -6 8 -13 4 -17z m1133 7 c0 -12 -20 -25 -27 -18 -7 7
6 27 18 27 5 0 9 -4 9 -9z m680 -1 c0 -5 -5 -10 -11 -10 -5 0 -7 5 -4 10 3 6
8 10 11 10 2 0 4 -4 4 -10z m-70 -6 c0 -3 -7 -12 -15 -20 -12 -13 -15 -13 -15
-1 0 7 3 17 7 20 8 8 23 9 23 1z m-2395 -14 c3 -6 -1 -7 -9 -4 -18 7 -21 14
-7 14 6 0 13 -4 16 -10z m575 0 c0 -5 -4 -10 -10 -10 -5 0 -10 5 -10 10 0 6 5
10 10 10 6 0 10 -4 10 -10z m1360 -10 c0 -5 -2 -10 -4 -10 -3 0 -8 5 -11 10
-3 6 -1 10 4 10 6 0 11 -4 11 -10z m470 -38 c0 -15 -2 -15 -10 -2 -13 20 -13
33 0 25 6 -3 10 -14 10 -23z m255 18 c3 -5 1 -10 -4 -10 -6 0 -11 5 -11 10 0
6 2 10 4 10 3 0 8 -4 11 -10z m-285 -21 c0 -6 -4 -7 -10 -4 -5 3 -10 11 -10
16 0 6 5 7 10 4 6 -3 10 -11 10 -16z m240 -12 c0 -5 -4 -5 -10 -2 -5 3 -10 14
-10 23 0 15 2 15 10 2 5 -8 10 -19 10 -23z m-2660 13 c0 -5 -7 -10 -16 -10 -8
0 -12 5 -9 10 3 6 10 10 16 10 5 0 9 -4 9 -10z m705 -10 c3 -5 -1 -10 -10 -10
-9 0 -13 5 -10 10 3 6 8 10 10 10 2 0 7 -4 10 -10z m-978 -42 c-3 -8 -6 -5 -6
6 -1 11 2 17 5 13 3 -3 4 -12 1 -19z m237 7 c-4 -8 -8 -15 -10 -15 -2 0 -4 7
-4 15 0 8 4 15 10 15 5 0 7 -7 4 -15z m3235 -10 c43 -13 93 -36 88 -41 -8 -8
-147 37 -147 48 0 5 8 7 18 4 9 -2 28 -8 41 -11z m-2559 -4 c0 -12 -20 -25
-27 -18 -7 7 6 27 18 27 5 0 9 -4 9 -9z m-828 -23 c-7 -7 -12 -8 -12 -2 0 14
12 26 19 19 2 -3 -1 -11 -7 -17z m65 16 c-3 -3 -12 -4 -19 -1 -8 3 -5 6 6 6
11 1 17 -2 13 -5z m1203 2 c0 -3 -4 -8 -10 -11 -5 -3 -10 -1 -10 4 0 6 5 11
10 11 6 0 10 -2 10 -4z m1270 -6 c0 -5 -8 -10 -17 -10 -15 0 -16 2 -3 10 19
12 20 12 20 0z m-2630 -10 c0 -5 -4 -10 -10 -10 -5 0 -10 5 -10 10 0 6 5 10
10 10 6 0 10 -4 10 -10z m190 0 c0 -5 -4 -10 -10 -10 -5 0 -10 5 -10 10 0 6 5
10 10 10 6 0 10 -4 10 -10z m139 8 c-2 -2 -19 -16 -37 -33 l-34 -30 4 25 c2
16 12 27 28 31 27 7 46 11 39 7z m-259 -38 c0 -5 -5 -10 -11 -10 -5 0 -7 5 -4
10 3 6 8 10 11 10 2 0 4 -4 4 -10z m715 -10 c3 -5 1 -10 -4 -10 -6 0 -11 5
-11 10 0 6 2 10 4 10 3 0 8 -4 11 -10z m5201 0 c20 0 17 -27 -5 -47 -11 -9
-17 -21 -14 -26 3 -5 -4 -6 -16 -2 -15 5 -21 2 -21 -9 0 -19 -50 -22 -81 -6
-21 12 -26 32 -6 29 40 -5 57 2 57 24 0 23 34 47 58 41 8 -2 20 -4 28 -4z
m-5746 -40 c0 -5 -2 -10 -4 -10 -3 0 -8 5 -11 10 -3 6 -1 10 4 10 6 0 11 -4
11 -10z m-450 -30 c0 -5 -4 -10 -10 -10 -5 0 -10 5 -10 10 0 6 5 10 10 10 6 0
10 -4 10 -10z m960 -16 c8 -8 27 -24 43 -35 15 -11 27 -29 27 -40 0 -10 4 -19
9 -19 5 0 12 -12 15 -26 6 -21 11 -24 29 -18 19 6 20 5 9 -9 -11 -12 -9 -18
11 -34 l24 -19 -23 -11 c-27 -12 -39 -6 -23 14 9 9 8 13 0 13 -6 0 -10 5 -8
11 1 6 -8 18 -20 26 -21 14 -23 14 -23 -4 0 -11 -3 -22 -6 -26 -10 -10 -45 29
-47 52 -1 11 -4 21 -8 21 -19 0 -39 -14 -39 -26 0 -8 -10 -14 -22 -14 -33 0
-60 -28 -47 -52 13 -23 32 -13 24 13 -4 13 -2 19 8 19 10 0 13 -7 10 -20 -3
-11 0 -20 6 -20 6 0 11 -7 11 -15 0 -8 5 -15 10 -15 6 0 10 5 10 10 0 6 5 10
10 10 6 0 5 -8 -2 -20 -13 -20 -38 -28 -38 -11 0 5 -7 12 -16 15 -13 5 -15 2
-11 -14 3 -13 -1 -24 -13 -30 -27 -14 -34 -12 -20 5 14 17 8 18 -39 9 -27 -6
-29 -8 -15 -18 13 -10 10 -15 -25 -31 -22 -11 -41 -25 -41 -32 0 -7 -7 -10
-15 -7 -8 4 -15 1 -15 -5 0 -6 -7 -11 -15 -11 -22 0 -18 14 7 25 24 10 38 45
19 45 -6 0 -11 -7 -11 -15 0 -8 -9 -15 -20 -15 -11 0 -19 3 -19 8 3 17 -2 32
-10 32 -6 0 -6 -12 -1 -30 12 -41 -8 -39 -37 3 -28 41 -28 48 -2 122 45 128
94 190 161 205 50 11 171 0 188 -16z m40 16 c0 -5 -4 -10 -9 -10 -6 0 -13 5
-16 10 -3 6 1 10 9 10 9 0 16 -4 16 -10z m1274 -16 c3 -8 2 -12 -4 -9 -6 3
-10 10 -10 16 0 14 7 11 14 -7z m4007 -10 c7 -9 13 -31 13 -50 0 -26 4 -34 15
-32 9 2 16 11 16 21 0 28 19 23 30 -9 6 -16 18 -37 28 -46 9 -10 17 -22 17
-28 0 -17 -18 -11 -33 10 -8 11 -17 17 -20 13 -13 -12 -7 -51 8 -57 20 -7 19
-26 -1 -26 -27 0 -94 61 -94 87 0 23 -23 32 -35 13 -12 -20 -25 -9 -25 20 0
23 -6 33 -25 42 -36 16 -28 42 15 49 60 11 77 9 91 -7z m-3281 2 c0 -3 -4 -8
-10 -11 -5 -3 -10 -1 -10 4 0 6 5 11 10 11 6 0 10 -2 10 -4z m2260 -44 c0 -15
-2 -15 -10 -2 -13 20 -13 33 0 25 6 -3 10 -14 10 -23z m-3560 -41 c0 -25 -18
1 -25 34 l-6 30 15 -25 c8 -14 15 -32 16 -39z m588 29 c7 -11 9 -20 4 -20 -10
0 -32 22 -32 32 0 15 15 8 28 -12z m2950 -28 c-8 -9 -7 -11 6 -6 23 9 20 -11
-6 -40 -25 -26 -68 -44 -68 -27 0 5 11 23 25 39 25 30 34 59 15 47 -14 -9 -13
8 2 23 16 16 41 -17 26 -36z m-3708 18 c0 -5 -5 -10 -11 -10 -5 0 -7 5 -4 10
3 6 8 10 11 10 2 0 4 -4 4 -10z m2085 -6 c18 -8 36 -22 39 -30 5 -12 2 -12
-15 -3 -17 9 -20 8 -14 -2 6 -9 3 -11 -9 -6 -12 5 -20 -1 -28 -21 -6 -15 -10
-33 -9 -39 1 -7 -3 -13 -9 -13 -6 0 -8 5 -5 10 8 12 5 12 -31 0 -42 -15 -56
-41 -42 -78 9 -24 9 -34 -2 -46 -15 -19 -23 -14 -26 17 -8 74 -11 87 -17 93
-4 4 -7 -1 -7 -10 0 -12 -5 -16 -15 -12 -20 7 -19 -4 1 -18 13 -10 9 -18 -31
-59 -53 -53 -64 -58 -58 -22 4 17 11 24 26 22 11 -1 21 3 23 8 5 13 -58 13
-72 0 -6 -6 -9 -16 -6 -24 3 -8 0 -11 -6 -7 -5 3 -12 -1 -16 -9 -3 -8 -10 -15
-16 -15 -6 0 -8 5 -5 10 9 14 -19 12 -33 -2 -9 -9 -15 -9 -24 3 -7 8 -25 20
-40 27 -23 9 -26 9 -21 -3 3 -8 0 -15 -6 -15 -6 0 -11 7 -11 15 0 8 -11 17
-25 21 -26 7 -34 28 -12 38 9 5 9 7 -1 12 -18 8 80 59 157 80 33 10 61 21 61
26 0 4 16 8 36 8 40 0 121 17 146 31 10 5 27 9 37 9 11 0 23 5 26 10 9 14 22
13 60 -6z m-3589 -19 c-1 -8 -7 -20 -13 -26 -7 -7 -12 -3 -15 15 -4 20 -1 26
13 26 10 0 16 -6 15 -15z m1534 -5 c0 -5 -5 -10 -11 -10 -5 0 -7 5 -4 10 3 6
8 10 11 10 2 0 4 -4 4 -10z m600 -24 c0 -3 -4 -8 -10 -11 -5 -3 -10 -1 -10 4
0 6 5 11 10 11 6 0 10 -2 10 -4z m655 -6 c3 -5 1 -10 -4 -10 -6 0 -11 5 -11
10 0 6 2 10 4 10 3 0 8 -4 11 -10z m-2785 -48 c0 -15 -2 -15 -10 -2 -13 20
-13 33 0 25 6 -3 10 -14 10 -23z m3614 2 c9 -22 -3 -32 -15 -14 -8 12 -9 12
-7 -4 2 -10 -3 -21 -9 -23 -17 -6 -17 29 -1 45 16 16 25 15 32 -4z m-2657 -10
c4 -11 13 -14 29 -10 17 5 24 2 24 -9 0 -8 7 -15 15 -15 8 0 15 -5 15 -10 0
-7 -6 -7 -19 0 -11 5 -30 10 -43 10 -20 0 -58 30 -58 45 0 13 31 3 37 -11z
m4267 -53 c4 -29 0 -44 -30 -89 -4 -6 -44 38 -44 48 0 5 6 7 14 4 7 -3 16 2
19 10 4 9 3 16 -2 16 -10 0 -23 59 -15 71 10 17 52 -26 58 -60z m-1244 44 c0
-8 -4 -15 -10 -15 -14 0 -32 -40 -26 -57 5 -11 10 -12 19 -5 7 6 18 8 24 4 10
-7 53 -77 53 -87 0 -13 -22 -2 -45 22 -31 34 -34 14 -2 -22 19 -23 26 -25 49
-16 14 5 29 19 33 30 3 12 10 21 14 21 21 0 67 -88 73 -140 2 -18 11 -27 36
-35 35 -10 37 -13 22 -35 -9 -13 -12 -13 -24 3 -15 20 -47 22 -65 5 -10 -11
-15 -9 -26 6 -9 11 -26 18 -48 18 -26 0 -36 5 -40 19 -3 13 -14 19 -31 19 -15
0 -29 7 -32 15 -4 9 -15 20 -25 26 -16 8 -17 7 -11 -8 4 -10 25 -45 47 -77 27
-41 35 -61 26 -64 -8 -3 1 -17 25 -38 20 -19 35 -36 32 -39 -5 -6 -78 46 -78
56 0 4 -12 21 -26 38 -17 21 -23 37 -19 51 10 30 -4 24 -16 -7 -9 -24 -7 -30
11 -45 16 -13 18 -18 8 -18 -8 0 -29 -13 -46 -30 -18 -16 -37 -30 -43 -30 -16
0 -41 28 -35 39 4 5 0 11 -6 14 -7 2 -1 8 15 12 42 11 35 35 -10 31 -29 -3
-46 -13 -72 -42 l-34 -39 7 38 c6 34 5 37 -16 37 -19 0 -20 -2 -8 -10 9 -6 11
-13 5 -17 -23 -18 -7 -62 23 -63 6 0 12 7 12 15 0 22 17 18 23 -4 6 -24 -10
-31 -70 -31 -37 0 -50 -5 -73 -30 -33 -35 -34 -67 -1 -62 11 2 21 -1 21 -6 0
-16 -22 -29 -67 -41 -24 -7 -43 -17 -43 -24 0 -8 -3 -8 -9 2 -5 7 -14 10 -20
7 -6 -4 -11 -4 -10 1 4 22 -3 22 -28 -2 -29 -26 -44 -28 -51 -7 -2 7 2 10 11
6 19 -7 28 7 20 34 -4 18 -8 20 -19 11 -11 -9 -14 -8 -14 5 0 9 6 16 13 17 10
0 10 2 0 6 -16 6 -17 33 -1 33 6 0 4 6 -5 13 -15 11 -15 15 -2 41 18 34 19 50
3 40 -7 -4 -8 -3 -4 4 14 23 139 85 237 118 100 34 166 41 203 22 13 -7 23 -5
35 7 15 16 15 17 -6 6 -19 -10 -23 -9 -23 3 0 9 -7 12 -20 9 -21 -5 -28 11
-10 22 17 11 11 37 -10 42 -12 3 -19 11 -17 17 4 13 45 17 53 5 3 -5 18 -9 35
-9 21 0 29 5 30 18 2 56 21 112 51 150 14 17 28 15 28 -3z m2324 -47 c-10 -16
-34 -8 -50 17 -25 38 -7 51 27 19 15 -15 26 -31 23 -36z m194 56 c13 -4 21
-11 19 -17 -4 -13 -47 -17 -47 -5 0 5 -4 6 -10 3 -6 -3 -7 1 -4 9 7 18 9 18
42 10z m-2988 -18 c0 -3 -4 -8 -10 -11 -5 -3 -10 -1 -10 4 0 6 5 11 10 11 6 0
10 -2 10 -4z m550 -22 c0 -8 -4 -14 -10 -14 -5 0 -10 9 -10 21 0 11 5 17 10
14 6 -3 10 -13 10 -21z m2770 17 c0 -26 -15 -41 -40 -41 -16 0 -30 -7 -34 -15
-7 -18 -39 -20 -34 -2 2 6 21 20 41 30 20 10 37 23 37 28 0 5 7 9 15 9 8 0 15
-4 15 -9z m-6950 -11 c0 -5 -7 -10 -15 -10 -8 0 -15 5 -15 10 0 6 7 10 15 10
8 0 15 -4 15 -10z m4181 -35 c5 4 14 -6 20 -22 7 -19 7 -29 0 -31 -6 -2 -11
-10 -11 -18 0 -9 -4 -12 -10 -9 -5 3 -10 15 -10 26 0 10 -6 19 -14 19 -8 0
-22 10 -30 21 -9 13 -21 19 -30 16 -19 -8 -20 -1 -4 17 10 11 18 10 46 -6 18
-10 38 -16 43 -13z m-3594 -5 c40 -18 143 -109 143 -127 0 -4 -5 -2 -12 5 -7
7 -20 12 -31 12 -10 0 -25 7 -33 15 -9 8 -22 15 -31 15 -13 0 -13 -3 -2 -16
10 -12 4 -11 -23 4 l-36 20 -19 -21 c-19 -22 -21 -50 -9 -119 3 -16 1 -28 -4
-28 -6 0 -10 5 -10 11 0 8 -11 9 -32 5 -29 -5 -31 -4 -15 8 21 16 22 26 2 26
-8 0 -14 6 -12 13 1 6 -5 12 -13 12 -8 0 -16 -8 -18 -19 -3 -11 0 -16 7 -12
15 10 14 -17 -1 -33 -10 -11 -10 -13 0 -7 7 4 12 1 12 -8 0 -15 -11 -20 -37
-17 -7 1 -13 -3 -13 -9 0 -5 -7 -10 -16 -10 -13 0 -14 -3 -5 -14 10 -11 8 -16
-8 -21 -14 -4 -21 -15 -21 -30 0 -20 6 -25 38 -30 66 -11 191 -65 267 -115 22
-14 64 -36 93 -50 65 -29 68 -48 7 -46 -25 0 -45 4 -45 8 0 5 -7 8 -16 8 -8 0
-12 5 -9 10 3 6 0 10 -7 10 -10 0 -10 2 -1 8 8 5 -8 8 -37 9 -28 0 -50 -4 -50
-9 0 -6 10 -8 23 -5 12 3 31 -1 42 -10 19 -14 17 -15 -28 -10 -26 2 -50 7 -53
10 -8 8 19 47 33 47 7 0 13 5 13 11 0 6 -15 2 -34 -9 -21 -13 -38 -17 -47 -11
-20 13 -69 11 -69 -2 0 -8 -5 -8 -15 1 -13 10 -15 9 -15 -11 0 -18 -3 -20 -9
-10 -7 11 -10 10 -18 -4 -8 -14 -12 -15 -24 -3 -8 7 -21 14 -30 14 -14 1 -16
-6 -12 -37 4 -25 2 -39 -6 -39 -6 0 -12 -8 -12 -17 -1 -16 -2 -16 -6 -1 -2 9
-11 19 -20 22 -11 4 -14 2 -9 -9 3 -10 -1 -15 -13 -15 -10 0 -22 -7 -25 -16
-3 -9 -11 -12 -18 -8 -7 5 -9 2 -5 -9 4 -11 -3 -20 -23 -29 -16 -7 -27 -15
-24 -19 4 -7 -60 -49 -75 -49 -4 0 -13 11 -19 25 -6 14 -17 25 -23 25 -7 0 -5
-10 6 -26 9 -14 14 -28 11 -31 -3 -3 -14 10 -25 28 -31 51 -29 163 3 227 47
91 132 150 217 150 52 -1 54 0 52 25 -1 17 4 27 15 30 9 2 -9 3 -41 3 -53 0
-58 -2 -55 -21 4 -16 -1 -20 -21 -20 -19 0 -30 10 -47 44 -13 25 -20 49 -16
55 3 6 5 25 3 43 -1 17 5 46 14 63 23 44 115 130 140 130 11 0 29 6 40 14 11
7 29 16 40 19 36 10 136 -2 182 -23z m503 20 c-19 -13 -30 -13 -30 0 0 6 10
10 23 10 18 0 19 -2 7 -10z m460 0 c0 -5 -4 -10 -10 -10 -5 0 -10 5 -10 10 0
6 5 10 10 10 6 0 10 -4 10 -10z m-1450 -10 c0 -13 -20 -13 -40 0 -12 8 -9 10
13 10 15 0 27 -4 27 -10z m6407 -12 c-3 -8 -6 -5 -6 6 -1 11 2 17 5 13 3 -3 4
-12 1 -19z m117 6 c3 -8 2 -12 -4 -9 -6 3 -10 10 -10 16 0 14 7 11 14 -7z
m-6624 -4 c0 -5 -4 -10 -9 -10 -6 0 -13 5 -16 10 -3 6 1 10 9 10 9 0 16 -4 16
-10z m1117 -16 c-9 -9 -28 6 -21 18 4 6 10 6 17 -1 6 -6 8 -13 4 -17z m2648
16 c3 -5 -1 -10 -10 -10 -9 0 -13 5 -10 10 3 6 8 10 10 10 2 0 7 -4 10 -10z
m-2676 -32 c13 -21 1 -24 -18 -5 -10 10 -15 8 -25 -6 -12 -16 -14 -16 -20 -1
-3 9 -4 20 -1 25 10 15 52 6 64 -13z m2591 7 c-12 -15 -30 -12 -30 6 0 5 10 9
21 9 18 0 19 -2 9 -15z m3132 -10 c-4 -25 -26 -34 -37 -15 -8 13 12 40 30 40
8 0 10 -9 7 -25z m-2894 -3 c2 -7 -3 -12 -12 -12 -9 0 -16 7 -16 16 0 17 22
14 28 -4z m-3898 -1 c0 -5 -7 -12 -16 -15 -24 -9 -28 -7 -14 9 14 17 30 20 30
6z m967 -6 c0 -18 -19 -15 -25 3 -2 7 3 12 11 12 7 0 14 -7 14 -15z m1083 8
c0 -5 -4 -15 -10 -23 -11 -18 -25 -7 -17 15 6 15 27 21 27 8z m4643 -8 c10 -7
17 -21 15 -29 -2 -13 -9 -10 -31 14 -29 31 -18 41 16 15z m-1448 -6 c11 -16 1
-19 -13 -3 -7 8 -8 14 -3 14 5 0 13 -5 16 -11z m-4315 -33 c-14 -14 -24 0 -16
21 6 15 8 15 16 3 6 -9 5 -19 0 -24z m2689 5 c-30 -25 -35 -26 -42 -2 -4 16 1
20 27 23 41 4 43 2 15 -21z m-369 15 c0 -3 -4 -8 -10 -11 -5 -3 -10 -1 -10 4
0 6 5 11 10 11 6 0 10 -2 10 -4z m3008 -15 c3 -8 -1 -12 -9 -9 -7 2 -15 10
-17 17 -3 8 1 12 9 9 7 -2 15 -10 17 -17z m-6223 -12 c-10 -15 -25 -10 -19 6
4 8 10 12 15 9 5 -3 7 -10 4 -15z m50 11 c-3 -5 -11 -10 -16 -10 -6 0 -7 5 -4
10 3 6 11 10 16 10 6 0 7 -4 4 -10z m1385 6 c0 -3 -4 -8 -10 -11 -5 -3 -10 -1
-10 4 0 6 5 11 10 11 6 0 10 -2 10 -4z m-600 -10 c0 -3 -4 -8 -10 -11 -5 -3
-10 -1 -10 4 0 6 5 11 10 11 6 0 10 -2 10 -4z m2303 -37 c20 -11 37 -23 37
-28 0 -5 12 -14 28 -20 30 -13 56 -44 66 -81 7 -23 6 -22 -12 5 -10 17 -27 37
-37 45 -17 14 -18 13 -12 -2 5 -13 1 -18 -13 -18 -11 0 -20 -4 -20 -10 0 -5
-8 -10 -19 -10 -22 0 -45 -25 -37 -39 8 -12 -34 -62 -46 -55 -4 3 -8 -2 -8
-10 0 -16 -15 -22 -23 -8 -2 4 -2 2 -1 -5 3 -13 -64 -58 -83 -55 -6 2 -16 -10
-22 -25 l-11 -28 5 27 c4 21 2 26 -9 22 -8 -3 -17 -1 -21 5 -4 8 -12 8 -26 1
-11 -6 -24 -8 -29 -5 -6 3 -11 -6 -11 -22 -1 -17 -3 -21 -6 -10 -2 9 -8 17
-13 17 -5 0 -7 -6 -4 -13 3 -8 -1 -19 -9 -25 -12 -10 -14 -7 -13 15 1 14 -5
28 -13 31 -10 3 -12 0 -7 -14 6 -15 2 -14 -19 6 -14 13 -23 30 -21 36 3 7 -2
18 -10 24 -8 7 -14 19 -14 26 0 8 -7 14 -15 14 -56 0 82 157 182 206 93 46
178 47 266 3z m387 31 c0 -5 -4 -10 -10 -10 -5 0 -10 5 -10 10 0 6 5 10 10 10
6 0 10 -4 10 -10z m-2360 -4 c0 -3 -4 -8 -10 -11 -5 -3 -10 -1 -10 4 0 6 5 11
10 11 6 0 10 -2 10 -4z m-630 -15 c0 -10 -30 -24 -37 -17 -3 3 -2 9 2 15 8 13
35 15 35 2z m-510 -11 c0 -5 -2 -10 -4 -10 -3 0 -8 5 -11 10 -3 6 -1 10 4 10
6 0 11 -4 11 -10z m3444 -5 c-8 -20 -52 -31 -67 -16 -8 8 -5 11 10 11 12 0 25
5 28 10 10 16 35 12 29 -5z m-2904 -9 c0 -3 -4 -8 -10 -11 -5 -3 -10 -1 -10 4
0 6 5 11 10 11 6 0 10 -2 10 -4z m1910 -6 c0 -5 -2 -10 -4 -10 -3 0 -8 5 -11
10 -3 6 -1 10 4 10 6 0 11 -4 11 -10z m745 0 c3 -5 1 -10 -4 -10 -6 0 -11 5
-11 10 0 6 2 10 4 10 3 0 8 -4 11 -10z m157 -22 c-7 -7 -12 -8 -12 -2 0 14 12
26 19 19 2 -3 -1 -11 -7 -17z m-1302 -32 c0 -2 -7 -7 -16 -10 -8 -3 -12 -2 -9
4 6 10 25 14 25 6z m1080 -76 c0 -5 -4 -10 -10 -10 -5 0 -10 5 -10 10 0 6 5
10 10 10 6 0 10 -4 10 -10z m-2710 -30 c0 -5 -5 -10 -11 -10 -5 0 -7 5 -4 10
3 6 8 10 11 10 2 0 4 -4 4 -10z m-70 -20 c0 -5 -7 -10 -15 -10 -8 0 -15 5 -15
10 0 6 7 10 15 10 8 0 15 -4 15 -10z m3635 -20 c3 -5 -3 -10 -14 -10 -12 0
-21 5 -21 10 0 6 6 10 14 10 8 0 18 -4 21 -10z m-25 -41 c0 -6 -4 -7 -10 -4
-5 3 -10 11 -10 16 0 6 5 7 10 4 6 -3 10 -11 10 -16z m2130 11 c0 -5 -4 -10
-10 -10 -5 0 -10 5 -10 10 0 6 5 10 10 10 6 0 10 -4 10 -10z m175 1 c-6 -5
-37 -16 -70 -24 -33 -9 -51 -16 -40 -17 l20 -1 -20 -9 c-29 -12 -108 -12 -100
0 3 6 17 10 30 10 13 0 27 4 30 10 3 5 27 16 53 24 53 17 111 21 97 7z m-965
-5 c0 -11 -19 -15 -25 -6 -3 5 1 10 9 10 9 0 16 -2 16 -4z m-3409 -63 c13 -16
12 -17 -3 -4 -10 7 -18 15 -18 17 0 8 8 3 21 -13z m2589 -27 c181 -20 402 -36
591 -43 162 -6 322 3 299 17 -7 4 -27 4 -44 -1 -35 -10 -69 -3 -63 14 2 6 21
16 42 21 32 7 40 6 51 -9 12 -16 23 -17 111 -9 114 9 176 9 191 0 6 -4 35 -4
64 0 29 4 62 6 73 6 10 -1 24 2 30 7 5 4 37 5 70 2 l60 -6 -83 -23 c-170 -47
-343 -62 -716 -62 -254 0 -371 4 -452 15 -125 18 -285 49 -361 71 -55 16 -74
31 -25 20 15 -3 88 -12 162 -20z m1535 14 c-3 -5 -15 -10 -26 -10 -11 0 -17 5
-14 10 3 6 15 10 26 10 11 0 17 -4 14 -10z m-4355 -41 c0 -5 -7 -9 -15 -9 -15
0 -20 12 -9 23 8 8 24 -1 24 -14z m426 9 c-10 -6 -22 -6 -26 -2 -5 5 3 10 18
11 22 1 24 0 8 -9z m2073 -43 c12 -25 21 -47 21 -49 0 -3 -14 0 -30 6 -35 12
-49 49 -28 72 7 8 14 15 14 16 1 0 11 -20 23 -45z m-2414 26 c3 -5 1 -12 -5
-16 -5 -3 -10 1 -10 9 0 18 6 21 15 7z m809 -41 c84 -13 137 -41 171 -92 29
-44 24 -50 -9 -11 -13 14 -32 27 -42 28 -10 1 -30 5 -44 10 -23 7 -23 7 -7
-10 11 -11 27 -15 42 -12 17 3 25 0 25 -9 0 -8 5 -14 10 -14 6 0 10 -5 10 -11
0 -8 -5 -7 -15 1 -9 7 -18 10 -22 7 -3 -4 -12 -2 -20 4 -10 9 -13 8 -13 0 0
-7 -5 -9 -10 -6 -14 8 -42 -14 -34 -27 3 -5 12 -4 22 4 13 11 14 11 10 -2 -2
-8 -13 -17 -24 -18 -29 -6 -39 -19 -25 -36 9 -11 9 -16 0 -21 -8 -6 -7 -10 2
-16 10 -6 10 -9 2 -9 -6 0 -15 5 -18 10 -10 17 -23 11 -19 -8 3 -9 1 -28 -5
-42 -7 -18 -10 -20 -10 -7 -1 9 -6 17 -12 17 -5 0 -7 5 -4 10 3 6 1 10 -6 10
-6 0 -9 -8 -6 -20 3 -11 4 -20 2 -20 -2 0 -9 -2 -17 -5 -8 -3 -13 3 -14 20 -3
41 -13 58 -30 51 -13 -5 -15 -2 -11 14 3 12 -1 23 -10 29 -11 6 -12 10 -4 15
6 4 11 12 11 18 0 7 -6 6 -15 -2 -12 -10 -15 -10 -15 4 0 9 6 16 13 16 7 1 5
6 -5 14 -10 7 -14 16 -8 22 5 5 1 19 -11 33 -16 19 -22 21 -34 11 -9 -7 -18
-11 -21 -8 -12 13 93 64 136 67 8 0 46 -4 84 -9z m772 -28 c27 -17 63 -45 79
-62 l29 -30 -26 2 c-15 1 -24 7 -21 14 2 7 -4 15 -14 17 -82 24 -136 14 -126
-23 4 -16 0 -23 -14 -26 -18 -5 -20 -13 -18 -59 2 -66 -5 -80 -39 -71 -32 8
-36 8 -36 -1 0 -4 8 -8 17 -8 9 0 18 -6 20 -12 3 -7 -2 -13 -11 -13 -8 0 -18
-4 -21 -10 -3 -5 0 -7 8 -4 11 4 13 -1 10 -20 -3 -14 -10 -26 -15 -26 -5 0 -6
6 -3 13 4 6 -3 2 -14 -11 -11 -13 -25 -21 -31 -17 -5 3 -15 3 -22 -1 -16 -10
-88 -11 -88 -2 0 5 -14 23 -31 41 -36 37 -49 66 -49 107 0 16 -5 32 -11 36
-13 7 -4 66 14 96 18 28 81 69 140 89 39 14 74 18 138 16 77 -3 91 -6 135 -35z
m-2931 18 c3 -6 -1 -7 -9 -4 -18 7 -21 14 -7 14 6 0 13 -4 16 -10z m3215 6 c0
-3 -4 -8 -10 -11 -5 -3 -10 -1 -10 4 0 6 5 11 10 11 6 0 10 -2 10 -4z m25 -35
c3 -5 1 -12 -5 -16 -5 -3 -10 1 -10 9 0 18 6 21 15 7z m137 -13 c-7 -7 -12 -8
-12 -2 0 14 12 26 19 19 2 -3 -1 -11 -7 -17z m-177 2 c8 -13 -5 -13 -25 0 -13
8 -13 10 2 10 9 0 20 -4 23 -10z m-120 -20 c3 -5 1 -10 -4 -10 -6 0 -11 5 -11
10 0 6 2 10 4 10 3 0 8 -4 11 -10z m251 -27 c-10 -10 -19 5 -10 18 6 11 8 11
12 0 2 -7 1 -15 -2 -18z m419 17 c-3 -5 -11 -10 -16 -10 -6 0 -7 5 -4 10 3 6
11 10 16 10 6 0 7 -4 4 -10z m63 -39 c21 -26 15 -42 -13 -31 -13 5 -27 5 -30
1 -2 -5 5 -12 18 -16 20 -6 19 -7 -11 -16 -38 -11 -38 -33 0 -37 33 -4 44 -28
16 -35 -14 -4 -19 -11 -15 -21 5 -11 0 -16 -14 -16 -11 0 -18 -4 -14 -9 7 -13
-24 -43 -37 -35 -7 4 -8 2 -4 -5 10 -16 -12 -41 -36 -41 -10 0 -21 -7 -25 -16
-3 -9 -13 -14 -23 -11 -12 3 -22 -4 -29 -19 -6 -13 -15 -24 -20 -24 -5 0 -11
-9 -14 -20 -5 -18 -7 -19 -34 -5 -27 14 -28 14 -36 -15 -4 -17 -11 -30 -16
-30 -5 0 -11 -10 -14 -21 -5 -19 -11 -21 -49 -15 -40 6 -44 4 -60 -24 -9 -16
-22 -30 -28 -30 -6 0 -9 4 -5 9 3 5 1 12 -5 16 -5 3 -10 15 -10 25 0 13 -5 17
-15 14 -8 -4 -15 -1 -15 6 0 8 -9 11 -26 7 -20 -3 -24 -1 -19 11 3 8 0 19 -7
24 -10 7 -9 11 4 22 20 15 14 26 -14 26 -27 0 -22 19 7 26 35 9 53 33 34 45
-10 7 -6 8 14 3 17 -4 27 -2 27 5 0 6 -4 11 -10 11 -5 0 -10 5 -10 10 0 6 9
10 21 10 11 0 18 4 14 9 -3 5 2 16 10 25 12 12 13 20 6 35 -9 16 -6 23 15 40
26 20 131 47 214 56 48 4 99 16 140 33 26 10 34 12 50 12 6 0 9 3 8 8 0 4 2
15 7 25 8 19 24 12 53 -22z m-1818 -11 c0 -5 -5 -10 -11 -10 -5 0 -7 5 -4 10
3 6 8 10 11 10 2 0 4 -4 4 -10z m-1380 -100 c0 -5 -2 -10 -4 -10 -3 0 -8 5
-11 10 -3 6 -1 10 4 10 6 0 11 -4 11 -10z m1448 -35 c-3 -3 -9 2 -12 12 -6 14
-5 15 5 6 7 -7 10 -15 7 -18z m-2237 -51 c46 -8 88 -20 94 -25 5 -5 18 -9 28
-9 10 0 62 -22 115 -49 54 -27 106 -52 116 -55 10 -4 16 -9 13 -12 -8 -9 -141
38 -153 54 -12 17 -42 5 -82 -31 l-23 -21 -5 21 c-3 12 -13 24 -21 27 -12 5
-14 1 -10 -14 5 -21 -7 -27 -19 -9 -4 8 -9 7 -15 -2 -7 -11 -11 -12 -17 -1
-12 18 -63 -5 -55 -24 3 -9 -2 -14 -12 -14 -11 0 -15 5 -11 15 3 8 0 15 -6 15
-7 0 -9 -13 -5 -36 5 -28 3 -35 -8 -30 -15 5 -65 -34 -65 -51 0 -5 -12 -23
-26 -39 -14 -16 -30 -40 -35 -53 -6 -15 -15 -21 -25 -17 -8 3 -17 -1 -20 -9
-9 -23 -47 -12 -49 14 -1 15 3 20 12 17 8 -3 11 -1 8 4 -3 6 -16 8 -29 4 -19
-4 -23 0 -34 43 -35 135 39 253 180 288 71 17 64 17 159 -1z m-391 2 c0 -3 -4
-8 -10 -11 -5 -3 -10 -1 -10 4 0 6 5 11 10 11 6 0 10 -2 10 -4z m1085 -66 c-3
-5 -11 -10 -16 -10 -6 0 -7 5 -4 10 3 6 11 10 16 10 6 0 7 -4 4 -10z m1470
-25 c39 -15 86 -41 105 -58 19 -16 30 -27 24 -24 -5 3 -32 8 -60 12 -27 3 -56
8 -66 11 -9 2 -19 0 -23 -6 -3 -5 2 -10 12 -10 15 0 15 -2 3 -9 -8 -6 -18 -7
-23 -4 -16 10 -26 -19 -15 -43 11 -24 10 -26 -59 -88 -25 -22 -35 -26 -46 -18
-10 8 -20 8 -40 -3 -24 -12 -29 -11 -69 21 -24 18 -49 34 -55 34 -7 0 -12 3
-12 8 4 21 -3 32 -18 32 -15 0 -15 1 -1 13 9 6 18 29 21 50 7 44 24 63 86 94
59 30 138 26 236 -12z m-1955 -15 c0 -5 -5 -10 -11 -10 -5 0 -7 5 -4 10 3 6 8
10 11 10 2 0 4 -4 4 -10z m827 -5 c30 -4 54 -17 85 -46 24 -22 35 -38 26 -35
-9 3 -19 0 -22 -7 -5 -9 -7 -9 -12 1 -7 15 -25 16 -21 0 1 -6 -9 -14 -23 -18
-17 -4 -21 -8 -12 -14 6 -4 12 -12 12 -18 0 -6 -8 -4 -18 5 -19 18 -65 12 -59
-7 5 -14 -40 -49 -53 -41 -5 3 -14 -5 -19 -18 -6 -14 -16 -27 -23 -30 -8 -3
-6 -6 6 -6 15 -1 16 -4 6 -16 -6 -8 -13 -33 -14 -56 -2 -33 -7 -44 -23 -50
-15 -6 -20 -14 -16 -28 6 -25 -24 -41 -39 -20 -7 11 -11 11 -15 2 -7 -18 -21
-16 -53 7 -18 13 -31 16 -35 10 -10 -16 -23 -12 -30 10 -3 11 -12 20 -20 20
-36 0 -43 137 -11 215 17 39 87 108 136 133 36 18 146 22 247 7z m2793 0 c0
-3 -10 -15 -21 -26 -17 -17 -23 -19 -30 -8 -10 17 8 39 32 39 11 0 19 -2 19
-5z m-3240 -15 c0 -5 -5 -10 -11 -10 -5 0 -7 5 -4 10 3 6 8 10 11 10 2 0 4 -4
4 -10z m1075 -80 c3 -5 2 -10 -4 -10 -5 0 -13 5 -16 10 -3 6 -2 10 4 10 5 0
13 -4 16 -10z m979 -14 c-3 -8 -14 -16 -25 -19 -16 -4 -17 -2 -8 14 11 22 41
26 33 5z m246 4 c68 -15 121 -40 165 -79 72 -62 71 -66 -2 -66 -58 -1 -63 1
-46 13 16 13 16 14 -10 8 -18 -4 -35 -2 -45 6 -10 7 -6 0 8 -16 l25 -28 -36 7
c-40 7 -51 -1 -56 -44 -1 -15 -3 -30 -4 -36 -1 -5 2 -19 6 -30 5 -16 5 -17 -4
-5 -8 12 -13 12 -23 2 -9 -9 -9 -12 0 -12 7 0 12 -4 12 -10 0 -5 -13 -7 -28
-4 -19 4 -32 1 -41 -10 -15 -18 -65 -15 -108 6 -16 8 -27 7 -44 -6 -29 -20
-43 -21 -36 -2 3 8 -2 16 -15 19 -11 3 -17 10 -13 16 3 6 -1 19 -10 28 -12 12
-16 27 -12 54 4 29 2 36 -9 32 -20 -7 -17 4 6 34 11 14 20 31 20 38 0 7 21 31
46 54 46 41 46 41 128 41 44 0 101 -5 126 -10z m1147 -32 c-5 -40 -27 -69 -51
-67 -6 0 -1 5 11 11 27 13 34 48 13 65 -13 11 -13 12 3 13 9 0 17 5 17 10 0 6
3 10 6 10 3 0 4 -19 1 -42z m-2337 12 c0 -5 -2 -10 -4 -10 -3 0 -8 5 -11 10
-3 6 -1 10 4 10 6 0 11 -4 11 -10z m1870 -30 c0 -5 -2 -10 -4 -10 -3 0 -8 5
-11 10 -3 6 -1 10 4 10 6 0 11 -4 11 -10z m95 -77 c28 -4 57 -8 65 -9 8 -1 22
-4 30 -7 20 -7 72 -20 87 -21 16 -1 73 -48 73 -59 0 -5 -8 -6 -19 -2 -22 7
-45 -18 -46 -49 0 -12 -9 -25 -22 -31 -13 -6 -21 -17 -20 -29 1 -13 -5 -22
-18 -24 -16 -3 -18 -1 -7 9 17 18 15 39 -3 39 -8 0 -15 -6 -15 -13 0 -7 -10
-18 -21 -26 -19 -11 -21 -11 -16 3 14 36 -25 77 -49 53 -13 -13 -34 -7 -34 8
0 12 -4 13 -19 6 -21 -11 -35 -40 -25 -50 4 -3 9 0 11 7 3 6 9 10 13 7 13 -8
0 -35 -17 -35 -8 0 -11 -5 -8 -10 4 -7 14 -6 28 1 21 12 21 11 5 -8 -10 -11
-18 -25 -18 -31 0 -7 -5 -12 -11 -12 -6 0 -9 7 -6 15 7 16 -8 29 -23 20 -6 -4
-7 -13 -1 -24 7 -13 5 -20 -10 -29 -19 -12 -19 -11 -9 8 6 11 7 20 1 20 -5 0
-11 -5 -13 -11 -3 -8 -43 -12 -119 -13 -63 -1 -120 -5 -127 -10 -17 -10 -15 9
3 24 8 7 13 23 11 36 -3 12 0 24 5 26 10 3 15 95 6 105 -4 3 -2 14 4 24 6 12
6 19 0 19 -5 0 -12 -6 -14 -12 -4 -10 -6 -10 -6 -1 -1 6 3 14 9 18 5 3 7 12 4
19 -5 14 73 37 181 53 62 10 74 9 160 -4z m363 -13 c-1 -21 -6 -30 -18 -30 -9
0 -20 -4 -26 -10 -6 -6 -10 -3 -10 9 0 11 4 17 8 15 4 -3 8 0 8 5 0 6 7 11 16
11 14 0 14 3 4 15 -10 12 -10 15 3 15 11 0 15 -9 15 -30z m-3541 -10 c-3 -11
-1 -23 4 -26 5 -3 9 -12 9 -21 0 -9 8 -23 18 -32 19 -17 25 -92 8 -108 -5 -5
-6 -3 -2 5 5 8 0 12 -13 12 -12 0 -21 5 -21 11 0 13 -53 2 -58 -12 -2 -5 -12
-9 -22 -9 -11 0 -23 -6 -27 -13 -4 -8 -16 -16 -25 -20 -10 -3 -18 -11 -18 -17
0 -6 4 -9 9 -6 5 3 11 -6 14 -20 5 -26 -23 -50 -31 -26 -7 23 -19 12 -14 -13
2 -14 8 -25 13 -25 5 0 9 -7 9 -15 0 -8 -6 -15 -13 -15 -7 0 -21 -16 -30 -35
-17 -36 -32 -44 -40 -22 -2 6 -8 9 -12 5 -4 -4 -3 -14 3 -21 7 -8 9 -17 5 -20
-12 -13 -23 -7 -23 12 0 50 -28 19 -54 -59 -3 -11 -5 -11 -5 3 -1 15 -7 17
-35 12 -20 -4 -36 -2 -41 4 -3 6 -10 9 -15 6 -5 -3 -19 9 -32 27 -30 42 -33
154 -6 208 45 88 141 165 235 186 38 9 95 26 128 39 75 30 89 31 82 5z m3521
-57 c-9 -10 -13 -24 -11 -31 6 -17 -17 -102 -27 -102 -12 0 -22 33 -12 39 5 3
12 17 16 31 3 14 3 19 0 13 -8 -18 -24 -16 -24 1 0 17 60 80 68 72 3 -3 -2
-14 -10 -23z m-2436 -65 c-8 -8 -9 -4 -5 13 4 13 8 18 11 10 2 -7 -1 -18 -6
-23z m3191 -29 c7 0 1 -5 -12 -10 -13 -5 -26 -7 -29 -4 -3 3 0 5 6 5 7 0 13
10 13 23 1 16 2 18 6 5 2 -10 10 -18 16 -19z m-3255 -7 c2 -7 -3 -12 -12 -12
-9 0 -16 7 -16 16 0 17 22 14 28 -4z m934 0 c19 -10 52 -34 72 -54 l36 -35
-28 -12 c-16 -7 -35 -26 -43 -44 -8 -18 -23 -33 -34 -35 -25 -5 -45 -29 -45
-57 0 -19 -36 -52 -52 -47 -5 1 -8 -2 -8 -6 0 -4 -17 -8 -38 -8 -21 0 -44 -4
-51 -8 -7 -5 -17 -4 -23 2 -6 6 -17 8 -24 5 -8 -3 -14 0 -14 6 0 14 -43 14
-57 0 -14 -14 -47 -4 -38 11 4 6 10 8 15 5 5 -3 12 0 16 6 4 8 -3 9 -25 4 -30
-6 -45 8 -18 18 9 3 9 7 0 17 -6 7 -9 18 -7 25 3 7 1 16 -5 20 -31 18 11 101
75 150 68 52 227 72 296 37z m1520 -64 c-7 -7 -12 -8 -12 -2 0 14 12 26 19 19
2 -3 -1 -11 -7 -17z m-279 -1 c6 -16 -29 -41 -38 -27 -3 6 1 10 10 10 11 0 15
5 11 15 -3 8 -1 15 3 15 5 0 11 -6 14 -13z m97 -8 c0 -6 -4 -7 -10 -4 -5 3
-10 11 -10 16 0 6 5 7 10 4 6 -3 10 -11 10 -16z m146 -67 c-22 -23 -29 -10 -9
18 11 16 18 19 21 11 2 -7 -3 -20 -12 -29z m-2727 17 c17 -6 31 -14 31 -18 0
-5 10 -12 22 -18 21 -9 18 -12 -32 -30 -30 -12 -55 -27 -55 -34 0 -7 -6 -14
-13 -17 -8 -2 -10 2 -6 13 6 15 4 15 -15 4 -11 -8 -21 -17 -21 -20 0 -3 -11
-4 -25 -1 -18 3 -25 0 -25 -12 0 -9 7 -16 16 -16 12 0 15 -7 11 -27 -3 -16 1
-53 9 -83 8 -30 14 -66 14 -81 0 -30 -30 -69 -53 -69 -9 0 -24 -8 -34 -19 -23
-24 -63 -37 -63 -20 0 8 -4 9 -13 1 -26 -22 -166 17 -167 46 0 7 -4 11 -9 7
-17 -10 -35 38 -37 103 -2 52 3 71 27 115 29 54 66 89 109 102 14 4 34 12 45
19 24 14 78 31 160 50 76 18 85 18 124 5z m651 -38 c14 -8 27 -17 30 -20 3 -4
17 -14 33 -24 27 -18 96 -104 97 -121 0 -5 -8 -2 -18 7 -23 21 -52 22 -52 2 0
-14 -3 -14 -29 -1 -27 14 -29 14 -34 -4 -3 -11 0 -23 5 -27 7 -4 6 -10 -4 -17
-8 -6 -18 -21 -22 -34 -4 -12 -12 -22 -17 -22 -5 0 -9 -9 -9 -20 0 -13 5 -18
15 -14 11 5 15 -2 15 -26 l0 -33 -22 19 c-21 19 -21 19 -15 -4 9 -37 -1 -53
-30 -46 -16 4 -28 2 -34 -7 -8 -12 -11 -12 -20 1 -10 13 -10 13 -6 0 2 -8 -2
-21 -9 -28 -8 -7 -14 -9 -15 -5 0 4 -5 -3 -11 -17 -6 -15 -12 -20 -15 -13 -3
9 -10 10 -24 3 -14 -8 -19 -7 -19 1 0 7 -3 9 -7 5 -4 -4 -8 -15 -8 -23 0 -26
-20 -25 -35 1 -7 14 -16 24 -19 23 -13 -4 -65 53 -69 75 -2 13 -5 67 -6 121
l-2 99 59 64 c63 69 84 84 132 94 49 10 138 5 165 -9z m-2210 -21 c0 -5 -2
-10 -4 -10 -3 0 -8 5 -11 10 -3 6 -1 10 4 10 6 0 11 -4 11 -10z m99 -18 c15
-3 71 -41 71 -47 0 -8 -35 9 -45 22 -6 7 -28 15 -50 18 -61 6 -62 7 -30 14 17
4 32 4 35 1 3 -3 11 -6 19 -8z m599 -22 c-11 -18 -28 -27 -28 -16 0 6 30 36
36 36 2 0 -1 -9 -8 -20z m2572 16 c0 -11 -19 -15 -25 -6 -3 5 1 10 9 10 9 0
16 -2 16 -4z m162 -15 c72 -26 155 -44 172 -38 8 3 20 -1 27 -9 7 -8 17 -13
24 -10 6 2 17 -4 23 -14 9 -15 8 -20 -6 -23 -14 -4 -13 -6 6 -12 18 -6 20 -10
10 -22 -10 -12 -7 -13 13 -8 18 4 30 1 40 -11 13 -16 12 -17 -13 -10 -30 7
-36 -2 -16 -22 9 -9 8 -12 -5 -12 -35 0 -15 -20 21 -21 101 -2 114 -13 104
-83 l-7 -50 -70 -30 c-39 -17 -74 -36 -78 -43 -4 -7 -13 -13 -18 -13 -6 0 -17
-7 -26 -16 -9 -8 -22 -13 -29 -10 -8 3 -14 1 -14 -5 0 -6 -9 -7 -22 -3 -38 13
-120 5 -140 -13 -17 -15 -18 -15 -18 0 0 10 -7 17 -15 17 -8 0 -15 -4 -15 -10
0 -5 -15 -1 -32 10 -18 11 -45 20 -60 20 -16 0 -28 5 -28 11 0 6 -11 25 -25
43 -14 18 -25 38 -25 45 0 18 -23 38 -38 33 -8 -2 -29 11 -48 29 -19 18 -34
29 -34 24 0 -4 -9 0 -20 10 -16 14 -17 20 -8 27 10 6 10 10 -1 17 -24 16 -2
49 49 73 28 13 49 30 50 39 0 9 16 24 35 35 19 10 35 23 35 27 0 5 7 4 15 -3
10 -8 15 -9 15 -2 0 6 10 20 22 32 28 26 80 26 150 1z m-3419 -22 c10 -11 16
-24 12 -27 -4 -4 -11 1 -16 11 -7 12 -17 16 -30 12 -18 -6 -26 5 -12 18 12 12
28 7 46 -14z m217 -9 c0 -5 -4 -10 -9 -10 -6 0 -13 5 -16 10 -3 6 1 10 9 10 9
0 16 -4 16 -10z m1345 0 c3 -5 1 -10 -4 -10 -6 0 -11 5 -11 10 0 6 2 10 4 10
3 0 8 -4 11 -10z m-1460 -10 c3 -5 1 -10 -4 -10 -6 0 -11 5 -11 10 0 6 2 10 4
10 3 0 8 -4 11 -10z m175 -21 c0 -13 -13 -11 -35 5 -18 13 -18 14 8 9 15 -3
27 -9 27 -14z m-160 -29 c0 -5 -4 -10 -9 -10 -6 0 -13 5 -16 10 -3 6 1 10 9
10 9 0 16 -4 16 -10z m3632 -30 c52 -34 77 -60 59 -60 -6 0 -19 9 -28 20 -9
11 -20 16 -23 12 -3 -4 -19 8 -37 26 -39 40 -30 41 29 2z m-3532 -11 c0 -14
-46 -11 -58 4 -9 10 -4 12 23 9 19 -2 35 -8 35 -13z m2050 -10 c0 -5 -4 -9
-10 -9 -5 0 -10 7 -10 16 0 8 5 12 10 9 6 -3 10 -10 10 -16z m-2280 -8 c0 -5
-9 -11 -20 -14 -22 -6 -28 8 -7 16 19 8 27 8 27 -2z m50 -1 c0 -5 -2 -10 -4
-10 -3 0 -8 5 -11 10 -3 6 -1 10 4 10 6 0 11 -4 11 -10z m2230 -20 c0 -5 -4
-10 -10 -10 -5 0 -10 5 -10 10 0 6 5 10 10 10 6 0 10 -4 10 -10z m1830 -29 c0
-16 -41 -61 -56 -61 -8 0 -13 -4 -10 -8 2 -4 -4 -8 -15 -8 -10 0 -19 4 -19 9
0 4 -25 6 -56 4 -59 -4 -60 0 -1 32 49 27 57 26 57 -5 0 -14 4 -23 10 -19 6 3
10 18 10 32 0 23 3 25 30 20 17 -4 30 -2 30 3 0 6 5 10 10 10 6 0 10 -4 10 -9z
m1298 -30 c-15 -5 -19 4 -11 24 6 18 7 18 13 -1 4 -10 3 -21 -2 -23z m77 -111
c3 -6 0 -13 -8 -16 -8 -3 -17 -15 -20 -26 -3 -11 -10 -17 -16 -13 -8 4 -6 16
4 36 16 30 29 36 40 19z m-3330 -22 c-8 -27 -38 -54 -43 -38 -2 5 4 17 12 26
9 8 16 20 16 25 0 5 5 9 11 9 6 0 8 -9 4 -22z m-75 -58 c0 -5 -4 -10 -10 -10
-5 0 -10 5 -10 10 0 6 5 10 10 10 6 0 10 -4 10 -10z m-1285 -80 c3 -5 1 -10
-4 -10 -6 0 -11 5 -11 10 0 6 2 10 4 10 3 0 8 -4 11 -10z m1073 -162 c-5 -15
-23 -11 -26 6 -2 11 2 14 13 10 9 -4 14 -11 13 -16z m1726 7 c-4 -8 -10 -12
-15 -9 -11 6 -2 24 11 24 5 0 7 -7 4 -15z m-49 -26 c-10 -15 -25 -10 -19 6 4
8 10 12 15 9 5 -3 7 -10 4 -15z"/>
<path d="M2280 3060 c-8 -5 -10 -10 -5 -10 6 0 17 5 25 10 8 5 11 10 5 10 -5
0 -17 -5 -25 -10z"/>
<path d="M2740 2980 c0 -5 5 -10 11 -10 5 0 7 5 4 10 -3 6 -8 10 -11 10 -2 0
-4 -4 -4 -10z"/>
<path d="M2708 2963 c7 -3 16 -2 19 1 4 3 -2 6 -13 5 -11 0 -14 -3 -6 -6z"/>
<path d="M2437 2823 c-4 -3 -7 -11 -7 -17 0 -6 5 -5 12 2 6 6 9 14 7 17 -3 3
-9 2 -12 -2z"/>
<path d="M2439 2767 c-15 -21 -14 -23 7 -44 13 -13 26 -18 29 -13 3 6 1 10 -4
10 -7 0 -9 14 -6 35 5 40 -3 44 -26 12z"/>
<path d="M2343 2724 c-3 -9 0 -21 7 -27 10 -9 14 -9 17 1 3 6 11 12 19 12 21
0 9 16 -16 23 -14 3 -23 0 -27 -9z"/>
<path d="M2258 2693 c7 -3 16 -2 19 1 4 3 -2 6 -13 5 -11 0 -14 -3 -6 -6z"/>
<path d="M2286 2411 c-4 -7 -5 -15 -2 -18 9 -9 19 4 14 18 -4 11 -6 11 -12 0z"/>
<path d="M2240 2279 c0 -5 5 -7 10 -4 6 3 10 8 10 11 0 2 -4 4 -10 4 -5 0 -10
-5 -10 -11z"/>
<path d="M2147 3079 c7 -7 15 -10 18 -7 3 3 -2 9 -12 12 -14 6 -15 5 -6 -5z"/>
<path d="M1154 2878 c12 -7 21 -7 28 0 6 6 0 10 -18 10 -23 0 -24 -2 -10 -10z"/>
<path d="M1153 2830 c3 -11 1 -20 -5 -20 -5 0 -16 -7 -24 -15 -20 -20 3 -20
29 -1 19 15 23 56 6 56 -6 0 -9 -9 -6 -20z"/>
<path d="M2876 2415 c-9 -26 -7 -32 5 -12 6 10 9 21 6 23 -2 3 -7 -2 -11 -11z"/>
<path d="M1895 2150 c-3 -5 -1 -10 4 -10 6 0 11 5 11 10 0 6 -2 10 -4 10 -3 0
-8 -4 -11 -10z"/>
<path d="M2476 2051 c-4 -7 -5 -15 -2 -18 9 -9 19 4 14 18 -4 11 -6 11 -12 0z"/>
<path d="M1530 1957 c0 -19 -15 -23 -25 -7 -3 6 -11 10 -17 10 -7 0 -6 -6 2
-15 10 -12 10 -18 -1 -32 -13 -15 -12 -15 6 -5 48 26 61 40 48 53 -11 11 -13
10 -13 -4z"/>
<path d="M1765 1870 c-26 -29 -15 -32 15 -4 13 13 20 24 14 24 -6 0 -19 -9
-29 -20z"/>
<path d="M1330 1830 c0 -5 5 -10 11 -10 5 0 7 5 4 10 -3 6 -8 10 -11 10 -2 0
-4 -4 -4 -10z"/>
<path d="M2370 1690 c0 -5 5 -10 11 -10 5 0 7 5 4 10 -3 6 -8 10 -11 10 -2 0
-4 -4 -4 -10z"/>
<path d="M1855 1550 c-3 -5 -1 -10 4 -10 6 0 11 5 11 10 0 6 -2 10 -4 10 -3 0
-8 -4 -11 -10z"/>
<path d="M1880 1481 c0 -5 7 -11 14 -14 10 -4 13 -1 9 9 -6 15 -23 19 -23 5z"/>
<path d="M850 1405 c0 -8 4 -15 10 -15 5 0 7 7 4 15 -4 8 -8 15 -10 15 -2 0
-4 -7 -4 -15z"/>
<path d="M730 2945 c-10 -12 -15 -13 -28 -3 -13 11 -14 10 -10 -2 7 -23 31
-23 46 0 14 24 10 27 -8 5z"/>
<path d="M1090 2498 c0 -7 7 -21 14 -30 12 -16 13 -15 14 12 0 20 -4 30 -14
30 -8 0 -14 -6 -14 -12z"/>
<path d="M1135 2480 c3 -5 8 -10 11 -10 2 0 4 5 4 10 0 6 -5 10 -11 10 -5 0
-7 -4 -4 -10z"/>
<path d="M1220 2429 c7 -11 14 -18 17 -15 8 8 -5 36 -17 36 -7 0 -7 -6 0 -21z"/>
<path d="M3730 2431 c0 -5 7 -14 15 -21 16 -14 18 -10 9 14 -6 17 -24 22 -24
7z"/>
<path d="M3696 2404 c-11 -7 -16 -17 -13 -21 4 -4 15 1 24 10 22 21 14 30 -11
11z"/>
<path d="M3583 2340 c-1 -11 2 -20 8 -20 5 0 9 9 9 20 0 11 -4 20 -8 20 -4 0
-8 -9 -9 -20z"/>
<path d="M4227 2193 c-4 -3 -7 -11 -7 -17 0 -6 5 -5 12 2 6 6 9 14 7 17 -3 3
-9 2 -12 -2z"/>
<path d="M510 2261 c0 -10 19 -25 25 -20 1 2 -3 10 -11 17 -8 7 -14 8 -14 3z"/>
<path d="M530 2098 c0 -9 -6 -19 -12 -21 -10 -4 -10 -6 0 -6 14 -1 28 26 18
36 -3 4 -6 -1 -6 -9z"/>
<path d="M450 1730 c0 -5 5 -10 10 -10 6 0 10 5 10 10 0 6 -4 10 -10 10 -5 0
-10 -4 -10 -10z"/>
<path d="M4230 1485 c0 -9 6 -12 15 -9 8 4 15 10 15 15 0 5 -7 9 -15 9 -8 0
-15 -7 -15 -15z"/>
<path d="M4268 1453 c-10 -2 -18 -13 -18 -23 0 -11 -8 -24 -17 -29 -26 -15 -7
-13 32 3 24 10 35 22 35 35 0 21 -2 22 -32 14z"/>
<path d="M325 1280 c-3 -6 1 -7 9 -4 18 7 21 14 7 14 -6 0 -13 -4 -16 -10z"/>
<path d="M2655 1310 c3 -5 8 -10 11 -10 2 0 4 5 4 10 0 6 -5 10 -11 10 -5 0
-7 -4 -4 -10z"/>
<path d="M2457 1163 c-4 -3 -7 -11 -7 -17 0 -6 5 -5 12 2 6 6 9 14 7 17 -3 3
-9 2 -12 -2z"/>
<path d="M3435 1159 c-11 -16 -1 -19 13 -3 7 8 8 14 3 14 -5 0 -13 -5 -16 -11z"/>
<path d="M3467 1119 c7 -7 15 -10 18 -7 3 3 -2 9 -12 12 -14 6 -15 5 -6 -5z"/>
<path d="M3913 871 c3 -14 1 -18 -10 -14 -10 4 -14 1 -11 -7 7 -21 67 -21 78
0 13 24 13 30 0 30 -5 0 -10 -7 -10 -15 0 -8 -5 -15 -11 -15 -6 0 -9 9 -6 20
4 15 0 20 -15 20 -15 0 -19 -5 -15 -19z"/>
<path d="M780 920 c-8 -5 -12 -11 -9 -14 2 -3 11 -1 19 4 8 5 12 11 9 14 -2 3
-11 1 -19 -4z"/>
<path d="M1424 768 c-7 -10 47 -10 63 0 8 5 -2 8 -23 8 -19 0 -38 -4 -40 -8z"/>
<path d="M1465 590 c3 -5 8 -10 11 -10 2 0 4 5 4 10 0 6 -5 10 -11 10 -5 0 -7
-4 -4 -10z"/>
<path d="M1500 474 c0 -8 5 -12 10 -9 6 3 10 10 10 16 0 5 -4 9 -10 9 -5 0
-10 -7 -10 -16z"/>
<path d="M1461 421 c-12 -22 -5 -27 19 -11 11 7 12 12 3 21 -8 8 -14 6 -22
-10z"/>
<path d="M2365 680 c3 -5 11 -10 16 -10 6 0 7 5 4 10 -3 6 -11 10 -16 10 -6 0
-7 -4 -4 -10z"/>
<path d="M3684 589 c-3 -6 -1 -16 5 -22 7 -7 12 -6 17 6 3 9 10 14 15 11 5 -3
9 0 9 5 0 14 -37 14 -46 0z"/>
<path d="M3660 575 c0 -8 4 -15 10 -15 5 0 7 7 4 15 -4 8 -8 15 -10 15 -2 0
-4 -7 -4 -15z"/>
<path d="M3455 539 c5 -14 2 -25 -6 -30 -10 -6 -5 -9 16 -10 54 -3 70 -5 112
-13 49 -9 70 -1 53 19 -8 9 -8 15 0 20 6 3 8 11 4 16 -8 13 -24 1 -24 -19 0
-15 -8 -16 -62 -12 -53 4 -65 9 -73 28 -12 28 -29 29 -20 1z"/>
<path d="M3235 510 c4 -6 11 -8 16 -5 14 9 11 15 -7 15 -8 0 -12 -5 -9 -10z"/>
<path d="M3640 4790 c0 -5 7 -7 15 -4 8 4 15 8 15 10 0 2 -7 4 -15 4 -8 0 -15
-4 -15 -10z"/>
<path d="M4060 4778 c0 -17 -3 -19 -12 -10 -7 7 -19 12 -27 12 -11 0 -8 -5 8
-16 19 -13 22 -23 18 -49 -6 -38 5 -60 27 -52 21 8 33 -14 12 -25 -17 -10 -22
-38 -7 -38 18 0 76 65 78 88 2 19 -1 21 -12 12 -22 -18 -36 -3 -23 25 14 31 3
45 -16 20 -8 -11 -15 -14 -19 -8 -4 6 0 16 8 23 13 11 13 14 -2 26 -25 19 -33
17 -33 -8z"/>
<path d="M4187 4780 c7 -25 19 -26 32 -2 8 14 13 15 30 5 27 -17 31 -16 31 2
0 11 -12 15 -49 15 -44 0 -49 -2 -44 -20z"/>
<path d="M4843 4793 c10 -3 17 -14 17 -27 0 -15 6 -23 18 -23 20 0 32 14 32
40 0 14 -8 17 -42 16 -24 -1 -35 -3 -25 -6z"/>
<path d="M4931 4783 c0 -11 3 -13 6 -5 7 17 33 15 33 -4 0 -8 5 -12 10 -9 22
14 10 35 -20 35 -22 0 -30 -5 -29 -17z"/>
<path d="M5915 4780 c19 -21 51 -26 74 -11 24 15 1 31 -46 31 -45 0 -46 0 -28
-20z"/>
<path d="M6564 4785 c3 -9 6 -21 6 -26 0 -6 8 -9 18 -7 9 1 23 -1 30 -5 7 -5
12 -3 12 5 0 10 2 10 8 1 5 -8 11 -3 18 16 l11 28 -55 2 c-47 2 -54 0 -48 -14z"/>
<path d="M7063 4782 c22 -10 35 -22 32 -30 -3 -8 0 -10 6 -6 8 4 9 -1 5 -17
l-7 -24 16 21 c15 20 18 21 46 7 35 -18 36 -20 4 -20 -14 0 -25 5 -25 11 0 6
-5 4 -10 -4 -5 -8 -7 -23 -4 -34 4 -10 0 -22 -7 -27 -11 -7 -10 -9 5 -9 15 0
17 5 13 28 -5 23 -2 28 14 28 12 0 18 -5 15 -13 -7 -17 -1 -16 18 3 10 9 16
33 16 60 l0 44 -87 -1 -88 -1 38 -16z"/>
<path d="M4145 4780 c-3 -5 -2 -10 4 -10 5 0 13 5 16 10 3 6 2 10 -4 10 -5 0
-13 -4 -16 -10z"/>
<path d="M6741 4763 c-7 -8 -19 -12 -26 -9 -7 2 -20 -3 -29 -13 -15 -16 -13
-17 26 -17 33 1 42 5 49 23 10 27 -1 36 -20 16z"/>
<path d="M6948 4758 c-24 -24 -23 -30 5 -24 15 4 13 2 -5 -6 -16 -7 -28 -16
-28 -21 0 -4 4 -6 9 -3 5 3 11 -3 14 -15 4 -16 3 -18 -8 -9 -20 16 -24 -20 -5
-41 13 -13 18 -13 37 -1 13 8 20 19 15 26 -10 15 -10 56 0 49 5 -2 6 -13 3
-24 -4 -11 -2 -19 4 -19 6 0 11 6 11 14 0 21 21 31 31 15 7 -12 9 -12 9 0 0 7
6 11 13 8 17 -7 44 9 34 20 -5 4 -12 1 -16 -6 -7 -11 -10 -11 -14 0 -4 12 -7
11 -16 -1 -9 -13 -11 -13 -11 0 0 11 -3 11 -12 2 -17 -17 -28 -15 -28 6 0 9
-6 24 -13 32 -11 14 -14 14 -29 -2z"/>
<path d="M7035 4759 c-4 -6 -5 -12 -2 -15 2 -3 7 2 10 11 7 17 1 20 -8 4z"/>
<path d="M7055 4751 c-3 -5 -1 -12 5 -16 5 -3 10 1 10 9 0 18 -6 21 -15 7z"/>
<path d="M3673 4728 c-2 -16 1 -17 13 -8 18 15 18 27 1 27 -7 0 -14 -9 -14
-19z"/>
<path d="M3865 4740 c-3 -5 -11 -8 -16 -5 -5 4 -9 1 -9 -4 0 -6 -5 -11 -11
-11 -6 0 -17 -7 -26 -15 -8 -9 -23 -15 -31 -13 -9 2 -32 -12 -51 -31 -18 -19
-45 -36 -59 -37 -35 -4 -51 -22 -32 -35 12 -8 10 -9 -7 -4 -18 5 -25 1 -35
-19 -9 -22 -8 -29 6 -45 16 -18 16 -20 1 -28 -15 -9 -15 -11 0 -23 13 -11 15
-10 9 4 -3 9 -2 16 4 16 5 0 12 -11 14 -25 3 -14 1 -25 -4 -25 -8 0 -2 -38 7
-48 2 -2 14 1 27 8 22 11 23 11 3 -6 -20 -16 -19 -16 7 -10 17 4 28 1 31 -7 3
-9 9 -8 21 3 15 14 13 18 -14 48 -27 30 -32 62 -9 62 5 0 9 5 9 11 0 6 7 17
15 26 21 20 66 11 109 -22 33 -25 49 -25 39 1 -4 10 5 19 26 27 25 9 31 17 28
32 -2 15 2 21 15 21 10 0 18 -6 18 -13 0 -7 7 -14 15 -14 8 -1 20 -3 25 -4 6
-1 13 -3 18 -4 4 -1 1 -5 -7 -10 -8 -5 -9 -11 -3 -15 9 -6 35 14 60 46 11 14
11 22 -1 50 -8 18 -19 46 -26 61 -7 19 -17 27 -26 23 -9 -3 -15 0 -15 9 0 20
-19 19 -27 0 -5 -14 -8 -14 -29 0 -13 8 -24 12 -24 9 0 -4 -9 1 -19 10 -13 12
-21 14 -26 6z m145 -85 c0 -8 -2 -15 -4 -15 -2 0 -6 7 -10 15 -3 8 -1 15 4 15
6 0 10 -7 10 -15z"/>
<path d="M4235 4740 c-3 -5 -1 -10 4 -10 6 0 11 5 11 10 0 6 -2 10 -4 10 -3 0
-8 -4 -11 -10z"/>
<path d="M4290 4740 c0 -5 7 -10 15 -10 8 0 15 5 15 10 0 6 -7 10 -15 10 -8 0
-15 -4 -15 -10z"/>
<path d="M6815 4740 c-4 -6 -10 -8 -15 -5 -9 6 -25 -33 -17 -41 5 -5 57 42 57
51 0 9 -19 5 -25 -5z"/>
<path d="M4500 4731 c-87 -27 -132 -88 -90 -122 16 -14 27 -15 62 -7 24 6 50
16 58 23 22 18 71 34 110 37 28 2 36 8 38 26 2 12 0 22 -5 23 -29 2 -59 11
-67 19 -12 12 -70 12 -106 1z"/>
<path d="M6720 4699 c0 -5 5 -7 10 -4 6 3 10 8 10 11 0 2 -4 4 -10 4 -5 0 -10
-5 -10 -11z"/>
<path d="M7007 4674 c-11 -12 -8 -24 7 -24 7 0 20 -10 28 -22 15 -22 38 -18
38 8 0 12 -21 19 -35 12 -2 -2 -10 5 -17 15 -8 10 -17 15 -21 11z"/>
<path d="M6400 4650 c-9 -6 -10 -10 -3 -10 6 0 15 5 18 10 8 12 4 12 -15 0z"/>
<path d="M3360 4641 c0 -6 -6 -8 -13 -5 -7 2 -13 -4 -14 -16 -1 -11 2 -20 7
-20 5 0 12 -9 15 -20 4 -11 11 -18 16 -15 5 4 2 13 -6 22 -9 8 -13 18 -10 21
3 4 10 0 15 -8 7 -11 10 -9 10 12 0 15 -4 30 -10 33 -5 3 -10 2 -10 -4z"/>
<path d="M3553 4633 c-7 -2 -13 -11 -13 -19 0 -9 5 -12 12 -8 8 5 9 2 5 -10
-4 -11 -3 -15 4 -10 6 3 9 15 6 25 -3 10 0 20 7 23 6 2 7 4 1 4 -5 0 -16 -2
-22 -5z"/>
<path d="M6468 4631 c-2 -4 -18 -17 -37 -30 l-33 -24 21 -16 c12 -9 24 -33 28
-54 3 -20 9 -37 14 -37 4 0 17 21 28 46 13 29 25 43 32 38 8 -4 9 -3 5 5 -5 7
1 20 15 32 12 10 20 21 18 24 -9 8 -88 23 -91 16z"/>
<path d="M6561 4587 c-6 -8 -8 -17 -4 -20 11 -12 19 -7 20 13 2 24 -1 25 -16
7z"/>
<path d="M6615 4559 c-4 -6 -5 -12 -2 -15 2 -3 7 2 10 11 7 17 1 20 -8 4z"/>
<path d="M6386 4533 c-3 -8 -1 -11 4 -8 6 3 10 -2 10 -12 0 -15 2 -16 10 -3 5
8 10 20 10 26 0 16 -28 13 -34 -3z"/>
<path d="M4040 4516 c0 -2 7 -9 15 -16 13 -11 14 -10 9 4 -5 14 -24 23 -24 12z"/>
<path d="M3710 4500 c0 -5 5 -10 10 -10 6 0 10 5 10 10 0 6 -4 10 -10 10 -5 0
-10 -4 -10 -10z"/>
<path d="M4350 4477 c0 -23 7 -38 25 -51 28 -21 32 -36 11 -36 -8 0 -24 12
-36 27 l-22 28 -19 -24 c-24 -30 -24 -42 1 -48 11 -3 23 -16 26 -29 5 -20 8
-21 20 -9 8 8 13 20 12 27 -2 8 10 14 34 16 51 4 60 34 22 72 -16 15 -35 35
-42 44 -20 25 -32 19 -32 -17z"/>
<path d="M4036 4485 c4 -8 11 -15 16 -15 6 0 5 6 -2 15 -7 8 -14 15 -16 15 -2
0 -1 -7 2 -15z"/>
<path d="M3367 4464 c-20 -20 -24 -29 -16 -42 17 -28 66 -25 85 4 16 23 15 26
-1 44 -24 26 -37 25 -68 -6z"/>
<path d="M3737 4466 c-4 -10 -1 -13 7 -10 8 3 17 1 21 -5 8 -15 65 -14 65 0 0
6 -8 9 -18 7 -10 -3 -27 1 -37 8 -24 18 -32 18 -38 0z"/>
<path d="M3540 4451 c0 -5 7 -14 15 -21 13 -10 15 -9 15 9 0 12 -6 21 -15 21
-8 0 -15 -4 -15 -9z"/>
<path d="M3894 4417 c1 -30 21 -65 32 -55 8 8 -7 38 -20 38 -6 0 -5 4 3 9 12
8 12 11 -1 25 -14 14 -16 12 -14 -17z"/>
<path d="M3104 4389 c-6 -10 12 -29 29 -29 9 0 9 4 1 24 -7 19 -20 21 -30 5z"/>
<path d="M3162 4374 c-7 -8 -8 -14 -3 -14 10 0 25 19 20 25 -2 1 -10 -3 -17
-11z"/>
<path d="M3468 4366 c-17 -23 -16 -24 2 -29 11 -3 23 -1 26 5 3 5 12 7 18 5 7
-3 19 -1 27 4 10 6 7 9 -13 9 -18 0 -28 5 -28 15 0 22 -12 18 -32 -9z"/>
<path d="M3760 4370 c0 -5 5 -10 11 -10 5 0 7 5 4 10 -3 6 -8 10 -11 10 -2 0
-4 -4 -4 -10z"/>
<path d="M3400 4360 c-8 -5 -12 -12 -8 -15 10 -10 49 5 43 16 -8 11 -16 11
-35 -1z"/>
<path d="M3605 4350 c-11 -34 6 -45 26 -19 24 31 24 39 0 39 -11 0 -22 -9 -26
-20z"/>
<path d="M4210 4360 c0 -5 5 -10 11 -10 5 0 7 5 4 10 -3 6 -8 10 -11 10 -2 0
-4 -4 -4 -10z"/>
<path d="M4372 4329 c-12 -19 -11 -19 7 -10 26 14 36 31 19 31 -7 0 -19 -9
-26 -21z"/>
<path d="M3322 4328 c-7 -7 -12 -17 -12 -22 0 -6 -12 -20 -27 -33 -19 -15 -24
-25 -17 -30 6 -5 15 -19 19 -33 4 -14 15 -34 24 -44 15 -18 15 -19 -4 -12 -53
21 -61 19 -31 -6 17 -16 36 -24 47 -21 25 7 24 25 -1 48 -14 12 -17 22 -11 28
7 7 3 17 -12 29 -22 20 -22 20 -2 35 36 26 55 34 55 23 0 -5 -7 -10 -16 -10
-13 0 -14 -3 -5 -14 10 -11 8 -17 -6 -25 -24 -14 -8 -14 18 0 11 5 17 14 14
20 -4 5 -1 9 4 9 6 0 11 9 11 19 0 11 5 21 12 23 19 7 -1 28 -26 28 -12 0 -27
-5 -34 -12z"/>
<path d="M3414 4329 c-7 -11 32 -57 40 -48 3 3 3 14 0 26 -7 25 -30 37 -40 22z"/>
<path d="M3233 4315 c0 -7 6 -11 14 -8 7 3 13 6 13 8 0 2 -6 5 -13 8 -8 3 -14
-1 -14 -8z"/>
<path d="M3516 4314 c-11 -8 -16 -14 -10 -14 13 0 39 18 34 24 -3 2 -14 -2
-24 -10z"/>
<path d="M3657 4321 c-16 -6 -15 -10 11 -34 22 -21 31 -25 35 -15 8 22 -25 57
-46 49z"/>
<path d="M3050 4313 c0 -5 5 -15 10 -23 8 -12 10 -11 10 8 0 12 -4 22 -10 22
-5 0 -10 -3 -10 -7z"/>
<path d="M3133 4273 c-16 -34 6 -28 35 9 12 15 11 17 -5 15 -11 0 -24 -11 -30
-24z"/>
<path d="M3617 4294 c7 -3 9 -12 6 -20 -5 -14 8 -19 20 -7 9 8 -12 33 -27 32
-7 0 -7 -2 1 -5z"/>
<path d="M4180 4291 c0 -6 4 -13 10 -16 6 -3 7 1 4 9 -7 18 -14 21 -14 7z"/>
<path d="M3385 4270 c-16 -18 -16 -20 -1 -26 9 -3 16 -12 16 -20 0 -8 5 -14
10 -14 6 0 10 4 10 9 0 5 23 17 50 27 28 10 50 21 50 25 0 19 -22 17 -62 -6
-47 -27 -58 -30 -58 -15 0 6 7 10 16 10 9 0 14 5 12 12 -7 20 -24 19 -43 -2z"/>
<path d="M3545 4260 c-3 -5 1 -10 9 -10 9 0 16 5 16 10 0 6 -4 10 -9 10 -6 0
-13 -4 -16 -10z"/>
<path d="M3176 4227 c-10 -18 -11 -25 -4 -16 7 8 21 20 32 26 15 8 15 11 4 16
-10 3 -21 -6 -32 -26z"/>
<path d="M6863 4253 c-36 -4 -43 -8 -43 -26 0 -13 -3 -17 -8 -11 -7 11 -54 27
-82 29 -15 1 -41 -27 -39 -42 4 -22 -3 -33 -18 -33 -15 0 -13 -4 7 -20 14 -11
30 -20 36 -20 14 0 26 -28 18 -41 -7 -12 15 -12 52 0 16 5 56 17 89 27 33 9
68 26 78 36 17 20 22 63 11 92 -6 16 -13 17 -101 9z m77 -13 c0 -5 -4 -10 -10
-10 -5 0 -10 5 -10 10 0 6 5 10 10 10 6 0 10 -4 10 -10z m-30 -50 c0 -5 -5
-10 -11 -10 -5 0 -7 5 -4 10 3 6 8 10 11 10 2 0 4 -4 4 -10z"/>
<path d="M3643 4238 c-13 -6 -23 -15 -23 -20 0 -14 16 -9 41 12 26 21 17 25
-18 8z"/>
<path d="M4145 4220 c-3 -5 1 -10 10 -10 9 0 13 5 10 10 -3 6 -8 10 -10 10 -2
0 -7 -4 -10 -10z"/>
<path d="M3090 4210 c0 -5 5 -10 10 -10 6 0 10 5 10 10 0 6 -4 10 -10 10 -5 0
-10 -4 -10 -10z"/>
<path d="M3342 4208 c-15 -15 -15 -28 0 -28 15 0 68 -60 68 -77 0 -7 7 -13 15
-13 8 0 15 5 15 10 0 6 7 10 15 10 21 0 106 46 99 53 -3 3 -13 3 -22 -1 -10
-3 -6 6 10 23 15 16 26 30 25 31 -6 7 -90 -16 -100 -26 -9 -10 -9 -11 1 -6 14
8 17 -20 3 -29 -14 -8 -63 17 -84 42 -21 26 -28 28 -45 11z m175 -64 c-3 -3
-12 -4 -19 -1 -8 3 -5 6 6 6 11 1 17 -2 13 -5z"/>
<path d="M3120 4199 c0 -5 5 -7 10 -4 6 3 10 8 10 11 0 2 -4 4 -10 4 -5 0 -10
-5 -10 -11z"/>
<path d="M3587 4186 c-4 -10 -1 -13 9 -9 7 3 14 9 14 14 0 14 -17 10 -23 -5z"/>
<path d="M7130 4190 c0 -5 5 -10 11 -10 5 0 7 5 4 10 -3 6 -8 10 -11 10 -2 0
-4 -4 -4 -10z"/>
<path d="M3932 4183 c-36 -5 -122 -82 -122 -109 0 -21 23 -12 26 10 6 38 16
29 12 -11 -2 -24 -1 -43 3 -43 4 0 7 -11 7 -24 0 -16 -5 -23 -14 -19 -7 2 -10
11 -8 18 3 8 1 22 -5 32 -11 19 -10 23 -11 -49 -1 -12 -6 -26 -13 -30 -8 -5
-7 -8 5 -8 9 0 19 4 23 9 3 6 27 13 53 17 26 3 58 12 72 19 20 10 26 10 35 0
10 -14 30 -18 78 -16 30 1 35 19 15 51 -10 16 -10 24 0 40 6 11 12 24 12 29 0
8 -56 47 -85 60 -5 2 -16 10 -23 18 -7 7 -16 12 -20 11 -4 0 -22 -3 -40 -5z"/>
<path d="M3060 4171 c0 -9 30 -24 36 -18 2 1 -6 8 -16 15 -11 7 -20 8 -20 3z"/>
<path d="M6603 4138 c-11 -14 -23 -48 -22 -62 0 -5 -5 -12 -12 -17 -8 -4 -10
-11 -7 -15 13 -12 38 24 38 54 0 17 6 32 13 35 6 2 9 7 6 11 -3 4 -11 1 -16
-6z"/>
<path d="M3057 4110 c-3 -11 -1 -23 4 -26 5 -3 9 6 9 20 0 31 -6 34 -13 6z"/>
<path d="M5406 4121 c-4 -7 -5 -15 -2 -18 9 -9 19 4 14 18 -4 11 -6 11 -12 0z"/>
<path d="M3030 4110 c0 -5 5 -10 10 -10 6 0 10 5 10 10 0 6 -4 10 -10 10 -5 0
-10 -4 -10 -10z"/>
<path d="M6635 4100 c-3 -5 -1 -10 4 -10 6 0 11 5 11 10 0 6 -2 10 -4 10 -3 0
-8 -4 -11 -10z"/>
<path d="M3525 4090 c3 -5 8 -10 11 -10 2 0 4 5 4 10 0 6 -5 10 -11 10 -5 0
-7 -4 -4 -10z"/>
<path d="M3020 4080 c12 -8 13 -10 1 -10 -8 0 -12 -2 -9 -5 7 -7 38 5 38 14 0
4 -10 8 -22 8 -18 2 -20 0 -8 -7z"/>
<path d="M3457 4083 c-6 -10 14 -28 32 -28 8 0 16 6 19 14 3 9 0 12 -10 8 -9
-3 -20 -1 -26 5 -5 5 -12 6 -15 1z"/>
<path d="M5391 4064 c0 -11 3 -14 6 -6 3 7 2 16 -1 19 -3 4 -6 -2 -5 -13z"/>
<path d="M3430 4046 c0 -9 5 -16 10 -16 6 0 10 4 10 9 0 6 -4 13 -10 16 -5 3
-10 -1 -10 -9z"/>
<path d="M5697 4044 c-58 -14 -121 -48 -146 -78 -20 -24 -4 -19 34 10 19 14
39 23 45 19 6 -4 19 -1 28 6 9 7 14 9 10 5 -4 -5 -3 -15 2 -21 7 -9 5 -12 -7
-12 -48 0 -73 -4 -73 -11 0 -4 15 -6 33 -5 42 5 60 -9 60 -45 0 -20 4 -28 13
-25 22 8 78 9 102 1 15 -5 22 -4 22 5 0 9 3 8 9 -1 10 -16 82 -14 93 3 5 6 11
6 20 -3 20 -20 28 -14 28 22 0 26 -5 35 -21 39 -11 3 -23 15 -26 26 -3 12 -12
21 -20 21 -8 0 -11 -4 -8 -10 9 -14 -7 -12 -27 4 -23 17 -23 26 -1 26 24 0 4
17 -29 25 -18 5 -28 3 -28 -4 0 -6 -5 -11 -11 -11 -6 0 -9 7 -5 15 7 19 -16
18 -97 -1z m68 -14 c3 -6 -1 -7 -9 -4 -18 7 -21 14 -7 14 6 0 13 -4 16 -10z
m195 -110 c0 -5 -2 -10 -4 -10 -3 0 -8 5 -11 10 -3 6 -1 10 4 10 6 0 11 -4 11
-10z"/>
<path d="M3152 4023 c6 -7 14 -10 19 -7 5 3 9 0 9 -6 0 -6 5 -8 11 -5 17 11 4
28 -23 29 -21 1 -24 -1 -16 -11z"/>
<path d="M3315 4021 c-10 -1 -33 -11 -51 -22 -19 -10 -39 -17 -46 -15 -7 1
-10 1 -5 -1 4 -3 -20 -35 -54 -73 -46 -52 -59 -72 -52 -85 8 -14 11 -12 22 9
20 36 148 85 135 51 -4 -10 0 -15 10 -15 9 0 16 5 16 10 0 6 7 10 16 10 11 0
15 -6 11 -20 -3 -11 -1 -18 4 -14 5 3 9 13 9 23 0 47 135 47 202 0 16 -12 31
-19 33 -17 3 2 5 27 6 54 2 54 -15 99 -34 87 -8 -5 -8 -8 1 -11 17 -5 15 -32
-2 -32 -8 0 -16 5 -18 11 -2 5 -10 11 -18 13 -31 5 -60 18 -60 26 0 9 -95 17
-125 11z"/>
<path d="M6565 4020 c-3 -5 -2 -10 4 -10 5 0 13 5 16 10 3 6 2 10 -4 10 -5 0
-13 -4 -16 -10z"/>
<path d="M3042 3972 c7 -17 17 -28 24 -25 17 6 2 47 -19 51 -13 3 -14 -1 -5
-26z"/>
<path d="M5113 3934 c-7 -3 -9 -12 -6 -20 4 -10 0 -12 -11 -8 -11 4 -16 1 -16
-10 0 -19 -16 -21 -23 -3 -3 6 -6 2 -6 -9 -1 -12 6 -24 14 -28 8 -3 15 -10 15
-16 0 -14 -37 -13 -44 3 -3 6 -3 -1 1 -18 8 -42 19 -51 33 -26 6 12 16 19 21
15 6 -3 16 2 23 12 10 13 15 14 21 4 4 -7 2 -16 -5 -20 -26 -16 1 -25 80 -25
72 0 81 -2 76 -18 -2 -9 0 -15 4 -12 5 3 16 -5 24 -17 9 -12 16 -18 16 -12 0
6 7 11 15 11 8 0 12 -4 10 -8 -4 -5 17 -19 29 -19 1 0 -2 27 -8 60 -5 33 -14
60 -18 60 -5 0 -6 5 -3 11 4 6 0 9 -11 7 -13 -2 -19 3 -19 17 0 22 -35 42 -86
50 -27 4 -30 3 -14 -4 17 -8 17 -10 3 -10 -10 -1 -22 8 -28 19 -6 11 -15 18
-21 15 -5 -4 -7 -10 -5 -14 3 -3 -4 -7 -14 -7 -10 0 -16 6 -13 13 5 13 -11 16
-34 7z m117 -54 c8 -5 11 -12 7 -16 -3 -4 -13 -2 -20 4 -8 7 -18 8 -22 4 -5
-4 -5 -1 -1 6 9 14 16 15 36 2z m36 -37 c-10 -10 -19 5 -10 18 6 11 8 11 12 0
2 -7 1 -15 -2 -18z m-26 -23 c0 -5 -7 -10 -16 -10 -8 0 -12 5 -9 10 3 6 10 10
16 10 5 0 9 -4 9 -10z m84 -55 c3 -8 1 -15 -4 -15 -6 0 -10 7 -10 15 0 8 2 15
4 15 2 0 6 -7 10 -15z"/>
<path d="M6928 3933 c-33 -4 -39 -9 -46 -36 -6 -24 -5 -33 5 -35 7 -2 13 -9
13 -15 0 -7 11 -29 25 -50 23 -33 30 -37 68 -37 24 0 49 -6 55 -12 9 -9 15 -9
20 -2 4 5 20 11 35 12 40 3 45 7 58 55 10 39 9 42 -15 62 -49 39 -148 65 -218
58z"/>
<path d="M4970 3923 c0 -13 29 -38 35 -31 3 3 -4 13 -15 23 -11 10 -20 13 -20
8z"/>
<path d="M5622 3918 c-7 -7 -12 -19 -12 -28 0 -9 -5 -21 -10 -26 -6 -6 -8 -18
-4 -27 9 -25 23 -21 18 6 -2 12 -2 16 2 10 9 -19 20 -16 39 13 16 25 16 25 -4
15 -33 -18 -36 -12 -5 14 16 14 25 25 20 25 -5 0 -18 -7 -28 -17 -20 -18 -25
-4 -6 15 7 7 10 12 7 12 -3 0 -10 -5 -17 -12z"/>
<path d="M3978 3893 c7 -3 16 -2 19 1 4 3 -2 6 -13 5 -11 0 -14 -3 -6 -6z"/>
<path d="M3480 3874 c0 -8 5 -12 10 -9 6 4 8 11 5 16 -9 14 -15 11 -15 -7z"/>
<path d="M3340 3860 c0 -5 5 -10 11 -10 5 0 7 5 4 10 -3 6 -8 10 -11 10 -2 0
-4 -4 -4 -10z"/>
<path d="M3166 3851 c-4 -5 -2 -12 3 -15 5 -4 12 -2 15 3 4 5 2 12 -3 15 -5 4
-12 2 -15 -3z"/>
<path d="M3480 3835 c0 -8 2 -15 4 -15 2 0 6 7 10 15 3 8 1 15 -4 15 -6 0 -10
-7 -10 -15z"/>
<path d="M3205 3830 c-16 -7 -17 -9 -3 -9 9 -1 20 4 23 9 7 11 7 11 -20 0z"/>
<path d="M3360 3829 c0 -5 5 -7 10 -4 6 3 10 8 10 11 0 2 -4 4 -10 4 -5 0 -10
-5 -10 -11z"/>
<path d="M3921 3802 c-26 -29 -27 -52 -3 -52 26 0 54 -33 46 -54 -10 -25 12
-19 31 10 24 38 76 56 135 48 59 -8 64 3 20 40 -52 43 -193 48 -229 8z"/>
<path d="M3190 3800 c-9 -6 -10 -10 -3 -10 6 0 15 5 18 10 8 12 4 12 -15 0z"/>
<path d="M3463 3780 c-1 -17 2 -30 7 -30 6 0 10 6 10 14 0 8 3 21 6 30 4 10 1
16 -7 16 -8 0 -15 -12 -16 -30z"/>
<path d="M2910 3790 c-8 -5 -12 -11 -10 -14 3 -2 14 2 24 10 22 15 10 19 -14
4z"/>
<path d="M3305 3790 c3 -5 8 -10 11 -10 2 0 4 5 4 10 0 6 -5 10 -11 10 -5 0
-7 -4 -4 -10z"/>
<path d="M3244 3769 c-18 -20 -18 -20 9 -10 17 7 27 7 27 1 0 -6 5 -10 10 -10
16 0 11 14 -9 27 -16 10 -22 8 -37 -8z"/>
<path d="M3600 3759 c-13 -24 -4 -41 10 -19 10 16 13 40 5 40 -2 0 -9 -9 -15
-21z"/>
<path d="M3400 3760 c0 -5 5 -10 10 -10 6 0 10 5 10 10 0 6 -4 10 -10 10 -5 0
-10 -4 -10 -10z"/>
<path d="M3325 3750 c3 -5 8 -10 11 -10 2 0 4 5 4 10 0 6 -5 10 -11 10 -5 0
-7 -4 -4 -10z"/>
<path d="M5716 3747 c3 -10 9 -15 12 -12 3 3 0 11 -7 18 -10 9 -11 8 -5 -6z"/>
<path d="M3170 3740 c0 -5 5 -10 10 -10 6 0 10 5 10 10 0 6 -4 10 -10 10 -5 0
-10 -4 -10 -10z"/>
<path d="M3110 3730 c0 -5 5 -10 10 -10 6 0 10 5 10 10 0 6 -4 10 -10 10 -5 0
-10 -4 -10 -10z"/>
<path d="M3356 3733 c-11 -11 -6 -23 9 -23 8 0 15 4 15 9 0 13 -16 22 -24 14z"/>
<path d="M3210 3720 c0 -5 5 -10 10 -10 6 0 10 5 10 10 0 6 -4 10 -10 10 -5 0
-10 -4 -10 -10z"/>
<path d="M3453 3698 c-23 -30 -24 -38 -6 -38 13 0 19 8 21 25 2 28 -1 31 -15
13z"/>
<path d="M3293 3680 c-13 -5 -23 -14 -23 -21 0 -6 6 -8 13 -5 6 3 20 9 30 12
9 4 17 10 17 15 0 11 -8 11 -37 -1z"/>
<path d="M5715 3680 c3 -5 8 -10 11 -10 2 0 4 5 4 10 0 6 -5 10 -11 10 -5 0
-7 -4 -4 -10z"/>
<path d="M3138 3673 c7 -3 16 -2 19 1 4 3 -2 6 -13 5 -11 0 -14 -3 -6 -6z"/>
<path d="M3170 3671 c0 -5 -8 -12 -17 -14 -14 -4 -13 -5 4 -6 24 -1 39 14 23
24 -5 3 -10 2 -10 -4z"/>
<path d="M3234 3656 c-8 -22 3 -33 18 -18 9 9 9 15 0 24 -9 9 -13 7 -18 -6z"/>
<path d="M3200 3650 c0 -5 5 -10 10 -10 6 0 10 5 10 10 0 6 -4 10 -10 10 -5 0
-10 -4 -10 -10z"/>
<path d="M3025 3630 c3 -5 8 -10 11 -10 2 0 4 5 4 10 0 6 -5 10 -11 10 -5 0
-7 -4 -4 -10z"/>
<path d="M3430 3577 c0 -11 -8 -17 -22 -18 -16 -1 -12 -4 12 -9 43 -10 46 -7
26 22 -13 18 -16 19 -16 5z"/>
<path d="M3195 3550 c-14 -15 -15 -20 -4 -20 15 1 49 23 49 34 0 13 -28 5 -45
-14z"/>
<path d="M3262 3558 c-16 -16 -15 -31 1 -21 6 4 21 6 32 4 11 -2 18 -1 15 1
-36 27 -37 27 -48 16z"/>
<path d="M3320 3561 c0 -5 12 -11 27 -14 26 -5 26 -4 8 9 -22 16 -35 18 -35 5z"/>
<path d="M3490 3555 c7 -8 24 -14 39 -14 20 1 22 2 6 6 -11 3 -24 9 -29 14
-16 15 -29 10 -16 -6z"/>
<path d="M3640 3556 c0 -9 5 -16 10 -16 6 0 10 4 10 9 0 6 -4 13 -10 16 -5 3
-10 -1 -10 -9z"/>
<path d="M3556 3524 c-8 -20 -7 -21 19 -24 38 -4 65 0 65 10 0 7 -13 8 -35 4
-30 -5 -34 -4 -29 10 3 9 2 16 -4 16 -5 0 -13 -7 -16 -16z"/>
<path d="M3314 3499 c-1 -34 6 -36 31 -9 14 16 26 19 48 14 22 -5 28 -3 25 7
-6 19 -45 24 -64 9 -10 -9 -18 -9 -26 -2 -10 8 -13 3 -14 -19z"/>
<path d="M3225 3510 c-19 -8 -19 -9 3 -9 12 -1 22 4 22 9 0 6 -1 10 -2 9 -2 0
-12 -4 -23 -9z"/>
<path d="M3245 3484 c-11 -8 -19 -22 -17 -30 3 -17 -15 -19 -20 -2 -3 8 -12 5
-28 -10 -13 -12 -27 -22 -32 -22 -4 0 -8 -7 -8 -15 0 -17 16 -20 25 -5 4 7 14
5 28 -5 12 -8 41 -15 64 -15 33 0 43 -4 43 -16 0 -14 2 -15 16 -3 9 8 37 22
63 31 39 14 42 17 19 17 -21 1 -28 6 -28 21 0 26 -9 25 -50 -5 -19 -14 -44
-25 -57 -25 -18 0 -23 5 -23 28 0 15 7 38 16 50 18 26 16 27 -11 6z m105 -74
c0 -5 -8 -10 -17 -10 -15 0 -16 2 -3 10 19 12 20 12 20 0z"/>
<path d="M3141 3454 c-17 -14 -31 -30 -31 -35 0 -5 8 -2 18 7 9 8 28 24 42 34
14 11 20 19 13 20 -6 0 -25 -12 -42 -26z"/>
<path d="M6607 3440 c-19 -16 -44 -30 -56 -30 -11 0 -30 -13 -42 -29 -11 -16
-32 -34 -45 -41 -34 -19 -63 -117 -30 -104 7 3 20 -2 29 -10 8 -9 34 -18 57
-22 38 -6 44 -4 74 28 29 31 33 41 31 84 -1 29 3 59 12 72 7 12 11 27 8 33 -4
5 -2 16 5 24 23 28 -10 25 -43 -5z"/>
<path d="M3256 3444 c-8 -22 -5 -24 22 -17 18 4 20 8 11 19 -15 18 -25 18 -33
-2z"/>
<path d="M3390 3449 c0 -5 5 -7 10 -4 6 3 10 8 10 11 0 2 -4 4 -10 4 -5 0 -10
-5 -10 -11z"/>
<path d="M4168 3415 c-4 -4 -4 -13 -2 -20 5 -13 -24 -25 -63 -25 -15 0 -31
-13 -47 -39 -28 -44 -45 -134 -27 -145 6 -4 11 0 11 11 1 10 16 35 34 56 33
37 36 38 82 32 44 -6 51 -4 73 19 13 14 40 29 59 32 19 4 43 15 53 25 23 23
24 33 3 25 -8 -3 -26 1 -39 10 -25 16 -126 31 -137 19z"/>
<path d="M7157 3373 c-4 -3 -7 -15 -7 -25 0 -10 -5 -18 -11 -18 -6 0 -9 -6 -6
-14 3 -7 0 -19 -6 -26 -10 -10 -8 -12 6 -6 10 3 30 6 43 6 29 0 31 20 4 40
-12 9 -18 21 -14 32 6 19 2 23 -9 11z"/>
<path d="M7172 3251 c-28 -7 -25 -27 2 -23 23 3 29 8 25 20 -2 4 -14 6 -27 3z"/>
<path d="M6215 3210 c3 -5 8 -10 11 -10 2 0 4 5 4 10 0 6 -5 10 -11 10 -5 0
-7 -4 -4 -10z"/>
<path d="M4610 3196 c-7 -9 -10 -22 -7 -31 4 -8 0 -18 -7 -22 -8 -5 -35 -28
-61 -52 -50 -46 -57 -66 -59 -175 -2 -65 28 -68 154 -19 12 5 13 4 3 -9 -7 -8
-31 -21 -53 -28 -22 -7 -40 -19 -40 -27 0 -15 16 -18 25 -4 3 5 19 12 35 16
17 4 30 13 30 22 0 10 6 13 15 9 9 -3 15 -1 14 7 -3 26 2 37 16 37 8 0 15 9
15 19 0 11 5 23 11 27 11 7 8 76 -6 120 -6 18 2 27 49 55 30 19 54 39 52 44
-1 6 -27 10 -57 11 -30 0 -68 3 -85 8 -22 5 -34 3 -44 -8z m50 -86 c0 -5 -5
-10 -11 -10 -5 0 -7 5 -4 10 3 6 8 10 11 10 2 0 4 -4 4 -10z"/>
<path d="M7147 3168 c-18 -31 -20 -32 -32 -15 -11 15 -18 16 -33 8 -11 -6 -22
-8 -25 -5 -3 3 -11 3 -17 -1 -18 -11 8 -25 48 -25 31 0 70 -16 83 -34 4 -5 13
-5 20 -1 9 6 6 11 -10 16 -16 6 -21 15 -18 33 1 14 6 28 10 32 9 10 9 24 0 24
-5 0 -16 -15 -26 -32z"/>
<path d="M5478 3163 c12 -2 20 -9 17 -14 -4 -5 1 -9 11 -9 13 0 14 3 4 15 -7
8 -22 14 -34 14 -20 -2 -20 -2 2 -6z"/>
<path d="M5440 3138 c0 -11 12 -10 30 2 12 7 10 9 -8 7 -12 0 -22 -5 -22 -9z"/>
<path d="M6043 3125 c-41 -17 -63 -59 -45 -83 7 -9 22 -36 34 -59 12 -24 26
-43 30 -43 4 0 8 -8 8 -18 0 -10 7 -27 15 -39 9 -12 13 -32 10 -45 -3 -13 -1
-29 4 -37 8 -12 12 -12 25 -2 13 11 16 11 16 -2 0 -39 66 -27 100 19 14 18 33
36 43 39 9 4 17 15 17 26 0 10 7 19 15 19 23 0 30 28 13 48 -9 9 -18 29 -21
43 -9 36 -85 119 -124 135 -41 18 -99 17 -140 -1z m117 -235 c0 -5 -4 -10 -10
-10 -5 0 -10 5 -10 10 0 6 5 10 10 10 6 0 10 -4 10 -10z"/>
<path d="M5255 3109 c-62 -25 -73 -36 -75 -74 -3 -44 -2 -49 18 -71 10 -11 22
-32 25 -46 5 -18 20 -33 42 -44 19 -9 44 -26 57 -38 28 -27 89 -44 140 -38 34
4 36 6 33 35 -3 40 -14 67 -27 67 -5 0 -6 19 -2 46 5 38 3 49 -16 69 -18 19
-20 27 -11 43 16 30 15 31 -31 52 -54 25 -90 24 -153 -1z"/>
<path d="M7073 3094 c-18 -8 -33 -19 -33 -24 0 -14 17 -13 22 1 2 7 13 9 27 4
18 -5 21 -12 17 -31 -5 -20 -3 -24 14 -24 12 0 19 4 16 9 -3 5 1 11 9 15 21 8
19 22 -7 46 -25 23 -23 23 -65 4z"/>
<path d="M5580 3090 c0 -5 5 -10 11 -10 5 0 7 5 4 10 -3 6 -8 10 -11 10 -2 0
-4 -4 -4 -10z"/>
<path d="M5620 3082 c0 -10 22 -32 32 -32 15 0 8 15 -12 28 -11 7 -20 9 -20 4z"/>
<path d="M3746 2976 c3 -9 10 -16 16 -16 10 0 -31 -40 -64 -62 -20 -14 -19
-14 14 -10 26 3 38 10 41 24 4 13 11 19 21 15 8 -3 18 -2 21 3 4 6 1 10 -5 10
-7 0 -9 8 -5 20 3 11 2 20 -4 20 -5 0 -17 3 -25 6 -12 5 -15 2 -10 -10z"/>
<path d="M6540 2970 c0 -9 39 -25 46 -18 2 3 -7 10 -21 16 -14 6 -25 7 -25 2z"/>
<path d="M6890 2960 c0 -5 5 -10 10 -10 6 0 10 5 10 10 0 6 -4 10 -10 10 -5 0
-10 -4 -10 -10z"/>
<path d="M7177 2916 c4 -28 1 -36 -17 -46 -18 -10 -20 -14 -9 -21 21 -13 32
-11 26 5 -3 8 1 17 9 20 19 7 19 76 0 76 -11 0 -13 -9 -9 -34z"/>
<path d="M3875 2930 c-3 -6 1 -7 9 -4 18 7 21 14 7 14 -6 0 -13 -4 -16 -10z"/>
<path d="M4030 2916 c0 -8 14 -15 35 -18 39 -4 43 -1 18 18 -24 18 -53 18 -53
0z"/>
<path d="M6526 2915 c4 -8 12 -15 20 -15 19 0 18 16 -2 24 -22 9 -24 8 -18 -9z"/>
<path d="M3827 2872 c-10 -10 -14 -22 -10 -25 12 -13 21 -7 25 18 6 30 6 30
-15 7z"/>
<path d="M3742 2853 c-12 -2 -30 -17 -40 -31 -9 -15 -21 -30 -27 -34 -6 -5 -5
-11 4 -17 8 -5 10 -14 6 -21 -5 -8 -3 -11 6 -8 9 3 13 16 11 38 -3 27 -1 32
13 27 9 -4 14 -3 11 2 -12 19 20 31 55 21 46 -14 48 -13 19 10 -14 11 -27 19
-30 18 -3 0 -15 -3 -28 -5z"/>
<path d="M3854 2839 c-3 -5 2 -9 10 -9 9 0 16 -4 16 -10 0 -5 -10 -10 -22 -10
-17 0 -19 -3 -11 -11 9 -9 19 -9 42 1 16 6 34 9 40 6 6 -4 21 -4 35 0 23 5 23
7 7 23 -19 19 -106 26 -117 10z"/>
<path d="M3770 2775 c-18 -21 -3 -32 16 -13 10 9 12 18 6 22 -5 3 -15 -1 -22
-9z"/>
<path d="M4765 2710 c3 -5 13 -10 21 -10 8 0 12 5 9 10 -3 6 -13 10 -21 10 -8
0 -12 -4 -9 -10z"/>
<path d="M4860 2705 c-7 -8 -16 -12 -21 -9 -5 3 -14 2 -19 -1 -9 -6 53 -45 70
-45 3 0 4 16 2 35 -5 38 -13 43 -32 20z"/>
<path d="M6473 2683 c-7 -2 -13 -9 -13 -14 0 -13 43 -4 48 9 4 12 -13 15 -35
5z"/>
<path d="M6218 2673 c7 -3 16 -2 19 1 4 3 -2 6 -13 5 -11 0 -14 -3 -6 -6z"/>
<path d="M3621 2644 c0 -11 3 -14 6 -6 3 7 2 16 -1 19 -3 4 -6 -2 -5 -13z"/>
<path d="M5604 2645 c-15 -10 -16 -16 -7 -26 14 -15 43 -5 43 15 0 22 -15 27
-36 11z"/>
<path d="M5655 2650 c-3 -5 -1 -10 4 -10 6 0 11 5 11 10 0 6 -2 10 -4 10 -3 0
-8 -4 -11 -10z"/>
<path d="M4034 2617 c-23 -20 -25 -26 -15 -45 6 -12 16 -22 21 -22 15 0 23 22
10 30 -9 6 -8 14 5 34 21 32 14 33 -21 3z"/>
<path d="M125 2620 c3 -5 11 -10 16 -10 6 0 7 5 4 10 -3 6 -11 10 -16 10 -6 0
-7 -4 -4 -10z"/>
<path d="M5510 2610 c0 -5 5 -10 10 -10 6 0 10 5 10 10 0 6 -4 10 -10 10 -5 0
-10 -4 -10 -10z"/>
<path d="M4925 2580 c-3 -5 -17 -10 -31 -10 -23 0 -24 -1 -9 -16 11 -11 13
-20 5 -28 -5 -7 -6 -16 -2 -21 4 -4 -7 -4 -25 -1 -18 4 -41 2 -53 -4 -18 -10
-21 -17 -15 -46 5 -28 3 -34 -12 -34 -10 0 -29 -9 -42 -19 l-24 -19 21 -6 c12
-4 32 -4 45 -1 22 7 22 7 2 -9 -11 -8 -26 -16 -32 -16 -7 0 -20 -16 -28 -36
-18 -45 -18 -44 0 -44 8 0 15 9 15 20 0 23 22 27 39 7 6 -8 10 -31 9 -53 -1
-21 2 -54 7 -71 6 -28 5 -33 -9 -33 -12 0 -17 -7 -15 -22 2 -13 0 -28 -4 -35
-10 -16 8 -25 54 -29 39 -4 62 11 34 22 -9 4 -15 14 -14 23 1 9 -3 29 -9 44
-16 39 -16 43 14 72 18 19 33 25 48 21 34 -8 136 -79 136 -93 0 -15 70 -82 87
-83 6 0 13 -6 16 -12 4 -10 7 -10 18 0 11 10 10 12 -4 12 -9 0 -17 4 -17 9 0
11 25 32 32 26 2 -3 17 9 32 26 17 19 33 28 43 25 12 -5 13 0 8 23 -5 22 0 35
21 60 14 18 23 31 18 30 -21 -4 -34 2 -34 16 0 9 -6 12 -15 9 -10 -4 -15 0
-15 11 0 9 -5 25 -10 36 -10 18 -12 18 -34 -8 l-24 -28 5 28 c3 16 12 31 19
34 17 6 18 39 2 49 -6 4 -8 3 -5 -2 3 -6 2 -16 -4 -24 -6 -11 -9 -8 -9 12 0
17 7 31 19 37 22 12 31 5 31 -23 0 -30 17 -53 29 -41 7 7 4 24 -9 53 -17 38
-23 42 -54 42 -19 0 -37 -4 -40 -9 -4 -5 -24 -12 -46 -16 -25 -4 -40 -12 -40
-21 0 -8 5 -14 10 -14 6 0 10 -5 10 -11 0 -7 12 -22 26 -35 19 -19 24 -32 21
-57 l-3 -32 -8 33 c-5 17 -15 32 -23 32 -9 0 -12 -6 -9 -18 5 -14 -4 -22 -44
-36 -54 -19 -81 -15 -36 5 14 7 26 18 26 26 0 15 -21 17 -35 4 -6 -5 -19 -12
-31 -15 -18 -6 -20 -3 -16 24 3 21 -2 37 -14 51 -11 12 -17 32 -16 45 2 15 -3
26 -12 30 -10 4 -12 11 -7 22 5 10 17 36 27 59 20 45 40 55 87 46 21 -4 28 -3
23 5 -9 15 -92 16 -101 2z m-65 -125 c0 -16 -6 -25 -15 -25 -8 0 -15 -9 -15
-20 0 -11 -6 -20 -14 -20 -17 0 -9 50 10 57 8 3 14 11 14 19 0 8 5 14 10 14 6
0 10 -11 10 -25z m240 -65 c0 -5 -5 -10 -11 -10 -5 0 -7 5 -4 10 3 6 8 10 11
10 2 0 4 -4 4 -10z m-197 -26 c10 -13 17 -37 15 -52 -3 -24 -7 -27 -41 -26
-37 1 -38 1 -31 -30 l6 -31 -21 19 c-12 11 -21 31 -21 48 0 15 -4 28 -10 28
-19 0 2 27 38 48 46 27 43 27 65 -4z m167 -125 c0 -5 -13 -9 -30 -9 -32 0 -41
16 -12 22 21 5 42 -1 42 -13z m20 -39 c0 -5 -4 -10 -10 -10 -5 0 -10 5 -10 10
0 6 5 10 10 10 6 0 10 -4 10 -10z m71 -33 c-8 -8 -11 -7 -11 4 0 20 13 34 18
19 3 -7 -1 -17 -7 -23z"/>
<path d="M6044 2579 c-3 -6 -1 -16 5 -22 8 -8 11 -5 11 11 0 24 -5 28 -16 11z"/>
<path d="M3890 2551 c0 -21 21 -33 39 -22 17 11 2 41 -20 41 -12 0 -19 -7 -19
-19z"/>
<path d="M4577 2557 c-9 -23 3 -57 20 -57 14 0 11 25 -7 59 -6 11 -8 10 -13
-2z"/>
<path d="M3970 2530 c0 -5 4 -10 9 -10 6 0 13 5 16 10 3 6 -1 10 -9 10 -9 0
-16 -4 -16 -10z"/>
<path d="M5074 2515 c-3 -8 -3 -19 1 -25 11 -18 25 -11 25 15 0 27 -17 34 -26
10z"/>
<path d="M4055 2510 c-3 -5 -2 -10 4 -10 5 0 12 -8 14 -17 3 -11 5 -7 6 10 1
27 -12 36 -24 17z"/>
<path d="M4950 2509 c-13 -8 -13 -10 0 -19 21 -14 30 -12 30 4 0 20 -13 27
-30 15z"/>
<path d="M6030 2476 c0 -8 -7 -16 -15 -20 -8 -3 -15 -13 -15 -22 0 -16 -2 -16
-20 1 -22 20 -22 20 -39 -12 -14 -28 -14 -33 4 -33 8 0 15 7 15 17 0 15 2 15
19 -1 14 -13 20 -14 23 -5 5 16 28 3 28 -16 0 -24 57 -75 84 -75 20 0 26 -5
26 -21 0 -18 -4 -20 -25 -15 -15 4 -25 2 -25 -4 0 -6 -16 -18 -35 -26 -24 -9
-33 -19 -29 -29 8 -21 34 -19 34 2 0 13 3 14 12 5 18 -18 28 -15 28 9 0 18 4
20 25 15 15 -4 25 -2 25 4 0 6 5 8 11 4 8 -5 6 -10 -5 -16 -22 -12 -21 -48 2
-48 13 0 14 -2 3 -9 -11 -7 -10 -13 4 -35 13 -20 21 -24 31 -15 9 7 18 7 33
-1 17 -9 20 -8 15 5 -4 8 -14 15 -24 15 -11 0 -21 4 -24 9 -3 4 13 8 35 8 22
0 46 6 52 13 10 10 8 12 -5 7 -11 -4 -23 2 -33 16 -15 21 -14 22 12 27 32 6
44 38 19 52 -9 5 -16 22 -16 38 0 19 -7 33 -19 40 -28 15 -51 12 -51 -5 0 -8
-5 -15 -10 -15 -6 0 -8 -11 -4 -26 5 -19 4 -25 -5 -20 -6 4 -11 16 -11 26 0
14 -9 20 -37 22 -30 2 -38 7 -38 23 0 13 -8 22 -25 25 -31 7 -40 40 -11 40 23
0 26 12 11 41 -12 22 -30 25 -30 5z m194 -152 c10 -25 -1 -29 -14 -5 -6 12 -7
21 -1 21 5 0 12 -7 15 -16z m-26 -111 c-4 -22 -22 -20 -26 1 -2 10 3 16 13 16
10 0 15 -7 13 -17z"/>
<path d="M20 2470 c0 -6 7 -10 15 -10 19 0 19 6 0 14 -8 3 -15 1 -15 -4z"/>
<path d="M4737 2473 c-4 -3 -7 -11 -7 -17 0 -6 5 -5 12 2 6 6 9 14 7 17 -3 3
-9 2 -12 -2z"/>
<path d="M4563 2395 c-29 -30 -53 -59 -53 -64 0 -5 9 -13 20 -16 11 -3 20 -15
20 -26 0 -43 34 -13 34 31 1 16 9 29 24 35 24 11 31 41 7 31 -25 -9 -17 12 11
30 19 13 22 19 12 25 -19 13 -19 13 -75 -46z"/>
<path d="M4957 2443 c-13 -12 -7 -22 12 -20 15 1 17 4 9 14 -12 15 -13 15 -21
6z"/>
<path d="M4697 2434 c-4 -4 -7 -26 -6 -48 l1 -41 9 39 c10 42 8 62 -4 50z"/>
<path d="M6116 2404 c-17 -12 -17 -14 -3 -20 9 -3 23 -4 31 -2 12 2 12 6 2 19
-10 15 -14 15 -30 3z"/>
<path d="M4970 2402 c0 -18 12 -42 21 -42 14 0 10 26 -6 40 -9 8 -15 8 -15 2z"/>
<path d="M5959 2356 c-34 -24 -50 -196 -19 -196 6 0 10 5 10 11 0 8 5 8 15 -1
8 -7 22 -10 30 -6 22 8 19 44 -5 58 -23 14 -28 43 -6 35 9 -3 16 2 19 15 5 16
11 19 31 14 21 -5 26 -3 26 12 0 22 -35 57 -48 48 -5 -3 -7 -17 -4 -31 3 -20
0 -25 -17 -25 -22 0 -29 28 -11 46 16 16 -2 34 -21 20z"/>
<path d="M4511 2294 c0 -11 3 -14 6 -6 3 7 2 16 -1 19 -3 4 -6 -2 -5 -13z"/>
<path d="M4527 2253 c-4 -3 -7 -11 -7 -17 0 -6 5 -5 12 2 6 6 9 14 7 17 -3 3
-9 2 -12 -2z"/>
<path d="M4842 2165 c13 -29 33 -28 33 1 0 12 -8 20 -23 22 -21 3 -21 2 -10
-23z"/>
<path d="M6120 2174 c0 -8 5 -12 10 -9 6 3 10 10 10 16 0 5 -4 9 -10 9 -5 0
-10 -7 -10 -16z"/>
<path d="M4955 2150 c-8 -13 31 -50 55 -50 26 0 25 12 -3 38 -25 24 -42 28
-52 12z"/>
<path d="M6312 2140 c0 -14 2 -19 5 -12 2 6 2 18 0 25 -3 6 -5 1 -5 -13z"/>
<path d="M6400 2142 c0 -7 -6 -12 -14 -12 -8 0 -18 -5 -22 -11 -5 -9 1 -10 22
-5 37 10 40 14 26 28 -9 9 -12 9 -12 0z"/>
<path d="M5401 2135 c0 -15 25 -45 38 -45 6 0 11 5 11 10 0 6 -7 10 -15 10 -7
0 -19 8 -24 18 -6 9 -10 13 -10 7z"/>
<path d="M4700 2100 c0 -20 5 -30 15 -30 21 0 30 27 15 45 -19 23 -30 18 -30
-15z"/>
<path d="M6195 2080 c3 -5 10 -10 16 -10 5 0 9 5 9 10 0 6 -7 10 -16 10 -8 0
-12 -4 -9 -10z"/>
<path d="M5658 2039 c-19 -11 -24 -29 -8 -29 5 0 14 9 20 20 12 23 12 23 -12
9z"/>
<path d="M40 814 c0 -11 -6 -14 -17 -10 -15 5 -15 4 1 -9 14 -10 22 -12 27 -4
5 8 8 8 13 0 4 -6 11 -11 17 -11 12 0 -12 38 -28 44 -7 3 -13 -2 -13 -10z"/>
<path d="M125 800 c3 -5 8 -10 11 -10 2 0 4 5 4 10 0 6 -5 10 -11 10 -5 0 -7
-4 -4 -10z"/>
<path d="M198 773 c7 -3 16 -2 19 1 4 3 -2 6 -13 5 -11 0 -14 -3 -6 -6z"/>
<path d="M750 429 c0 -5 5 -7 10 -4 6 3 10 8 10 11 0 2 -4 4 -10 4 -5 0 -10
-5 -10 -11z"/>
<path d="M3083 343 c4 -3 1 -13 -6 -22 -11 -14 -10 -14 6 -2 20 15 22 31 5 31
-6 0 -8 -3 -5 -7z"/>
<path d="M3015 293 c-24 -7 -44 -33 -38 -50 8 -20 19 -16 31 12 6 14 18 25 26
25 8 0 18 5 21 10 6 10 -6 11 -40 3z"/>
<path d="M3085 160 c-3 -5 -1 -10 4 -10 6 0 11 5 11 10 0 6 -2 10 -4 10 -3 0
-8 -4 -11 -10z"/>
<path d="M2140 150 c0 -5 5 -10 10 -10 6 0 10 5 10 10 0 6 -4 10 -10 10 -5 0
-10 -4 -10 -10z"/>
<path d="M2860 140 c0 -5 5 -10 11 -10 5 0 7 5 4 10 -3 6 -8 10 -11 10 -2 0
-4 -4 -4 -10z"/>
<path d="M487 133 c-4 -3 -7 -11 -7 -17 0 -6 5 -5 12 2 6 6 9 14 7 17 -3 3 -9
2 -12 -2z"/>
<path d="M1976 124 c-11 -7 -16 -17 -13 -21 4 -4 15 1 24 10 22 21 14 30 -11
11z"/>
<path d="M0 35 l0 -35 63 0 c55 1 59 2 39 13 -18 10 -20 15 -10 26 11 11 9 12
-10 6 -14 -4 -32 -1 -47 9 -33 22 -35 21 -35 -19z"/>
<path d="M1260 30 c-8 -5 -12 -12 -9 -15 4 -3 12 1 19 10 14 17 11 19 -10 5z"/>
<path d="M1300 30 c-12 -8 -11 -10 8 -10 12 0 22 5 22 10 0 13 -11 13 -30 0z"/>
<path d="M2340 30 c0 -5 7 -10 15 -10 8 0 15 5 15 10 0 6 -7 10 -15 10 -8 0
-15 -4 -15 -10z"/>
<path d="M3030 30 c0 -5 -6 -10 -14 -10 -8 0 -18 -4 -21 -10 -4 -6 14 -10 46
-10 42 0 49 2 40 13 -6 8 -8 17 -4 20 3 4 -6 7 -20 7 -15 0 -27 -4 -27 -10z"/>
<path d="M266 15 c4 -8 16 -15 28 -15 21 1 21 1 2 15 -25 19 -37 19 -30 0z"/>
<path d="M342 15 c-11 -13 -7 -15 28 -15 40 0 53 13 24 24 -24 9 -38 7 -52 -9z"/>
<path d="M1340 15 c-14 -16 -10 -18 14 -9 9 3 16 10 16 15 0 14 -16 11 -30 -6z"/>
</g>
</svg>
