<?xml version="1.0" standalone="no"?>
<!DOCTYPE svg PUBLIC "-//W3C//DTD SVG 20010904//EN"
 "http://www.w3.org/TR/2001/REC-SVG-20010904/DTD/svg10.dtd">
<svg version="1.0" xmlns="http://www.w3.org/2000/svg"
 width="500.000000pt" height="344.000000pt" viewBox="0 0 500.000000 344.000000"
 preserveAspectRatio="xMidYMid meet">

<g transform="translate(0.000000,344.000000) scale(0.100000,-0.100000)"
fill="#000000" stroke="none">
<path d="M2351 3414 c15 -16 32 -39 38 -51 7 -13 21 -23 33 -23 36 0 88 -40
95 -71 7 -35 18 -37 34 -7 l12 22 18 -23 c11 -13 19 -31 19 -42 0 -36 18 -27
24 13 4 22 16 52 27 67 15 18 17 27 8 30 -7 2 -15 -1 -17 -7 -2 -7 -11 -8 -27
-2 -12 5 -25 7 -27 4 -3 -2 -35 16 -72 41 -37 24 -86 49 -109 55 -23 6 -51 14
-62 17 -17 5 -17 2 6 -23z"/>
<path d="M2234 3405 c20 -12 31 -14 39 -6 8 8 5 11 -10 11 -12 0 -30 3 -40 6
-10 3 -5 -2 11 -11z"/>
<path d="M3515 3400 c3 -5 12 -7 20 -3 21 7 19 13 -6 13 -11 0 -18 -4 -14 -10z"/>
<path d="M1840 3388 c1 -7 18 -26 40 -43 21 -16 41 -40 44 -52 4 -15 11 -20
21 -17 26 10 17 31 -36 78 -52 47 -69 55 -69 34z"/>
<path d="M3640 3380 c20 -13 33 -13 25 0 -3 6 -14 10 -23 10 -15 0 -15 -2 -2
-10z"/>
<path d="M3705 3344 c13 -14 21 -32 18 -41 -3 -8 4 -28 17 -45 27 -36 20 -47
-13 -21 -14 10 -49 27 -80 38 -35 12 -57 25 -60 37 -3 10 -10 18 -17 18 -15 0
-4 -58 15 -80 8 -8 12 -34 11 -57 -2 -39 6 -55 17 -35 3 4 29 7 59 6 l53 -1
-3 -60 c-4 -54 -1 -63 18 -73 16 -9 33 -9 69 1 54 14 119 5 88 -12 -16 -10
-16 -11 0 -33 15 -20 21 -21 57 -12 22 6 52 24 68 40 19 19 35 26 49 23 23 -6
55 34 45 58 -4 11 2 15 22 15 15 0 43 3 62 5 19 3 42 1 50 -5 13 -9 13 -12 -2
-24 -23 -17 -23 -26 1 -26 23 0 37 -17 44 -55 6 -33 -7 -65 -27 -65 -7 0 -21
-10 -32 -21 -19 -22 -19 -22 5 -14 23 7 23 5 -12 -44 -20 -28 -37 -53 -37 -55
0 -3 19 6 43 19 24 14 63 26 88 27 27 2 53 11 63 21 10 9 22 17 27 17 18 0 8
15 -23 37 l-32 22 35 14 c37 16 307 15 383 0 52 -11 74 -43 82 -121 6 -63 6
-64 -27 -92 l-34 -28 103 -1 102 -1 0 134 0 133 -24 -4 c-17 -4 -25 0 -29 14
-4 17 -5 16 -6 -2 -1 -19 -1 -19 -16 1 -8 12 -36 27 -62 34 -26 6 -55 14 -63
17 -8 4 -21 7 -29 9 -8 1 -17 8 -21 14 -8 13 -215 29 -235 18 -7 -5 -16 -4
-20 2 -3 5 -24 10 -46 10 -36 0 -40 2 -34 20 4 14 2 20 -9 21 -30 3 -35 4 -45
14 -5 6 -12 24 -15 40 -15 86 -41 105 -150 111 -39 2 -88 6 -110 9 -21 2 -81
-3 -135 -11 -144 -24 -142 -24 -165 -2 -21 20 -92 68 -100 68 -3 0 6 -12 19
-26z m375 -268 c0 -13 -69 -42 -122 -52 -46 -8 -54 13 -9 22 16 4 31 14 34 23
5 19 97 26 97 7z"/>
<path d="M3137 3310 c-19 -23 -47 -26 -65 -8 -9 9 -15 9 -24 0 -10 -10 -6 -18
17 -37 17 -13 36 -24 43 -25 7 0 18 -11 24 -25 9 -20 18 -25 50 -25 39 0 39 0
36 -37 -2 -31 -7 -39 -25 -41 -27 -4 -27 -5 -7 -49 11 -22 13 -38 7 -44 -14
-14 -3 -61 13 -55 8 3 11 0 7 -10 -3 -7 -18 -14 -33 -14 -28 0 -28 -1 -17 -36
9 -29 8 -37 -4 -45 -24 -16 -75 0 -137 41 -33 22 -75 43 -93 46 -45 9 -59 21
-81 70 -21 49 -50 70 -118 86 -62 14 -73 5 -35 -27 27 -23 28 -26 12 -36 -9
-5 -15 -13 -13 -17 2 -4 1 -26 -4 -50 -4 -23 -5 -42 -2 -42 3 0 32 7 63 16 84
24 120 14 164 -43 19 -25 35 -51 35 -58 0 -7 6 -15 14 -18 8 -3 16 -28 20 -61
l7 -56 32 16 c17 9 58 24 92 33 55 15 60 19 65 47 8 48 60 122 109 155 24 16
50 29 58 29 8 0 13 12 13 30 0 31 31 84 63 108 9 7 17 18 17 24 0 6 -11 1 -25
-12 -22 -20 -25 -21 -31 -6 -4 10 -11 13 -18 8 -23 -17 -117 -53 -126 -47 -16
10 39 120 107 214 17 23 17 24 -2 14 -30 -16 -136 -19 -162 -5 -28 15 -25 16
-46 -8z"/>
<path d="M3392 3280 c-7 -11 -8 -20 -2 -20 5 0 14 9 20 20 6 11 7 20 3 20 -5
0 -14 -9 -21 -20z"/>
<path d="M1980 3261 c0 -6 5 -13 10 -16 6 -3 10 1 10 9 0 9 -4 16 -10 16 -5 0
-10 -4 -10 -9z"/>
<path d="M1996 3152 c-4 -13 -5 -26 -2 -29 10 -11 18 4 14 29 l-4 23 -8 -23z"/>
<path d="M2610 3151 c0 -11 4 -22 9 -25 4 -3 6 6 3 19 -5 30 -12 33 -12 6z"/>
<path d="M2118 3112 c18 -12 78 -99 97 -140 14 -29 14 -35 0 -55 -20 -28 -19
-41 3 -32 9 4 42 10 72 14 49 5 55 9 58 31 1 14 7 44 14 67 10 42 10 43 -28
78 -32 30 -45 35 -85 35 -25 0 -68 3 -95 6 -31 4 -44 2 -36 -4z"/>
<path d="M1743 3093 c-30 -6 -29 -19 5 -51 46 -44 57 -83 42 -148 -9 -38 -17
-51 -24 -44 -16 16 -21 12 -22 -19 l-1 -28 59 15 c59 15 59 15 52 46 -12 53
-6 126 13 159 l19 31 -46 17 c-25 9 -52 18 -60 21 -8 3 -25 3 -37 1z"/>
<path d="M3487 3078 c-7 -4 -24 -8 -39 -8 -16 0 -28 -1 -28 -3 0 -1 4 -17 9
-35 8 -26 7 -34 -5 -39 -18 -7 -18 -23 0 -23 8 0 16 -7 20 -15 3 -8 12 -15 21
-15 8 0 14 -6 13 -12 -2 -8 8 -13 25 -13 39 0 58 -29 51 -77 -5 -30 -3 -38 8
-38 9 0 21 -7 28 -15 10 -12 10 -15 -1 -15 -12 0 -12 -2 0 -9 7 -5 14 -20 14
-34 0 -17 4 -24 13 -20 8 3 14 9 14 15 0 5 5 6 10 3 7 -4 7 -13 0 -26 -6 -11
-8 -24 -5 -29 10 -16 33 -11 31 6 0 9 5 19 12 21 7 3 12 -5 12 -22 0 -14 4
-24 9 -20 6 3 13 0 18 -7 4 -7 27 -26 51 -42 41 -28 53 -46 32 -46 -7 0 -9
-16 -6 -40 4 -32 2 -40 -11 -40 -13 0 -13 -3 -3 -15 12 -14 8 -29 -8 -30 -4
-1 -22 -9 -41 -19 -18 -10 -43 -15 -55 -12 -11 3 -68 61 -126 128 -144 166
-214 231 -263 243 -34 9 -35 -2 -2 -15 14 -5 25 -16 25 -25 0 -8 5 -15 11 -15
5 0 7 -5 4 -10 -4 -6 7 -35 24 -66 37 -64 50 -134 31 -168 -6 -13 -32 -33 -56
-45 -38 -19 -55 -22 -122 -17 -130 10 -196 18 -214 27 -31 16 -53 152 -34 207
7 21 6 22 -21 15 -15 -4 -54 -8 -85 -7 -32 0 -58 -2 -58 -5 0 -2 6 -12 14 -20
10 -11 15 -47 17 -115 l3 -98 -43 -26 c-36 -21 -46 -23 -67 -13 -14 6 -42 11
-62 10 -35 -1 -34 -2 15 -12 49 -11 145 -68 142 -84 -1 -5 -1 -15 0 -23 1 -13
2 -13 12 0 8 11 9 5 4 -25 -4 -22 -11 -43 -17 -46 -6 -4 -5 -8 3 -11 10 -3 6
-12 -13 -31 -26 -26 -31 -27 -110 -23 -46 2 -108 6 -138 9 -30 2 -46 2 -35 0
11 -3 31 -18 45 -34 17 -19 36 -30 60 -32 20 -2 40 -6 45 -8 6 -3 35 -11 65
-18 46 -11 61 -20 90 -58 19 -24 34 -49 32 -55 -2 -6 0 -18 4 -27 5 -9 8 -29
9 -44 0 -22 -3 -27 -17 -24 -15 4 -18 -1 -18 -34 0 -28 -4 -39 -15 -39 -9 0
-15 9 -15 23 0 21 -1 20 -25 -8 -13 -16 -24 -24 -25 -16 0 8 -6 11 -16 7 -9
-3 -25 4 -39 18 -13 13 -37 30 -54 37 -17 8 -31 18 -31 22 0 19 -71 37 -119
31 -29 -4 -57 -2 -70 5 -20 11 -21 17 -14 83 5 57 3 73 -9 82 -59 44 -51 194
14 263 12 13 26 23 32 23 6 0 23 10 38 23 24 21 25 25 12 47 -23 42 -17 121
12 176 29 55 39 64 71 64 12 0 24 3 27 8 2 4 -2 39 -9 77 -11 58 -11 75 0 102
8 18 11 34 7 37 -4 2 -29 7 -57 11 -27 3 -72 11 -98 17 -26 6 -51 8 -54 5 -8
-9 69 -87 79 -81 5 4 12 -3 15 -15 3 -12 10 -21 16 -21 16 0 36 -33 36 -60 0
-57 -58 -90 -174 -99 l-80 -7 50 -24 c44 -22 50 -29 51 -58 1 -24 -2 -32 -12
-28 -9 3 -17 -12 -25 -50 -14 -61 -13 -61 -124 -67 -52 -3 -80 0 -110 14 -22
9 -58 19 -80 21 -39 4 -40 5 -43 47 -3 34 3 52 23 81 25 36 38 44 107 69 l27
10 -15 53 c-9 29 -14 71 -11 94 l4 42 -51 -6 c-28 -3 -68 -5 -88 -5 -21 1 -38
-1 -38 -4 0 -3 16 -23 35 -44 19 -22 35 -46 35 -53 0 -21 21 -31 31 -15 6 9 9
1 9 -26 -1 -41 -18 -75 -39 -75 -6 0 -11 -6 -11 -14 0 -7 -7 -19 -16 -27 -13
-10 -38 -10 -147 6 -73 10 -149 16 -171 13 l-38 -4 5 75 c3 42 8 86 12 98 7
20 5 21 -32 12 -21 -5 -57 -9 -81 -9 -42 0 -43 0 -39 -33 2 -18 7 -39 11 -46
5 -7 8 -35 7 -62 0 -26 3 -59 8 -71 8 -20 10 -21 16 -5 4 9 13 17 21 17 8 0
23 5 33 12 15 9 26 8 54 -5 19 -9 38 -17 42 -17 4 0 21 -6 38 -14 18 -7 58
-19 89 -25 l57 -12 7 -55 c3 -30 9 -54 12 -54 3 0 22 11 41 24 25 17 44 23 63
19 15 -3 26 -9 23 -13 -3 -5 6 -7 20 -6 13 2 33 -5 43 -14 10 -10 28 -21 39
-24 12 -4 31 -22 44 -41 13 -19 30 -35 37 -35 7 0 10 -5 6 -12 -4 -6 1 -17 10
-23 13 -10 17 -28 17 -71 -1 -81 -3 -94 -15 -94 -5 0 2 -13 17 -28 23 -23 26
-35 23 -66 -5 -34 -3 -38 27 -51 38 -16 59 -38 77 -83 7 -18 21 -37 32 -43 12
-7 17 -17 13 -28 -3 -11 0 -21 8 -24 8 -3 17 -18 20 -34 3 -15 17 -39 30 -53
27 -29 42 -101 27 -130 -14 -26 -107 -45 -157 -31 -57 16 -71 14 -43 -6 14
-10 28 -17 33 -15 4 1 7 -3 7 -8 0 -6 11 -15 24 -20 13 -5 32 -23 42 -39 10
-17 21 -31 24 -31 3 0 4 -16 2 -36 -3 -25 -1 -35 7 -30 12 8 5 -20 -11 -40 -5
-8 -3 -18 7 -27 20 -21 19 -26 -5 -20 -16 4 -20 0 -21 -23 -2 -59 -6 -74 -30
-93 -14 -12 -34 -18 -48 -16 -15 3 -36 -6 -60 -25 -20 -16 -54 -32 -77 -36
-38 -6 -43 -3 -93 42 -65 59 -141 163 -142 195 -1 13 2 43 6 67 6 34 5 42 -8
42 -8 0 -17 -10 -20 -21 -5 -20 -10 -21 -65 -16 -33 4 -82 15 -108 25 -27 10
-82 25 -122 32 -51 9 -76 19 -83 31 -9 19 -2 96 11 114 12 17 19 55 10 55 -5
0 -21 5 -37 12 -15 6 -40 12 -55 13 -15 2 -56 17 -91 35 -49 24 -70 42 -87 72
-37 66 -34 188 5 188 21 0 29 24 17 47 -6 10 -8 31 -5 46 4 22 11 27 34 27 42
0 153 -47 177 -75 13 -15 28 -22 37 -19 8 4 15 1 15 -4 0 -16 -18 -24 -25 -12
-3 5 -11 10 -17 10 -18 0 10 -27 47 -45 26 -12 35 -22 35 -40 0 -19 9 -28 35
-39 19 -8 35 -21 35 -28 1 -7 20 -35 43 -61 38 -43 46 -48 71 -41 25 6 27 10
21 38 -15 67 -17 161 -4 199 7 22 28 50 50 68 l37 29 -35 66 c-24 45 -37 84
-40 125 l-6 59 -51 0 c-28 0 -80 9 -116 20 -36 11 -75 20 -87 20 -24 0 -32
-25 -10 -33 7 -3 5 -6 -5 -6 -24 -1 -23 -18 1 -26 11 -3 23 -15 26 -25 3 -10
16 -22 28 -26 24 -8 48 -35 41 -46 -3 -5 0 -8 5 -8 6 0 11 5 11 10 0 6 5 10
11 10 5 0 7 -5 3 -11 -4 -7 2 -9 17 -7 27 4 51 -21 75 -78 14 -35 14 -37 -6
-56 -23 -21 -24 -21 -125 5 -33 9 -95 18 -137 21 -78 5 -123 21 -148 51 -20
24 -28 225 -9 226 8 1 41 0 74 -1 l60 -2 -3 49 -4 48 -104 0 c-57 0 -104 -2
-104 -5 0 -3 5 -11 10 -16 12 -12 -2 -60 -16 -57 -12 3 -22 -36 -33 -117 -6
-48 -4 -73 6 -97 7 -19 9 -33 3 -33 -5 0 -6 -8 -3 -17 5 -12 2 -15 -10 -10 -9
3 -17 3 -17 -2 0 -4 -15 -12 -32 -18 -28 -8 -38 -6 -70 16 -44 30 -47 41 -15
41 35 0 40 11 13 29 -74 49 -135 103 -150 133 -9 18 -26 45 -38 60 -11 14 -18
33 -15 42 7 18 93 60 160 78 47 12 47 12 41 48 -9 47 -13 52 -31 41 -29 -16
-143 22 -233 78 -41 26 -140 48 -140 32 0 -4 13 -15 30 -24 16 -10 30 -24 30
-31 0 -7 12 -19 28 -26 15 -8 29 -16 31 -17 2 -2 7 -23 11 -48 6 -41 4 -48
-18 -66 -34 -26 -66 -33 -91 -19 -26 13 -61 4 -61 -16 0 -12 12 -39 28 -64 2
-2 7 2 13 10 8 13 11 12 20 -4 15 -25 72 -75 122 -107 5 -4 6 -12 2 -19 -4 -6
0 -19 9 -28 24 -28 11 -59 -25 -57 -31 2 -36 -4 -19 -21 8 -8 6 -15 -5 -24 -8
-7 -15 -23 -15 -36 0 -40 -32 -50 -167 -53 -40 -1 -53 -5 -53 -16 0 -8 -4 -15
-10 -15 -5 0 -10 -4 -10 -10 0 -14 27 -12 33 3 3 9 7 9 17 0 14 -12 6 -33 -13
-33 -18 0 -15 -72 3 -78 13 -4 13 -3 2 10 -8 10 -9 18 -3 22 6 4 19 -13 30
-36 l19 -43 -1 53 c-1 28 -6 52 -12 52 -5 0 -2 7 8 15 11 7 24 12 31 9 6 -2
22 5 34 16 25 23 161 84 169 76 3 -3 18 3 33 14 31 22 55 26 65 10 3 -5 1 -10
-4 -10 -20 0 -11 -18 11 -23 13 -2 31 -8 41 -12 22 -9 24 20 1 33 -21 12 -9
62 16 62 22 0 32 -24 17 -39 -8 -8 -5 -17 11 -34 12 -13 22 -31 22 -40 0 -9 5
-17 10 -17 6 0 14 -8 17 -17 4 -10 15 -29 25 -43 12 -15 17 -33 14 -46 -4 -15
2 -32 19 -52 17 -20 21 -32 13 -40 -11 -11 -3 -32 14 -32 5 0 8 7 5 14 -4 10
-1 13 8 10 8 -3 15 -15 17 -27 4 -24 -28 -87 -43 -87 -5 0 -9 -9 -9 -21 0 -11
-4 -18 -9 -15 -5 3 -11 -3 -14 -13 -3 -13 -17 -22 -41 -26 -20 -4 -39 -11 -42
-16 -2 -5 -24 -13 -47 -19 -23 -6 -51 -15 -62 -21 -17 -8 -31 2 -96 63 -41 40
-88 90 -103 111 -29 38 -46 47 -46 23 0 -7 -6 -19 -14 -26 -8 -6 -13 -17 -10
-25 4 -8 -5 -15 -25 -19 -17 -3 -45 -9 -62 -12 -21 -4 -29 -10 -25 -20 3 -8 1
-14 -4 -14 -5 0 -11 8 -14 18 -6 19 -83 50 -210 86 l-78 22 -25 59 c-22 51
-23 62 -12 84 20 39 23 47 14 39 -5 -4 -14 -3 -22 3 -9 8 -13 8 -13 0 0 -7 -8
-8 -24 -1 -13 5 -33 6 -45 3 -16 -4 -21 -1 -21 13 -1 22 -45 58 -60 49 -6 -4
-8 -10 -6 -14 3 -4 -10 -13 -29 -20 -30 -11 -34 -16 -33 -46 1 -19 5 -32 10
-29 12 7 76 -34 88 -56 6 -10 10 -29 10 -41 0 -17 3 -19 14 -10 10 9 16 8 26
-4 10 -12 10 -15 -4 -15 -9 0 -16 -4 -16 -9 0 -5 -15 -9 -34 -8 -22 1 -32 6
-29 14 3 7 -3 15 -13 19 -11 3 -27 10 -36 15 -16 8 -18 3 -18 -61 0 -85 14
-97 59 -50 16 18 34 29 40 26 5 -3 16 0 24 9 13 13 17 11 33 -12 11 -17 13
-28 6 -31 -7 -2 -3 -16 10 -38 21 -36 58 -47 58 -16 1 31 40 70 40 39 0 -20
52 -63 72 -59 14 3 16 10 11 35 l-5 32 22 -22 c21 -19 22 -24 9 -39 -11 -13
-11 -18 -1 -21 6 -3 12 -13 12 -23 0 -11 9 -20 23 -23 20 -3 20 -4 3 -12 -12
-5 -21 -3 -26 6 -7 11 -12 10 -28 -4 -25 -23 -37 -21 -56 8 -17 26 -60 36 -50
12 2 -7 -7 -19 -21 -27 -22 -12 -27 -11 -39 5 -7 10 -18 15 -24 11 -6 -3 -14
-1 -17 4 -4 7 -19 8 -36 5 -17 -4 -35 -2 -42 3 -7 5 -27 12 -45 14 l-33 5 3
-65 3 -65 43 -15 c29 -9 52 -26 70 -51 15 -21 33 -36 39 -34 17 6 38 -36 24
-50 -6 -6 -11 -24 -11 -39 0 -20 -5 -28 -17 -29 -76 -5 -133 -22 -133 -39 0
-5 7 -10 15 -10 9 0 19 -8 22 -17 9 -23 44 -52 63 -53 13 0 13 -1 0 -10 -13
-9 -13 -11 0 -20 12 -7 12 -12 2 -22 -6 -6 -12 -27 -12 -45 0 -26 5 -35 25
-43 13 -5 30 -18 37 -30 16 -26 26 -25 48 3 23 29 80 27 80 -3 0 -10 7 -23 15
-30 8 -7 15 -20 15 -29 0 -17 65 -91 80 -91 14 0 60 -46 60 -61 1 -8 12 6 25
31 12 25 36 52 52 61 41 24 145 42 203 37 27 -3 50 -1 50 3 0 14 27 10 44 -6
8 -8 21 -15 28 -15 30 0 105 -33 140 -61 20 -16 41 -29 47 -29 5 0 25 -18 44
-40 38 -45 47 -49 47 -20 0 27 9 25 58 -11 23 -17 42 -26 42 -21 0 5 16 2 35
-6 19 -9 35 -20 35 -25 0 -4 -5 -5 -10 -2 -6 4 -36 3 -68 -1 -44 -5 -63 -13
-83 -35 -15 -16 -35 -29 -46 -29 -22 0 -50 -17 -42 -25 3 -3 40 -7 82 -9 72
-3 79 -5 117 -40 32 -28 48 -36 79 -36 49 0 105 -42 96 -71 -5 -14 0 -22 19
-29 30 -11 56 -57 56 -98 0 -17 9 -37 21 -48 17 -15 20 -26 15 -56 l-6 -38 57
1 58 0 -37 16 c-21 8 -38 20 -38 26 0 7 18 28 41 49 37 34 40 39 33 75 -12 70
-91 213 -142 259 -29 25 -79 29 -74 6 3 -18 -56 17 -69 39 -14 27 -14 76 0
103 20 37 125 74 234 82 61 5 87 4 87 -4 0 -7 11 -9 28 -6 15 2 50 -4 77 -14
43 -15 50 -22 53 -47 2 -17 11 -36 20 -42 14 -12 14 -14 -4 -27 -24 -18 -17
-25 29 -28 22 -2 37 -8 37 -15 0 -7 9 -13 20 -13 29 0 70 -21 70 -36 0 -8 -34
-29 -77 -49 -79 -36 -88 -52 -27 -46 19 1 57 -5 85 -14 40 -14 56 -15 76 -6
13 6 29 8 34 5 6 -3 17 2 25 12 14 18 14 18 29 0 11 -15 18 -17 26 -9 16 16 2
33 -28 33 -21 0 -23 2 -13 15 17 20 -7 43 -39 37 -22 -4 -24 -2 -13 9 7 8 42
15 84 17 l71 4 -7 -27 c-4 -17 -3 -24 4 -20 5 3 25 -4 42 -17 18 -13 42 -28
53 -34 11 -6 20 -20 20 -30 0 -24 15 -35 38 -28 20 6 24 -21 5 -29 -7 -3 -3
-6 10 -6 12 -1 25 -7 28 -15 3 -8 19 -20 35 -26 17 -7 29 -20 29 -30 0 -18 19
-30 48 -30 27 0 95 -39 119 -68 l23 -27 0 47 c0 40 4 50 25 64 36 23 32 50 -9
64 -19 6 -46 26 -60 45 -30 39 -154 135 -176 135 -14 0 -176 44 -210 57 -8 3
-27 5 -41 4 -22 -2 -27 3 -32 26 -7 37 -4 38 34 19 41 -20 39 -21 39 12 0 18
10 38 29 56 25 24 40 29 98 32 37 2 79 7 93 10 47 11 153 14 187 5 18 -5 35
-6 37 -2 7 11 128 3 153 -10 13 -7 23 -18 23 -26 0 -7 11 -13 25 -13 13 0 33
-9 44 -21 18 -19 21 -20 49 -5 25 13 35 13 54 3 39 -20 82 -57 75 -64 -4 -3
-7 -2 -7 3 0 5 -9 -4 -20 -21 -11 -16 -20 -40 -20 -52 0 -22 2 -23 76 -17 54
4 79 2 84 -6 4 -6 27 -16 50 -21 24 -6 48 -16 54 -23 18 -22 56 -30 56 -12 0
23 14 20 62 -17 24 -18 58 -39 77 -47 49 -20 101 -73 101 -102 0 -14 6 -31 14
-38 8 -6 12 -18 9 -26 -3 -8 -1 -14 4 -14 17 0 43 36 43 58 0 35 18 25 29 -15
15 -52 14 -78 -4 -93 -8 -7 -15 -23 -15 -36 0 -24 -3 -25 -55 -28 -21 -1 -35
-36 -14 -36 20 0 179 53 179 60 0 3 -14 14 -30 24 -29 17 -31 20 -24 62 5 37
1 53 -26 106 -28 56 -49 80 -137 159 -13 11 -23 27 -23 35 0 13 -9 14 -57 7
-75 -10 -118 -8 -168 9 -41 13 -41 14 -64 103 -8 32 -18 44 -53 63 -50 26 -59
27 -52 7 7 -18 -3 -19 -34 -1 -22 12 -23 14 -7 29 12 13 15 25 9 50 -18 81 13
164 71 191 18 9 38 22 45 31 7 8 21 15 31 15 11 0 19 4 19 8 0 11 -45 51 -108
96 -56 41 -70 69 -56 118 8 27 6 35 -17 58 -25 24 -26 30 -18 79 13 83 38 149
65 170 32 25 90 45 110 37 17 -7 64 3 64 13 0 3 -30 6 -68 6 -54 0 -73 4 -99
23 -17 12 -46 25 -65 29 -18 3 -43 13 -55 20 -12 8 -31 12 -42 8 -10 -3 -22
-1 -26 5 -3 5 -15 10 -25 10 -21 0 -34 28 -24 53 4 12 1 14 -15 10 -12 -3 -21
-1 -21 6 0 6 5 11 10 11 6 0 10 28 10 63 1 65 10 86 48 106 18 9 22 18 18 35
-4 15 1 28 14 39 25 21 30 21 46 0 18 -24 17 -33 -4 -33 -9 0 -22 -8 -29 -18
-9 -15 -7 -21 8 -30 11 -7 16 -18 12 -27 -3 -9 2 -22 13 -29 15 -12 16 -18 6
-40 -6 -14 -9 -33 -6 -41 7 -17 30 -20 39 -5 5 8 11 8 19 1 7 -6 16 -8 19 -4
4 3 13 0 22 -7 12 -10 15 -10 15 0 0 9 7 7 20 -5 11 -10 20 -13 20 -7 0 7 18
15 40 18 22 4 40 8 40 10 0 2 -9 18 -20 36 -31 51 -26 79 23 131 46 50 51 83
11 73 -18 -5 -22 -3 -18 9 4 10 2 13 -8 10 -17 -7 -33 10 -41 42 -5 24 34 83
73 110 11 8 20 18 20 24 0 13 -48 30 -85 31 -18 0 -37 9 -47 22 -10 11 -18 16
-18 10 0 -21 -30 -24 -50 -7 -24 21 -26 33 -5 33 10 0 15 10 15 33 0 26 6 36
25 45 35 16 37 15 30 -8 -5 -16 -3 -19 12 -13 16 6 16 5 4 -11 -12 -15 -12
-19 1 -33 19 -19 38 -9 38 19 0 16 5 19 22 15 13 -4 29 0 39 9 11 10 19 12 24
5 3 -6 15 -11 27 -11 17 0 18 2 8 15 -11 13 -10 18 6 29 23 17 35 9 63 -45 24
-46 27 -69 7 -69 -8 0 -13 -8 -12 -17 1 -14 -7 -18 -34 -18 -26 0 -36 -5 -38
-18 -3 -15 0 -18 16 -13 13 4 22 1 26 -9 3 -9 10 -14 14 -11 5 3 23 -4 40 -14
25 -16 37 -18 59 -9 34 13 53 5 53 -21 0 -13 4 -18 11 -15 6 4 8 13 5 21 -3 9
2 14 14 14 11 0 20 -4 20 -9 0 -7 12 -13 47 -21 4 -1 9 3 11 9 2 6 -3 8 -11 5
-12 -4 -14 0 -10 15 3 12 11 21 18 21 17 0 65 -49 65 -66 0 -30 32 -7 55 39 9
18 18 21 55 18 25 -1 49 -7 54 -12 15 -14 36 -11 36 6 0 21 18 19 32 -5 7 -11
21 -20 31 -20 11 0 17 -5 14 -12 -2 -7 0 -23 4 -35 5 -13 5 -23 -1 -23 -5 0
-10 -12 -12 -27 l-3 -27 -85 2 c-47 1 -86 6 -88 12 -5 13 -32 13 -32 0 0 -5
-9 -10 -20 -10 -14 0 -18 5 -13 16 5 14 0 16 -30 12 -26 -3 -37 0 -37 9 0 7 7
13 15 13 9 0 15 9 15 21 0 15 -5 19 -16 15 -12 -4 -14 -1 -9 14 9 29 -8 24
-32 -9 -16 -21 -19 -31 -11 -39 8 -8 5 -14 -13 -20 -19 -7 -26 -6 -31 7 -6 14
-7 13 -7 -3 -1 -14 -4 -16 -14 -7 -9 7 -24 8 -47 1 -25 -7 -36 -6 -43 3 -6 8
-7 6 -3 -6 3 -11 0 -20 -9 -23 -22 -9 -10 -21 27 -28 18 -3 44 -9 58 -13 30
-7 72 -7 122 2 21 4 46 4 55 0 30 -12 173 -8 188 5 12 10 15 9 15 -3 0 -10 6
-14 15 -11 9 4 15 0 15 -10 0 -9 4 -16 8 -16 4 0 8 -8 9 -17 1 -10 5 -41 8
-70 3 -31 1 -54 -5 -58 -23 -14 2 -20 67 -15 52 4 79 11 106 30 24 17 32 26
22 28 -15 3 -52 62 -39 62 4 0 2 6 -3 13 -5 6 -9 32 -8 57 0 41 2 44 25 44 20
0 25 -5 23 -25 -1 -20 3 -25 20 -24 12 0 32 6 44 13 28 16 34 15 27 -3 -4 -8
-1 -15 5 -15 6 0 11 5 11 12 0 23 13 -3 17 -33 2 -19 -1 -28 -7 -24 -6 4 -18
1 -26 -6 -18 -14 -3 -29 31 -29 45 0 93 -21 98 -41 3 -12 10 -18 15 -15 13 8
35 -20 27 -34 -3 -5 -1 -10 4 -10 6 0 11 -5 11 -11 0 -5 -5 -7 -12 -3 -6 4 -8
3 -5 -4 10 -14 -2 -42 -18 -42 -7 0 -20 -11 -29 -25 -18 -27 -22 -25 42 -25 4
0 7 5 7 10 0 6 5 9 10 8 6 -2 9 -7 7 -12 -6 -18 22 -24 35 -8 12 16 15 15 37
-12 15 -18 28 -26 37 -21 9 6 11 3 6 -10 -5 -10 -2 -22 7 -29 7 -6 16 -28 19
-49 5 -31 3 -38 -8 -33 -10 3 -15 -1 -15 -13 0 -16 -6 -19 -37 -16 -25 2 -46
-4 -64 -17 -23 -17 -32 -19 -58 -10 -32 11 -37 7 -21 -18 6 -10 4 -20 -7 -32
-14 -16 -12 -17 27 -13 23 2 50 11 59 19 10 9 21 16 25 16 4 0 18 7 32 17 36
23 95 23 115 0 11 -14 31 -20 67 -22 51 -2 122 -28 122 -45 0 -4 12 -13 28
-19 24 -10 24 -11 2 -6 -13 2 -43 -1 -67 -6 -36 -10 -48 -8 -86 10 -24 12 -59
21 -78 21 -19 0 -44 7 -55 15 -21 16 -90 20 -99 6 -5 -9 17 -20 61 -30 3 0 -2
-8 -10 -17 -21 -20 -12 -34 22 -34 19 0 32 8 43 26 14 24 17 24 32 10 8 -9 25
-16 36 -16 24 0 71 -20 71 -30 0 -4 18 -10 41 -13 22 -3 48 -12 57 -20 9 -8
29 -17 44 -21 14 -3 33 -9 42 -12 14 -5 16 6 16 90 0 63 -4 96 -11 96 -6 0
-18 9 -27 20 -10 10 -30 22 -45 26 -23 5 -29 3 -33 -13 -5 -17 -9 -18 -40 -9
l-34 11 4 108 4 107 -29 0 c-41 0 -79 20 -95 51 -17 34 -18 124 0 164 11 26
10 33 -6 55 -49 67 -23 158 68 237 29 25 55 51 57 57 3 7 -14 12 -47 13 -28 1
-71 9 -96 18 -25 9 -71 19 -103 22 -66 7 -84 23 -94 86 -4 27 -10 37 -19 33
-22 -8 -17 25 10 64 39 58 40 75 9 90 -161 76 -211 92 -288 97 -106 7 -135 22
-135 69 0 29 -3 35 -16 30 -8 -3 -25 0 -37 8 -12 8 -39 17 -59 20 -21 4 -63
27 -99 54 -34 26 -75 55 -90 65 -16 11 -29 26 -29 34 0 12 -8 13 -40 8 -30 -5
-41 -3 -46 8 -3 8 -23 17 -45 21 -31 5 -42 12 -50 33 -7 19 -7 29 0 31 6 2 21
12 33 22 l23 19 -48 -2 c-27 -1 -54 -5 -60 -9z m677 -500 c5 -23 0 -34 -21
-54 l-27 -25 -19 23 c-13 16 -17 18 -13 6 7 -23 -3 -22 -30 0 -31 25 -36 56
-11 72 17 10 22 10 32 -4 16 -21 22 -20 28 3 8 31 54 16 61 -21z m56 8 c0 -28
-15 -50 -29 -42 -7 5 -7 13 2 28 9 16 9 22 0 25 -21 8 -15 22 7 16 12 -3 20
-14 20 -27z m25 -47 c-4 -5 1 -9 9 -9 9 0 16 5 16 10 0 6 9 1 20 -10 11 -11
20 -22 20 -24 0 -9 -75 7 -82 17 -8 14 2 38 13 31 5 -3 7 -10 4 -15z m-405 -4
c0 -8 -4 -15 -10 -15 -5 0 -7 7 -4 15 4 8 8 15 10 15 2 0 4 -7 4 -15z m-656
-151 c23 -9 20 -19 -9 -32 -17 -8 -25 -20 -25 -37 0 -14 -2 -25 -4 -25 -2 0
-11 -3 -20 -6 -11 -4 -14 0 -12 20 1 13 8 31 14 39 7 8 8 18 4 22 -4 5 1 5 11
2 11 -4 17 -1 17 8 0 17 2 17 24 9z m536 0 c0 -3 -7 -12 -15 -20 -16 -17 -18
-14 -9 10 6 15 24 23 24 10z m-610 -25 c0 -14 -17 -10 -23 5 -4 10 -1 13 9 9
7 -3 14 -9 14 -14z m677 -12 c8 -13 9 -18 11 -55 2 -16 11 -27 32 -35 17 -6
30 -17 30 -24 0 -9 -11 -6 -36 8 -20 11 -41 18 -48 15 -6 -2 -3 -5 7 -5 9 -1
17 -5 17 -10 0 -11 -49 -21 -55 -11 -3 4 -25 5 -50 2 -32 -3 -45 -1 -45 8 0 8
-8 10 -25 6 -21 -5 -25 -3 -25 14 0 11 7 23 15 26 11 5 13 10 5 19 -16 19 4
29 57 28 31 -1 43 3 40 12 -7 16 60 19 70 2z m253 -7 c0 -5 -2 -10 -4 -10 -3
0 -8 5 -11 10 -3 6 -1 10 4 10 6 0 11 -4 11 -10z m371 -132 c-6 -17 -21 -26
-21 -13 0 3 0 14 0 25 0 13 5 18 14 14 10 -4 12 -12 7 -26z m-1181 18 c0 -3
-4 -8 -10 -11 -5 -3 -10 -1 -10 4 0 6 5 11 10 11 6 0 10 -2 10 -4z m375 -36
c-3 -5 -11 -10 -16 -10 -6 0 -7 5 -4 10 3 6 11 10 16 10 6 0 7 -4 4 -10z m-75
-20 c0 -5 -4 -10 -10 -10 -5 0 -10 5 -10 10 0 6 5 10 10 10 6 0 10 -4 10 -10z
m-535 -46 c-27 -25 -45 -31 -45 -15 0 14 51 51 62 45 5 -3 -3 -17 -17 -30z
m64 -9 c3 -17 2 -17 -13 -3 -19 20 -21 31 -3 26 6 -3 14 -13 16 -23z m31 -15
c0 -5 -5 -10 -11 -10 -5 0 -7 5 -4 10 3 6 8 10 11 10 2 0 4 -4 4 -10z m1130
-55 c-7 -8 -16 -15 -21 -15 -5 0 -6 7 -3 15 4 8 13 15 21 15 13 0 13 -3 3 -15z
m-3555 -75 c3 -5 1 -10 -4 -10 -6 0 -11 5 -11 10 0 6 2 10 4 10 3 0 8 -4 11
-10z m565 -184 c0 -17 -21 -2 -39 28 -30 47 -26 52 9 13 17 -19 30 -37 30 -41z
m1258 -72 c-10 -10 -28 6 -28 24 0 15 1 15 17 -1 9 -9 14 -19 11 -23z m-2308
-24 c0 -5 -4 -10 -10 -10 -5 0 -10 5 -10 10 0 6 5 10 10 10 6 0 10 -4 10 -10z
m30 -30 c0 -5 -5 -10 -11 -10 -5 0 -7 5 -4 10 3 6 8 10 11 10 2 0 4 -4 4 -10z
m2702 -33 c4 -7 8 -8 8 -3 0 6 9 0 20 -12 11 -12 20 -28 20 -37 0 -8 6 -15 14
-15 13 0 32 -45 27 -65 -1 -5 4 -14 12 -20 16 -12 29 -55 16 -55 -5 0 -14 11
-19 25 -9 24 -30 35 -30 16 0 -19 27 -60 35 -53 5 4 5 -2 0 -13 -4 -11 -9 -31
-11 -45 -1 -13 -9 -29 -17 -35 -8 -5 -17 -20 -21 -33 -4 -12 -12 -23 -17 -23
-18 -3 -25 -5 -55 -21 -30 -16 -50 -17 -245 -9 -41 1 -45 7 -89 143 -35 104
-30 132 30 201 55 63 101 76 235 70 47 -2 82 -9 87 -16z m-1392 -82 c0 -8 -2
-15 -4 -15 -2 0 -6 7 -10 15 -3 8 -1 15 4 15 6 0 10 -7 10 -15z m3180 -35 c0
-5 -5 -10 -11 -10 -5 0 -7 5 -4 10 3 6 8 10 11 10 2 0 4 -4 4 -10z m-4398 -35
c0 -5 -5 -11 -11 -13 -6 -2 -11 4 -11 13 0 9 5 15 11 13 6 -2 11 -8 11 -13z
m612 -61 c3 -8 2 -12 -4 -9 -6 3 -10 10 -10 16 0 14 7 11 14 -7z m611 -34 c3
-5 -3 -10 -15 -10 -12 0 -18 5 -15 10 3 6 10 10 15 10 5 0 12 -4 15 -10z m105
-78 c3 -3 -5 -2 -17 1 -25 6 -29 -3 -11 -21 15 -15 11 -19 -32 -27 -29 -5 -37
-2 -48 15 -17 27 -8 38 15 19 14 -12 16 -12 8 0 -6 11 -4 13 9 8 15 -6 17 -3
12 17 -6 24 -6 24 27 9 17 -9 34 -18 37 -21z m-170 -2 c0 -5 -2 -10 -4 -10 -3
0 -8 5 -11 10 -3 6 -1 10 4 10 6 0 11 -4 11 -10z m40 -25 c0 -8 -7 -15 -15
-15 -8 0 -15 7 -15 15 0 8 7 15 15 15 8 0 15 -7 15 -15z m200 -56 c0 -3 -11
-4 -25 -1 -16 3 -25 11 -25 24 0 18 1 18 25 1 13 -10 25 -21 25 -24z m-1445 5
c31 -20 33 -38 3 -28 -22 7 -38 21 -38 37 0 11 8 9 35 -9z m420 -4 c-3 -5 -10
-10 -16 -10 -5 0 -9 5 -9 10 0 6 7 10 16 10 8 0 12 -4 9 -10z m927 -4 c30 -4
32 -15 3 -28 -23 -10 -29 -10 -39 3 -6 9 -17 14 -25 11 -12 -4 -12 -3 0 11 8
9 21 14 29 10 8 -3 23 -6 32 -7z m282 -22 c9 -22 8 -24 -9 -18 -8 4 -15 12
-15 20 0 19 16 18 24 -2z m-1199 -4 c3 -5 2 -10 -4 -10 -5 0 -13 5 -16 10 -3
6 -2 10 4 10 5 0 13 -4 16 -10z m1000 -8 c-3 -3 -11 0 -18 7 -9 10 -8 11 6 5
10 -3 15 -9 12 -12z m-588 -59 c-3 -10 -5 -4 -5 12 0 17 2 24 5 18 2 -7 2 -21
0 -30z m-480 5 c-3 -8 -6 -5 -6 6 -1 11 2 17 5 13 3 -3 4 -12 1 -19z m528 -18
c3 -5 -1 -10 -10 -10 -9 0 -13 5 -10 10 3 6 8 10 10 10 2 0 7 -4 10 -10z m-35
-23 c0 -18 -38 -52 -47 -43 -4 4 -3 10 3 14 6 4 13 15 17 25 8 20 27 23 27 4z
m408 1 c15 -15 16 -28 2 -28 -5 0 -10 7 -10 16 0 10 -5 14 -16 10 -8 -3 -12
-2 -9 4 8 13 18 13 33 -2z m95 5 c-7 -2 -19 -2 -25 0 -7 3 -2 5 12 5 14 0 19
-2 13 -5z m1402 -33 c3 -5 1 -10 -4 -10 -6 0 -11 5 -11 10 0 6 2 10 4 10 3 0
8 -4 11 -10z m-2255 -10 c0 -5 -2 -10 -4 -10 -3 0 -8 5 -11 10 -3 6 -1 10 4
10 6 0 11 -4 11 -10z m980 -74 c0 -3 -6 -6 -14 -6 -15 0 -28 24 -19 34 6 5 33
-18 33 -28z m813 10 c-4 -22 -8 -23 -24 -13 -22 14 -24 23 -6 30 26 11 34 6
30 -17z m-1793 -22 c0 -16 12 -18 26 -5 5 6 13 1 21 -15 10 -22 10 -24 -2 -14
-8 6 -23 9 -33 6 -13 -4 -22 -1 -26 9 -3 8 -12 15 -20 15 -8 0 -18 5 -22 12
-4 6 -3 8 2 5 6 -3 16 -2 24 3 17 11 30 4 30 -16z m785 16 c3 -5 1 -10 -4 -10
-6 0 -11 5 -11 10 0 6 2 10 4 10 3 0 8 -4 11 -10z m105 0 c8 -5 11 -12 8 -16
-4 -3 -14 1 -23 10 -18 17 -9 21 15 6z m845 0 c3 -5 1 -10 -4 -10 -6 0 -11 5
-11 10 0 6 2 10 4 10 3 0 8 -4 11 -10z m-105 -19 c0 -11 -25 -21 -53 -21 -22
1 -22 1 -3 15 22 17 56 20 56 6z m622 -3 c-9 -9 -15 -9 -24 0 -9 9 -7 12 12
12 19 0 21 -3 12 -12z m-1867 -8 c11 -18 -5 -31 -21 -16 -8 8 -14 17 -14 20 0
10 28 7 35 -4z m145 -5 c0 -8 -7 -15 -16 -15 -14 0 -14 3 -4 15 7 8 14 15 16
15 2 0 4 -7 4 -15z m560 -5 c0 -5 -7 -10 -16 -10 -8 0 -12 5 -9 10 3 6 10 10
16 10 5 0 9 -4 9 -10z m639 -2 c-1 -1 3 -13 10 -25 10 -19 9 -22 -4 -17 -23 9
-38 41 -22 47 12 4 21 2 16 -5z m-710 -48 c0 -10 -2 -11 -6 -2 -2 6 -15 12
-28 12 -34 0 -40 18 -8 22 30 3 43 -7 42 -32z m236 -8 c-5 -5 -45 36 -45 46 0
3 11 -5 25 -18 14 -13 23 -26 20 -28z m555 44 c0 -3 -4 -8 -10 -11 -5 -3 -10
-1 -10 4 0 6 5 11 10 11 6 0 10 -2 10 -4z m-744 -23 c8 -11 13 -13 14 -5 0 6
5 12 11 12 8 0 7 -5 -2 -16 -10 -13 -10 -17 2 -25 11 -7 10 -9 -5 -9 -16 0
-17 -3 -8 -12 22 -22 13 -27 -39 -24 -58 4 -70 11 -38 21 38 12 52 31 39 55
-14 26 7 28 26 3z m634 -5 c0 -19 -18 -43 -25 -36 -9 9 4 48 16 48 5 0 9 -6 9
-12z m130 2 c0 -5 -2 -10 -4 -10 -3 0 -8 5 -11 10 -3 6 -1 10 4 10 6 0 11 -4
11 -10z m-20 -39 c0 -5 -5 -11 -11 -13 -6 -2 -11 -16 -11 -31 0 -25 -2 -25
-21 -12 -26 18 -31 44 -7 38 10 -3 20 2 23 11 7 17 27 22 27 7z m-650 -21 c21
-11 28 -19 18 -20 -9 0 -21 -8 -27 -17 -5 -10 -13 -14 -18 -9 -4 5 -2 11 5 13
23 9 12 25 -13 19 -24 -6 -35 10 -18 27 9 10 14 9 53 -13z m470 1 c0 -12 -20
-25 -27 -18 -7 7 6 27 18 27 5 0 9 -4 9 -9z m-110 -11 c0 -5 -2 -10 -4 -10 -3
0 -8 5 -11 10 -3 6 -1 10 4 10 6 0 11 -4 11 -10z m220 -36 c0 -8 -4 -12 -10
-9 -5 3 -10 10 -10 16 0 5 5 9 10 9 6 0 10 -7 10 -16z m2 -42 c-26 -4 -52 13
-52 34 0 10 10 7 38 -9 34 -20 35 -22 14 -25z m117 19 c9 -6 10 -11 2 -15 -13
-8 -31 1 -31 15 0 11 11 11 29 0z m599 -142 c32 -11 62 -47 62 -73 0 -9 -9
-20 -20 -26 -17 -9 -22 -5 -40 29 -11 22 -29 45 -40 51 -23 12 -27 30 -6 30 7
0 27 -5 44 -11z m-813 -159 c3 -5 1 -10 -4 -10 -6 0 -11 5 -11 10 0 6 2 10 4
10 3 0 8 -4 11 -10z"/>
<path d="M1520 3026 c0 -9 5 -16 10 -16 6 0 10 4 10 9 0 6 -4 13 -10 16 -5 3
-10 -1 -10 -9z"/>
<path d="M670 2991 c0 -6 12 -16 28 -23 16 -8 27 -21 27 -33 0 -11 4 -26 8
-33 6 -8 0 -15 -16 -21 -32 -13 -48 -36 -18 -26 12 4 21 2 21 -4 0 -6 -4 -11
-10 -11 -5 0 -10 -4 -10 -10 0 -5 9 -10 20 -10 25 0 25 -8 3 -33 -18 -19 -18
-19 12 -4 17 8 39 24 49 36 12 14 26 19 40 15 13 -3 32 2 46 14 14 10 33 21
43 25 9 3 17 11 17 17 0 14 -7 13 -38 -10 -24 -18 -31 -19 -55 -8 -15 7 -30
23 -33 34 -7 27 -46 62 -90 80 -39 17 -44 17 -44 5z"/>
<path d="M825 2991 c-17 -7 -13 -10 23 -20 23 -7 42 -17 42 -23 0 -6 2 -9 5
-6 4 3 3 17 -1 32 -6 27 -29 33 -69 17z"/>
<path d="M3420 2930 c0 -5 5 -10 10 -10 6 0 10 5 10 10 0 6 -4 10 -10 10 -5 0
-10 -4 -10 -10z"/>
<path d="M3833 2920 c-13 -5 -23 -15 -23 -21 0 -7 9 -9 23 -5 12 3 25 6 28 6
4 0 9 7 13 15 6 17 -8 18 -41 5z"/>
<path d="M1090 2901 c0 -5 18 -32 40 -60 22 -28 37 -51 33 -51 -5 0 0 -5 9
-11 9 -5 15 -15 13 -22 -3 -6 -1 -18 4 -26 8 -12 14 -12 45 3 19 9 38 21 41
26 3 5 28 12 55 16 28 4 50 10 50 14 0 19 -13 40 -25 40 -7 0 -19 9 -26 21
-12 17 -25 20 -78 20 -39 1 -80 8 -108 20 -51 22 -53 22 -53 10z"/>
<path d="M3380 2894 c0 -9 5 -14 12 -12 18 6 21 28 4 28 -9 0 -16 -7 -16 -16z"/>
<path d="M3380 2841 c0 -3 11 -15 25 -25 18 -14 23 -25 19 -41 -3 -13 -1 -26
4 -29 6 -3 13 8 17 25 5 22 2 36 -10 49 -17 18 -55 34 -55 21z"/>
<path d="M611 2795 c-46 -42 -53 -60 -16 -43 14 6 25 20 25 31 0 13 5 17 15
13 9 -3 18 1 22 10 11 29 -6 25 -46 -11z"/>
<path d="M505 2726 c-30 -24 -30 -25 -10 -40 36 -28 51 -20 47 24 -2 22 -5 40
-6 40 0 0 -14 -11 -31 -24z"/>
<path d="M603 2728 c-6 -7 -10 -21 -10 -30 0 -23 43 -24 51 -2 4 9 5 17 4 18
-2 1 -10 7 -19 14 -13 10 -18 10 -26 0z"/>
<path d="M3510 2710 c0 -5 5 -10 10 -10 6 0 10 5 10 10 0 6 -4 10 -10 10 -5 0
-10 -4 -10 -10z"/>
<path d="M30 2625 c-26 -43 -21 -51 43 -61 35 -6 55 -19 44 -30 -2 -2 -16 0
-31 5 -14 6 -26 7 -26 3 1 -10 67 -42 88 -42 10 0 22 -4 27 -8 6 -5 30 -15 55
-22 58 -17 76 -30 58 -41 -19 -12 21 -40 49 -34 29 7 55 -31 55 -81 0 -35 1
-36 30 -30 92 18 117 92 51 152 -20 19 -45 36 -55 40 -10 3 -18 12 -18 20 0 8
-12 19 -27 25 -16 5 -37 21 -48 34 -20 25 -182 93 -241 102 -27 4 -34 0 -54
-32z"/>
<path d="M4663 2641 c-4 -16 -11 -19 -27 -15 -29 7 -68 -32 -46 -46 8 -6 34
-10 58 -10 23 0 59 -7 80 -16 20 -9 49 -16 63 -15 16 1 29 -5 33 -15 5 -14 7
-14 22 1 15 15 15 18 -6 39 -18 20 -28 23 -61 19 -32 -5 -44 -1 -64 17 -14 13
-25 29 -25 36 0 23 -21 27 -27 5z"/>
<path d="M3580 2615 c-7 -9 -11 -18 -8 -20 9 -10 38 7 38 21 0 18 -14 18 -30
-1z"/>
<path d="M3707 2605 c-5 -12 -4 -21 2 -23 6 -2 11 -11 11 -20 0 -13 3 -13 12
-4 9 9 10 15 2 20 -7 4 -13 16 -16 27 -4 20 -4 20 -11 0z"/>
<path d="M3752 2526 c7 -8 16 -12 21 -9 11 7 -2 23 -19 23 -12 0 -12 -2 -2
-14z"/>
<path d="M0 2500 c0 -5 7 -10 16 -10 8 0 12 5 9 10 -3 6 -10 10 -16 10 -5 0
-9 -4 -9 -10z"/>
<path d="M3745 2467 c-4 -10 -5 -21 -1 -24 10 -10 18 4 13 24 -4 17 -4 17 -12
0z"/>
<path d="M0 2331 c0 -16 5 -33 11 -37 8 -5 7 -9 -1 -14 -19 -11 -4 -40 20 -40
11 0 20 -4 20 -10 0 -5 12 -10 26 -10 17 0 38 -12 59 -35 18 -19 53 -44 76
-57 51 -26 103 -60 107 -70 2 -5 12 -8 21 -8 23 0 71 -44 71 -66 0 -13 6 -15
32 -10 43 9 47 16 18 34 -14 9 -45 37 -70 63 -25 25 -58 52 -75 61 -16 8 -39
19 -50 25 -48 25 -133 63 -141 63 -17 0 -79 72 -89 103 -14 42 -35 47 -35 8z"/>
<path d="M323 2293 c2 -17 11 -29 22 -32 13 -2 16 1 11 14 -3 9 -6 23 -6 31 0
8 -7 14 -15 14 -11 0 -15 -8 -12 -27z"/>
<path d="M519 2307 c6 -8 8 -17 4 -20 -3 -4 1 -7 9 -7 17 0 31 24 21 34 -4 3
-15 6 -26 6 -15 0 -17 -3 -8 -13z"/>
<path d="M4980 2305 c-10 -12 -10 -15 4 -15 9 0 16 7 16 15 0 8 -2 15 -4 15
-2 0 -9 -7 -16 -15z"/>
<path d="M3383 2292 c10 -10 17 -27 17 -37 0 -13 3 -16 11 -8 17 17 0 63 -24
63 -19 0 -19 -1 -4 -18z"/>
<path d="M1600 2181 c0 -5 5 -13 10 -16 6 -3 10 -2 10 4 0 5 -4 13 -10 16 -5
3 -10 2 -10 -4z"/>
<path d="M2458 2153 c7 -3 16 -2 19 1 4 3 -2 6 -13 5 -11 0 -14 -3 -6 -6z"/>
<path d="M3460 2145 c7 -9 15 -13 17 -11 7 7 -7 26 -19 26 -6 0 -6 -6 2 -15z"/>
<path d="M4978 2073 c7 -3 16 -2 19 1 4 3 -2 6 -13 5 -11 0 -14 -3 -6 -6z"/>
<path d="M0 2007 c0 -26 4 -47 9 -47 12 0 57 37 51 42 -3 1 -17 14 -32 27
l-28 24 0 -46z"/>
<path d="M3392 2033 c-15 -6 -6 -23 14 -23 8 0 14 7 14 15 0 15 -6 17 -28 8z"/>
<path d="M1060 1990 c0 -5 5 -10 11 -10 5 0 7 5 4 10 -3 6 -8 10 -11 10 -2 0
-4 -4 -4 -10z"/>
<path d="M4255 1884 c-17 -13 -18 -16 -5 -24 21 -14 27 -12 34 7 10 24 -6 34
-29 17z"/>
<path d="M370 1860 c0 -5 7 -10 16 -10 8 0 12 5 9 10 -3 6 -10 10 -16 10 -5 0
-9 -4 -9 -10z"/>
<path d="M20 1846 c0 -2 8 -10 18 -17 15 -13 16 -12 3 4 -13 16 -21 21 -21 13z"/>
<path d="M3060 1816 c0 -9 5 -16 10 -16 6 0 10 4 10 9 0 6 -4 13 -10 16 -5 3
-10 -1 -10 -9z"/>
<path d="M2997 1803 c-24 -23 9 -31 39 -8 18 14 18 14 -7 15 -14 0 -29 -3 -32
-7z"/>
<path d="M3540 1800 c-12 -8 -11 -10 8 -10 12 0 25 -6 28 -14 3 -8 15 -11 31
-8 18 3 24 1 19 -7 -4 -6 -1 -11 6 -11 16 0 46 -33 57 -62 9 -25 -8 -68 -27
-68 -7 0 -10 -5 -7 -11 4 -6 14 -8 22 -5 8 4 37 9 63 12 47 6 49 5 97 -43 59
-58 64 -95 20 -141 -31 -32 -35 -52 -9 -52 9 0 25 -7 36 -15 11 -8 30 -12 45
-9 18 4 32 0 40 -10 8 -9 19 -16 25 -16 7 0 46 -17 87 -37 41 -21 77 -36 81
-35 4 1 53 -9 110 -23 56 -13 105 -22 107 -19 2 2 -1 21 -8 43 -6 21 -8 56 -5
77 5 33 4 36 -9 26 -8 -7 -22 -10 -31 -6 -11 4 -16 0 -16 -14 0 -13 -7 -21
-17 -21 -10 0 -43 -3 -74 -7 -59 -7 -75 -2 -189 54 -65 33 -71 49 -35 115 28
55 29 57 14 57 -6 0 -29 13 -52 30 -23 16 -64 35 -92 42 -27 7 -51 13 -53 14
-8 4 21 58 44 79 27 25 25 45 -6 45 -10 0 -20 7 -24 15 -3 8 -16 15 -30 15
-14 0 -37 5 -53 11 -39 15 -185 22 -203 9z m350 -370 c0 -5 -8 -10 -17 -10
-15 0 -16 2 -3 10 19 12 20 12 20 0z"/>
<path d="M3475 1789 c-9 -14 -2 -20 14 -10 8 6 9 11 3 15 -6 3 -14 1 -17 -5z"/>
<path d="M3970 1750 l-25 -20 41 0 c23 0 57 -3 75 -7 31 -6 33 -5 20 10 -7 9
-25 17 -40 17 -15 0 -31 4 -36 9 -6 6 -19 3 -35 -9z"/>
<path d="M4470 1740 c0 -5 5 -10 11 -10 5 0 7 5 4 10 -3 6 -8 10 -11 10 -2 0
-4 -4 -4 -10z"/>
<path d="M1861 1711 c-12 -7 -7 -17 25 -49 33 -33 75 -93 79 -112 0 -3 9 -20
19 -39 11 -21 15 -42 11 -59 l-6 -26 28 28 c15 16 53 40 85 55 l56 27 -29 47
c-15 25 -31 59 -35 74 -10 42 -12 43 -44 25 -29 -16 -32 -16 -68 5 -46 26
-102 37 -121 24z"/>
<path d="M4952 1692 c-21 -16 -22 -20 -9 -31 20 -16 57 5 57 31 0 23 -19 23
-48 0z"/>
<path d="M4321 1651 c-10 -6 -10 -10 -1 -16 13 -8 24 -1 19 14 -3 6 -10 7 -18
2z"/>
<path d="M1830 1641 c0 -5 5 -13 10 -16 6 -3 10 -2 10 4 0 5 -4 13 -10 16 -5
3 -10 2 -10 -4z"/>
<path d="M4564 1613 c0 -12 -7 -19 -21 -21 -28 -4 -30 -22 -3 -22 10 0 24 9
30 19 12 24 13 41 1 41 -5 0 -8 -8 -7 -17z"/>
<path d="M4236 1601 c-4 -7 -5 -15 -2 -18 9 -9 19 4 14 18 -4 11 -6 11 -12 0z"/>
<path d="M4200 1590 c0 -5 5 -10 11 -10 5 0 7 5 4 10 -3 6 -8 10 -11 10 -2 0
-4 -4 -4 -10z"/>
<path d="M4415 1430 c-3 -5 1 -10 9 -10 9 0 16 5 16 10 0 6 -4 10 -9 10 -6 0
-13 -4 -16 -10z"/>
<path d="M3484 1301 c-3 -3 -26 -6 -50 -6 -42 0 -59 -14 -32 -26 63 -30 112
-50 163 -65 33 -9 78 -25 101 -36 22 -10 45 -18 51 -18 5 0 24 -7 41 -16 18
-8 36 -13 42 -9 5 3 10 1 10 -4 0 -6 8 -11 18 -11 57 0 159 -84 147 -121 -8
-24 22 -39 79 -39 36 0 44 -3 40 -15 -4 -10 0 -15 14 -15 11 0 26 -10 34 -21
13 -20 18 -21 71 -12 32 6 60 6 63 2 3 -5 16 -9 30 -9 14 0 42 -11 62 -25 20
-14 41 -25 46 -25 4 0 24 -14 43 -30 18 -16 39 -30 44 -30 15 0 59 -42 59 -56
0 -6 6 -24 14 -40 8 -16 18 -46 21 -66 7 -34 5 -39 -19 -48 -14 -5 -26 -15
-26 -21 0 -6 6 -9 14 -6 16 6 28 -26 19 -49 -4 -11 -9 -12 -18 -4 -9 7 -15 7
-19 1 -4 -6 -18 -6 -39 1 -17 5 -46 12 -64 14 -17 2 -50 11 -73 19 -52 18 -51
18 -44 0 6 -16 -20 -10 -123 28 -50 19 -196 41 -215 34 -7 -3 4 -6 25 -6 26
-1 37 -5 37 -16 0 -9 9 -15 23 -15 12 -1 33 -7 47 -15 14 -8 34 -14 46 -15 26
0 59 -34 49 -50 -11 -18 16 -30 38 -19 26 14 95 1 135 -24 18 -12 42 -41 53
-64 11 -24 24 -45 29 -48 4 -2 6 -15 3 -27 -14 -86 -14 -94 1 -107 12 -11 19
-11 30 -2 15 13 287 18 305 6 19 -11 128 51 168 95 21 23 22 34 23 164 0 138
0 139 -20 121 -12 -11 -28 -15 -41 -12 -16 4 -19 3 -11 -5 17 -17 -20 -80 -75
-127 -59 -50 -147 -94 -233 -116 -36 -9 -73 -21 -83 -26 -16 -9 -17 -7 -8 10
15 27 21 30 88 42 32 6 74 18 93 26 l35 16 -33 10 c-18 5 -31 14 -30 18 6 16
140 149 150 149 6 0 3 9 -7 20 -10 11 -24 20 -31 20 -21 0 -69 55 -99 112 -39
74 -45 82 -102 127 -52 42 -173 105 -182 95 -3 -3 1 -10 9 -15 12 -9 12 -10
-3 -5 -10 3 -20 6 -23 6 -2 0 -1 7 2 15 4 9 0 15 -10 15 -9 0 -16 6 -16 14 0
21 79 95 109 103 61 14 63 19 37 71 -26 51 -111 129 -121 112 -8 -13 11 -37
36 -45 21 -7 44 -74 30 -88 -5 -5 -7 -15 -5 -21 6 -14 -32 -56 -50 -56 -8 0
-16 -9 -19 -20 -3 -11 -9 -19 -14 -18 -4 2 -19 -8 -31 -20 -19 -19 -31 -23
-55 -18 -18 3 -60 9 -95 12 -56 6 -66 10 -88 40 -44 58 -120 99 -277 149 -82
27 -159 57 -172 67 -13 10 -27 34 -31 52 -5 27 -10 33 -25 29 -10 -3 -19 -1
-19 3 0 10 -86 15 -96 5z"/>
<path d="M50 1089 c0 -5 5 -7 10 -4 6 3 10 8 10 11 0 2 -4 4 -10 4 -5 0 -10
-5 -10 -11z"/>
<path d="M4782 1036 l-34 -25 29 -15 c16 -8 36 -22 43 -31 26 -32 60 -37 112
-18 43 15 50 15 59 3 7 -11 9 0 7 35 l-3 50 -50 8 c-125 20 -128 20 -163 -7z"/>
<path d="M3400 971 c0 -5 12 -14 28 -20 20 -8 21 -10 5 -7 -19 3 -21 1 -14
-12 5 -9 20 -17 32 -17 14 0 25 -7 27 -17 2 -10 43 -60 91 -110 132 -140 164
-178 157 -185 -3 -3 -6 -1 -6 5 0 22 -31 12 -40 -14 -6 -14 -14 -22 -20 -19
-15 9 -12 -21 3 -34 10 -8 20 -4 42 19 16 17 32 30 36 30 4 0 20 5 34 10 l27
10 -22 38 c-17 29 -21 47 -17 82 9 80 2 94 -55 108 -28 6 -80 32 -117 57 -36
24 -93 54 -125 65 -68 23 -66 23 -66 11z m310 -371 c0 -5 -4 -10 -10 -10 -5 0
-10 5 -10 10 0 6 5 10 10 10 6 0 10 -4 10 -10z"/>
<path d="M4000 849 c0 -5 5 -7 10 -4 6 3 10 8 10 11 0 2 -4 4 -10 4 -5 0 -10
-5 -10 -11z"/>
<path d="M693 789 c-30 -9 -46 -29 -23 -29 16 0 60 23 60 32 0 4 -1 8 -2 7 -2
0 -18 -5 -35 -10z"/>
<path d="M4970 740 c-26 -26 -26 -66 -1 -80 11 -5 22 -20 24 -32 2 -13 5 12 6
55 0 42 -1 77 -4 77 -3 0 -14 -9 -25 -20z"/>
<path d="M215 550 c3 -5 10 -10 16 -10 5 0 9 5 9 10 0 6 -7 10 -16 10 -8 0
-12 -4 -9 -10z"/>
<path d="M3863 543 c-7 -2 -13 -14 -13 -25 0 -17 4 -19 27 -13 34 8 55 24 47
36 -6 10 -41 11 -61 2z"/>
<path d="M3781 496 c-8 -10 -9 -16 -1 -21 13 -8 30 3 30 21 0 18 -14 18 -29 0z"/>
<path d="M2842 307 c-30 -32 -28 -38 11 -22 17 7 32 19 32 26 0 22 -20 20 -43
-4z"/>
<path d="M2815 40 c3 -5 8 -10 11 -10 2 0 4 5 4 10 0 6 -5 10 -11 10 -5 0 -7
-4 -4 -10z"/>
<path d="M2725 20 c-3 -5 1 -10 10 -10 9 0 13 5 10 10 -3 6 -8 10 -10 10 -2 0
-7 -4 -10 -10z"/>
<path d="M1360 9 c0 -5 5 -7 10 -4 6 3 10 8 10 11 0 2 -4 4 -10 4 -5 0 -10 -5
-10 -11z"/>
<path d="M3490 10 c-18 -6 -6 -8 43 -9 43 -1 66 3 62 9 -7 12 -69 12 -105 0z"/>
</g>
</svg>
